<svg width="7" height="15" viewBox="0 0 7 15" fill="none" xmlns="http://www.w3.org/2000/svg">
<path d="M1.16154 14.0013C1.31093 14.0018 1.45854 13.9688 1.59352 13.9048C1.7285 13.8407 1.84742 13.7473 1.94154 13.6313L6.77154 7.63125C6.91862 7.45232 6.99902 7.22788 6.99902 6.99625C6.99902 6.76463 6.91862 6.54018 6.77154 6.36125L1.77154 0.361252C1.6018 0.157036 1.35789 0.0286112 1.09346 0.0042315C0.829033 -0.0201482 0.565752 0.0615137 0.361536 0.231252C0.157319 0.400991 0.0288949 0.644902 0.00451517 0.909329C-0.0198646 1.17375 0.0617967 1.43704 0.231535 1.64125L4.70154 7.00125L0.381536 12.3613C0.259253 12.508 0.181576 12.6868 0.157696 12.8763C0.133817 13.0659 0.164733 13.2583 0.246789 13.4308C0.328846 13.6034 0.458605 13.7488 0.620716 13.8499C0.782826 13.9509 0.970502 14.0035 1.16154 14.0013Z" fill="black"/>
</svg>
