<svg width="7" height="15" viewBox="0 0 7 15" fill="none" xmlns="http://www.w3.org/2000/svg">
<path d="M1.16251 14.0013C1.31191 14.0018 1.45952 13.9688 1.5945 13.9048C1.72948 13.8407 1.84839 13.7473 1.94251 13.6313L6.77251 7.63125C6.91959 7.45232 7 7.22788 7 6.99625C7 6.76463 6.91959 6.54018 6.77251 6.36125L1.77251 0.361252C1.60277 0.157036 1.35886 0.0286112 1.09444 0.0042315C0.83001 -0.0201482 0.566729 0.0615137 0.362512 0.231252C0.158296 0.400991 0.0298715 0.644902 0.00549173 0.909329C-0.018888 1.17375 0.0627732 1.43704 0.232512 1.64125L4.70251 7.00125L0.382513 12.3613C0.26023 12.508 0.182552 12.6868 0.158673 12.8763C0.134793 13.0659 0.16571 13.2583 0.247766 13.4308C0.329822 13.6034 0.459582 13.7488 0.621692 13.8499C0.783803 13.9509 0.971478 14.0035 1.16251 14.0013Z" fill="#0ABAB5"/>
</svg>
