<svg width="294" height="275" viewBox="0 0 294 275" fill="none" xmlns="http://www.w3.org/2000/svg">
<g opacity="0.06">
<path d="M196.376 123.729L131.711 87.5293L99.2244 145.562L99.4366 145.572C99.4366 145.572 95.1899 151.796 94.0376 162.802C93.8563 170.322 94.4846 181.454 98.7571 192.883C100.203 196.523 101.945 200.22 104.184 204.196L101.712 215.225C101.291 216.949 103.41 218.026 104.613 216.849L112.371 209.215C112.371 209.215 124.61 208.553 137.342 203.703C142.239 201.763 147.472 199.03 152.577 195.355C157.61 191.422 161.761 186.341 164.191 179.862C165.4 176.728 166.67 175.043 168.056 174.513L196.459 123.776L196.376 123.729Z" fill="black"/>
<path d="M106.678 163.563C108.93 166.348 124.816 185.04 148 186.804C148.425 186.824 148.813 186.715 149.081 186.43L154.505 181.409C155.265 180.636 154.983 179.389 153.978 179.044C146.832 177.222 125.914 170.629 110.417 154.55C109.727 153.837 108.656 154 108.192 154.829C107.347 156.533 106.193 159.372 106.376 162.741C106.32 163.036 106.476 163.341 106.678 163.563Z" fill="#ECCB00"/>
<path d="M106.678 163.563C108.93 166.348 124.816 185.04 148 186.804C148.425 186.824 148.813 186.715 149.081 186.43L154.505 181.409C155.265 180.636 154.983 179.389 153.978 179.044C146.832 177.222 125.914 170.629 110.417 154.55C109.727 153.837 108.656 154 108.192 154.829C107.347 156.533 106.193 159.372 106.376 162.741C106.32 163.036 106.476 163.341 106.678 163.563Z" fill="url(#paint0_linear_492_1002)"/>
<path d="M131.185 195.247L123.628 197.659C123.24 197.768 122.862 197.666 122.577 197.397C121.105 196.137 116.273 192.126 111.846 191.281C111.468 191.178 111.136 190.993 111.027 190.605L108.257 182.521C107.919 181.569 108.936 180.724 109.848 181.234L131.403 193.301C132.232 193.765 132.09 194.992 131.185 195.247Z" fill="url(#paint1_linear_492_1002)"/>
<path d="M156.452 122.502C170.874 130.576 189.112 125.43 197.186 111.007C205.26 96.5841 200.113 78.3469 185.69 70.273C171.267 62.199 153.03 67.3457 144.956 81.7684C136.882 96.1912 142.029 114.428 156.452 122.502Z" fill="black"/>
<path d="M160.115 115.952C170.921 122.001 184.584 118.145 190.633 107.339C196.682 96.5339 192.826 82.8705 182.021 76.8214C171.215 70.7724 157.552 74.6283 151.503 85.4339C145.454 96.2395 149.31 109.903 160.115 115.952Z" fill="url(#paint2_linear_492_1002)"/>
<path d="M206.68 70.0408L188.655 74.7144L189.537 78.117L207.562 73.4434L206.68 70.0408Z" fill="black"/>
<path d="M204.959 75.7245C207.156 76.9548 209.935 76.1706 211.166 73.9728C212.396 71.7751 211.612 68.9961 209.414 67.7658C207.216 66.5355 204.437 67.3197 203.207 69.5175C201.977 71.7152 202.761 74.4942 204.959 75.7245Z" fill="black"/>
<path d="M174.263 51.9095L170.901 52.9365L176.341 70.7462L179.704 69.7191L174.263 51.9095Z" fill="black"/>
<path d="M170.387 56.371C172.584 57.6013 175.363 56.8171 176.594 54.6193C177.824 52.4216 177.04 49.6426 174.842 48.4123C172.644 47.1819 169.865 47.9662 168.635 50.1639C167.405 52.3617 168.189 55.1407 170.387 56.371Z" fill="black"/>
<path d="M115.743 147.949C114.636 147.982 113.584 147.721 112.729 146.915C112.609 146.739 112.361 146.6 112.241 146.424C110.245 147.267 107.918 147.924 105.527 148.11C104.373 148.226 103.202 147.788 102.43 147.029C100.453 147.447 98.1457 147.68 96.2555 147.166C95.6653 147.053 95.1679 146.775 94.6339 146.367C93.0822 146.805 91.1524 147.14 89.196 147.134C87.5348 147.184 86.0524 146.136 85.3559 144.658C83.4923 144.485 81.39 143.962 79.6125 142.858C78.369 142.162 77.6625 140.895 77.6026 139.446C69.3721 136.254 54.6585 128.888 42.8485 114.002C41.6446 112.457 41.6145 110.371 42.9207 108.816C44.1805 107.343 46.2031 106.842 47.9441 107.817C49.8973 108.802 54.3309 110.412 62.8957 110.09C69.67 109.853 74.0036 108.142 77.7271 106.742C79.5474 106.019 81.3678 105.295 83.3904 104.794C83.8279 103.624 84.6799 102.685 85.8902 102.274C86.9711 101.899 89.1694 101.279 91.9846 101.113C92.4122 100.154 93.3007 99.345 94.3352 99.0531C95.5455 98.6417 97.7438 98.0213 100.761 98.0773C101.262 97.3775 102.011 96.817 102.87 96.6445C104.339 96.1602 107.645 95.5065 111.601 96.4144C112.711 95.4029 114.217 95.0479 115.646 95.4124C115.941 95.4688 116.319 95.5715 116.568 95.7107C117.111 95.9063 117.536 95.9261 117.95 96.1582C121.038 97.4509 123.856 99.0289 126.49 100.938C133.689 106.166 138.389 113.915 139.01 121.558L139.027 122.112L139.451 122.132L139.15 124.032L139.256 125.398L138.914 125.424L138.735 126.522C136.828 140.044 121.748 145.975 116.851 147.916C116.473 147.813 116.085 147.923 115.743 147.949ZM115.022 136.984C115.917 136.94 116.885 137.156 117.668 137.703C118.119 138.064 118.487 138.379 118.762 138.86C124.336 136.1 128.092 133.086 130.042 129.604C126.766 129.621 123.324 129.545 119.587 129.413C117.123 129.34 114.576 129.221 112.03 129.102L104.912 138.51L113.921 135.061L112.25 138.045C112.555 137.889 112.777 137.687 113.036 137.614C113.692 137.219 114.339 137.037 115.022 136.984ZM89.0723 139.769C89.0723 139.769 89.1552 139.816 89.0723 139.769C89.1552 139.816 89.0723 139.769 89.0723 139.769ZM89.8743 137.17C91.3698 137.027 92.6962 137.769 93.5784 138.917C95.4352 138.323 96.5824 137.441 96.6653 137.487L108.764 128.907C95.2281 128.19 81.3444 126.733 68.0405 122.878L69.6379 116.913C67.7081 117.248 65.6125 117.49 63.1853 117.547C60.4995 117.677 58.1651 117.568 56.0893 117.385C68.2801 128.674 81.6006 133.082 84.4955 133.941C86.0905 134.398 87.175 135.767 87.4007 137.309C88.296 137.266 89.1084 137.176 89.5792 137.113C89.6621 137.16 89.745 137.206 89.8743 137.17ZM72.4729 116.322C82.6264 118.413 92.9786 118.982 102.797 119.143C111.849 119.31 121.263 119.027 130.816 118.495C130.743 118.237 130.67 117.978 130.551 117.802L105.292 106.711C103.624 105.995 102.065 105.667 100.792 105.608C100.736 105.903 100.633 106.281 100.447 106.612C99.6486 108.234 97.8184 109.169 96.0012 108.914C94.5256 108.633 93.123 108.61 91.9691 108.726C91.9592 108.938 91.8664 109.104 91.7736 109.27C91.1869 110.901 89.6054 111.976 87.7783 111.933C85.5268 111.87 83.4479 112.666 80.5002 113.847C78.2555 114.55 75.6593 115.493 72.4729 116.322ZM115.226 105.304L130.478 117.544C129.005 113.562 125.99 109.805 122.041 106.941C120.641 105.94 119.112 104.975 117.491 104.176C116.954 104.746 116.085 105.131 115.226 105.304Z" fill="black"/>
<path d="M46.3016 111.143C48.7522 112.406 53.8589 114.176 63.1068 113.8C76.4432 113.318 80.9553 107.786 87.9219 107.984C88.2635 107.957 88.4955 107.543 88.2103 107.274L87.106 106.329C86.9037 106.107 86.8771 105.766 87.2651 105.656C88.7339 105.172 92.3547 104.15 96.7815 104.995C97.1595 105.098 97.438 104.6 97.1528 104.332C96.9505 104.11 96.7847 104.017 96.5824 103.795C95.9291 103.211 96.1445 102.243 97.0033 102.07C99.1088 101.616 102.783 101.277 106.994 103.09L104.086 100.7C103.883 100.478 103.857 100.136 104.245 100.027C105.843 99.506 110.137 98.6432 114.77 101.454C115.101 101.64 115.546 101.235 115.307 100.884L114.398 99.3953C114.242 99.0903 114.474 98.6758 114.852 98.7785C115.608 98.984 116.576 99.1994 116.825 99.3386C119.581 100.446 122.234 101.931 124.618 103.701C130.087 107.742 134.726 114.042 135.553 120.929C135.58 121.27 135.311 121.556 134.97 121.582C124.428 122.323 113.649 122.713 103.064 122.558C91.7605 122.328 80.4765 121.673 69.4111 119.072C85.7756 123.877 103.002 124.81 119.989 125.391C124.916 125.536 129.807 125.552 134.745 125.485C135.169 125.505 135.408 125.856 135.434 126.198C133.745 135.051 124.998 140.172 117.06 143.46C116.321 143.808 115.502 143.132 115.671 142.246C115.923 141.407 114.938 140.638 114.235 141.116C112.488 142.097 109.872 143.464 106.917 143.879C106.058 144.051 105.461 143.173 105.879 142.427L106.25 141.763C106.25 141.763 101.834 143.429 98.8165 143.373C97.9676 143.333 97.4999 142.418 98.0834 141.765L99.3067 140.163C99.3067 140.163 95.1723 143.075 89.7276 143.076C89.3861 143.102 89.1937 142.668 89.4622 142.383C89.8601 142.061 90.4337 141.62 91.0073 141.179C91.2758 140.894 91.0834 140.459 90.7419 140.486C89.0707 140.748 86.1263 140.951 83.5364 139.936C82.7439 139.602 82.757 138.411 83.5793 138.109L84.1429 137.88C84.448 137.725 84.4678 137.3 84.1362 137.114C79.4805 135.706 60.6023 129.166 46.5503 111.283C45.5257 111.362 45.887 110.911 46.3016 111.143Z" fill="url(#paint3_linear_492_1002)"/>
<path d="M153.503 168.216C152.597 163.027 149.77 147.072 160.3 138.376L161.142 137.65L160.986 137.345L162.206 136.721L163.668 135.471L163.907 135.822L164.388 135.547C171.228 132.081 180.29 132.036 188.511 135.441C191.515 136.687 194.334 138.265 197.05 140.221C197.335 140.489 197.703 140.804 198.154 141.166C198.357 141.388 198.642 141.656 198.89 141.796C199.995 142.74 200.516 144.339 200.151 145.768C203.04 148.583 204.164 151.825 204.519 153.331C204.692 154.189 204.652 155.038 204.4 155.877C206.072 158.337 206.646 160.619 206.928 161.865C207.173 162.983 206.994 164.08 206.401 164.946C207.731 167.433 208.351 169.631 208.597 170.748C208.879 171.995 208.607 173.258 207.755 174.197C208.349 176.054 208.684 177.984 209.056 180.043C209.763 184.032 210.533 188.491 213.956 194.436C218.158 201.906 221.932 204.89 223.709 205.994C225.321 207.005 226.081 208.955 225.484 210.798C224.887 212.642 223.047 213.79 221.101 213.571C202.319 211.332 188.265 202.594 181.242 197.246C180.058 197.999 178.526 198.013 177.282 197.316C175.329 196.332 173.867 194.86 172.746 193.361C171.075 193.623 169.453 192.825 168.627 191.382C167.562 189.589 166.876 187.898 166.438 186.346C165.894 186.15 165.397 185.872 164.909 185.381C163.483 184.038 162.558 181.996 161.798 180.046C160.664 179.738 159.762 179.015 159.258 177.971C158.084 175.789 157.51 173.508 157.184 171.366C156.972 171.356 156.677 171.3 156.511 171.207C155.377 170.899 154.604 170.14 154.054 169.178C153.722 168.992 153.613 168.604 153.503 168.216ZM164.104 166.202C164.094 166.414 164.121 166.756 164.147 167.097L165.818 164.113L167.587 173.596L171.886 162.61C170.453 160.501 169.103 158.439 167.67 156.33C165.687 153.26 163.787 150.236 162.042 147.518C160.093 150.999 159.404 155.731 160.048 161.972C160.602 161.955 161.063 162.104 161.606 162.3C162.482 162.681 163.218 163.311 163.603 164.18C163.998 164.836 164.18 165.483 164.104 166.202ZM176.747 186.019C176.939 186.454 177.288 187.193 177.719 187.979C179.198 187.282 180.885 187.574 182.109 188.694C184.437 190.76 195.076 199.764 211.072 204.255C209.832 202.581 208.565 200.565 207.225 198.29C206.087 196.238 205.115 194.278 204.392 192.458L200.142 196.938C189.938 187.742 181.484 176.585 173.713 165.375L172.724 180.174C172.724 180.174 172.654 181.66 173.119 183.553C174.605 183.622 175.885 184.448 176.545 185.797C176.628 185.844 176.71 185.89 176.747 186.019ZM201.632 181.44C201.051 178.393 200.689 176.121 199.459 174.235C198.55 172.746 198.556 170.79 199.641 169.437C199.733 169.271 199.909 169.151 200.002 168.986C199.498 167.941 198.745 166.757 197.733 165.647C196.52 164.314 196.36 162.265 197.371 160.653C197.557 160.322 197.779 160.119 198.048 159.834C197.331 158.78 196.283 157.54 194.754 156.575L172.095 140.841C171.836 140.914 171.577 140.987 171.365 140.977C175.86 149.482 180.586 157.572 185.461 165.201C190.778 173.404 196.628 182.014 203.719 189.577C202.501 186.5 202.03 183.84 201.632 181.44ZM190.326 144.841C188.797 143.876 187.176 143.077 185.591 142.408C181.167 140.585 176.342 140.061 172.141 140.758L190.549 147.361C190.2 146.621 190.074 145.68 190.326 144.841Z" fill="black"/>
<path d="M221.641 209.301C219.284 207.872 215.105 204.444 210.591 196.364C204.03 184.743 206.387 178.004 202.576 172.169C202.42 171.864 202.652 171.45 203.03 171.552L204.413 172C204.708 172.056 205.013 171.9 204.904 171.512C204.549 170.007 203.527 166.386 200.493 163.054C200.207 162.786 200.486 162.288 200.864 162.391C201.159 162.447 201.325 162.54 201.62 162.596C202.459 162.848 203.172 162.158 202.87 161.336C202.157 159.304 200.525 155.995 196.777 153.352L200.335 154.582C200.631 154.638 200.936 154.482 200.826 154.095C200.435 152.46 198.925 148.348 194.107 145.869C193.775 145.683 193.888 145.093 194.312 145.113L196.057 145.109C196.398 145.083 196.63 144.668 196.345 144.4C195.775 143.862 195.085 143.15 194.836 143.01C192.452 141.24 189.799 139.755 187.043 138.648C180.739 136.099 172.944 135.437 166.64 138.333C166.335 138.488 166.233 138.866 166.389 139.172C171.268 148.545 176.571 157.938 182.236 166.88C188.342 176.396 194.799 185.672 202.802 193.745C190.15 182.308 180.349 168.11 170.973 153.933C168.274 149.809 165.703 145.648 163.179 141.404C162.94 141.052 162.516 141.032 162.211 141.188C155.547 147.257 155.754 157.39 157.101 165.876C157.191 166.688 158.196 167.033 158.862 166.426C159.446 165.772 160.616 166.21 160.577 167.059C160.653 169.062 160.856 172.006 162.047 174.742C162.349 175.564 163.41 175.613 163.827 174.867L164.199 174.204C164.199 174.204 165.088 178.839 166.713 181.383C167.191 182.085 168.215 182.006 168.467 181.167L169.193 179.287C169.193 179.287 168.872 184.333 171.718 188.975C171.874 189.28 172.345 189.217 172.447 188.839C172.514 188.332 172.59 187.612 172.666 186.893C172.769 186.515 173.239 186.452 173.395 186.757C174.045 188.318 175.412 190.934 177.631 192.612C178.33 193.112 179.338 192.479 179.166 191.62L179.066 191.02C179.04 190.678 179.391 190.44 179.723 190.625C183.357 193.858 198.801 206.532 221.393 209.162C221.777 210.03 221.973 209.486 221.641 209.301Z" fill="url(#paint4_linear_492_1002)"/>
<path d="M120.48 124.905C119.236 124.209 118.354 123.062 117.952 121.639C117.879 121.381 117.806 121.122 117.816 120.91C115.29 120.366 112.441 119.425 109.871 117.986C108.628 117.29 107.709 116.014 107.344 114.721C104.966 113.716 102.516 112.453 100.897 110.676C100.41 110.185 100.015 109.529 99.7498 108.836C97.8232 108.193 95.7406 107.245 93.5486 105.909C91.7712 104.805 90.8922 102.68 91.1571 100.65C89.3995 99.122 87.6153 97.2521 86.4975 94.7753C85.7644 93.1672 85.8073 91.3401 86.772 89.8114C80.4705 80.8395 70.2848 63.0514 68.4411 39.6979C68.2186 37.1779 69.8132 34.9129 72.1872 34.1731C74.5613 33.4334 77.1511 34.4476 78.3253 36.6293C79.6188 38.9867 83.1012 43.6583 92.1178 49.1414C99.2277 53.5571 104.789 54.7102 109.63 55.7872C112.074 56.2842 114.388 56.8177 116.647 57.6463C117.923 56.7277 119.511 56.4191 121.153 56.7935C122.499 57.1116 125.182 57.9601 128.12 59.7138C129.257 59.0438 130.67 58.8546 132.016 59.1727C133.528 59.5837 136.294 60.4785 139.258 62.5737C140.293 62.2818 141.4 62.2485 142.451 62.5103C144.342 63.024 148.221 64.6515 151.624 68.2984C153.424 67.9997 155.305 68.7256 156.555 70.1878C156.794 70.5392 157.079 70.8078 157.364 71.0763C157.852 71.567 158.173 71.9648 158.449 72.4456C160.754 75.9137 162.624 79.5741 164.024 83.2976C167.875 93.7288 167.396 104.893 162.792 113.313L162.606 113.645L163.104 113.923L161.353 115.883L160.425 117.541L160.01 117.309L159.205 118.165C147.85 130.863 128.096 126.665 121.697 125.26C121.438 125.333 120.894 125.137 120.48 124.905ZM127.607 112.562C128.685 113.166 129.494 114.054 129.905 115.264C130.134 115.828 130.234 116.428 130.287 117.111C137.602 118.049 143.242 117.504 147.549 115.451C144.206 113.253 140.827 110.926 137.163 108.33C134.695 106.513 132.182 104.779 129.632 102.916L116.743 107.461L128.233 110.082L124.702 111.916C124.785 111.962 124.831 111.88 124.914 111.926C125.893 111.929 126.861 112.145 127.607 112.562ZM98.9092 97.6947C98.9921 97.7412 98.9921 97.7412 98.9092 97.6947C98.9921 97.7412 98.9921 97.7412 98.9092 97.6947ZM101.436 95.5159C103.011 96.3976 104.039 98.0621 104.162 99.9819C106.43 100.598 108.091 100.548 108.091 100.548L126.096 100.284C112.656 90.2552 99.3475 79.212 88.4265 66.2386L94.192 61.191C92.0266 60.1965 89.6589 58.98 87.1353 57.4583C84.5288 55.8903 82.3467 54.3421 80.3769 52.8038C85.2872 72.4298 95.6811 85.7614 98.0988 88.6392C99.3856 90.2306 99.7109 92.3727 98.9021 94.2065C99.7676 94.7999 100.56 95.1347 101.058 95.4131C101.27 95.423 101.353 95.4694 101.436 95.5159ZM98.6621 62.9312C107.484 71.6805 117.555 79.1695 127.195 85.8728C136.302 92.1683 146.137 98.3278 156.325 104.248C156.417 104.083 156.427 103.87 156.437 103.658L138 74.9355C136.852 73.0954 135.509 71.799 134.276 70.8907C134.007 71.1759 133.702 71.3318 133.351 71.5706C131.252 72.7911 128.669 72.5428 126.921 70.8022C125.661 69.5523 124.215 68.634 123.054 67.9843C122.879 68.1037 122.786 68.2695 122.657 68.306C120.806 69.6658 118.296 69.6761 116.446 68.3135C114.181 66.7189 111.488 66.0827 107.781 65.3139C105.088 64.6777 102.054 64.068 98.6621 62.9312ZM149.812 80.6769L156.709 102.395C157.574 97.5436 157.112 91.9498 155.145 86.711C154.385 84.7614 153.543 82.7653 152.478 80.9716C151.536 81.0977 150.734 80.9752 149.812 80.6769ZM126.496 68.0601C126.496 68.0601 126.45 68.143 126.496 68.0601C126.45 68.143 126.496 68.0601 126.496 68.0601Z" fill="black"/>
<path d="M74.1725 38.9861C75.7778 41.9536 79.867 47.2916 89.6663 53.3217C103.767 61.9774 112.228 59.3102 119.226 64.3161C119.594 64.6311 120.121 64.2729 119.975 63.7556L119.418 62.0282C119.308 61.6402 119.623 61.2721 120.001 61.3748C121.808 61.8421 126.335 63.2872 130.281 67.1297C130.649 67.4446 131.259 67.1329 131.067 66.6985C130.994 66.4399 130.884 66.0519 130.811 65.7933C130.52 64.7588 131.454 63.8667 132.413 64.2943C134.92 65.2622 138.946 67.407 142.04 72.188L140.633 67.6985C140.524 67.3106 140.839 66.9425 141.217 67.0452C143.19 67.6053 148.24 69.6703 151.146 75.7612C151.338 76.1955 152.068 76.0595 152.051 75.5057L152.067 73.3371C152.087 72.9127 152.651 72.6838 152.89 73.0353C153.533 73.831 154.306 74.5902 154.545 74.9417C156.611 78.0583 158.289 81.2844 159.616 84.7493C162.562 92.7136 162.918 102.386 159.026 110.116C158.794 110.53 158.323 110.593 157.992 110.408C146.514 103.874 135.269 96.9254 124.386 89.526C112.931 81.5894 101.673 73.1091 92.0717 62.8346C105.649 79.0373 122.791 91.7909 139.952 104.12C144.933 107.671 149.924 111.009 155.127 114.357C155.542 114.589 155.641 115.19 155.243 115.511C147.383 123.524 134.908 122.856 124.46 120.708C123.491 120.493 123.08 119.283 123.839 118.51C124.681 117.784 124.151 116.398 123.09 116.348C120.543 116.229 116.909 115.719 113.619 114.204C112.661 113.777 112.637 112.457 113.553 111.989L114.338 111.558C114.338 111.558 108.658 110.229 105.528 108.041C104.662 107.448 104.934 106.184 105.885 105.846L108.176 105.06C108.176 105.06 101.956 105.28 96.2189 101.524C95.8044 101.292 95.9635 100.618 96.3879 100.638C97.071 100.585 97.9662 100.542 98.825 100.369C99.2959 100.306 99.4549 99.6331 98.994 99.4839C97.0773 98.6287 93.927 96.8651 91.9337 94.0071C91.2538 93.0821 92.1622 91.8485 93.2133 92.1103L93.8865 92.2693C94.3474 92.4185 94.6723 91.8382 94.3042 91.5232C90.3974 86.8318 75.493 67.1642 73.1479 39.0659C73.2506 38.6879 73.9801 38.5518 74.1725 38.9861Z" fill="url(#paint5_linear_492_1002)"/>
<path d="M171.796 153.631C171.298 153.353 170.93 153.038 170.479 152.677C165.936 147.955 152.03 133.311 156.919 116.993L157.227 115.859L156.812 115.627L157.74 113.969L158.496 111.452L158.993 111.731L159.179 111.399C163.949 103.072 173.263 96.744 184.122 94.6568C188.028 93.9035 192.126 93.5846 196.288 93.7365C196.842 93.7198 197.302 93.869 198.022 93.9452C198.4 94.0479 198.824 94.0677 199.202 94.1705C201.103 94.4719 202.704 95.6952 203.391 97.3862C208.279 98.3803 211.648 100.92 213.12 102.18C213.976 102.985 214.527 103.947 214.736 104.935C218.072 106.367 220.28 108.257 221.421 109.331C222.396 110.312 222.973 111.615 222.997 112.935C226.064 114.652 228.107 116.449 229.128 117.347C230.269 118.422 230.873 120.066 230.757 121.635C232.644 123.126 234.262 124.903 236.01 126.644C239.413 130.291 243.349 134.346 250.83 138.098C260.265 142.835 266.151 143.408 268.707 143.315C271.264 143.222 273.399 144.853 274.01 147.263C274.62 149.674 273.523 152.217 271.258 153.345C250.304 163.936 229.898 164.598 218.955 163.917C218.12 165.409 216.621 166.53 214.867 166.746C212.218 167.005 209.645 166.544 207.423 165.845C205.785 167.215 203.56 167.494 201.69 166.556C199.442 165.515 197.545 164.235 196.036 162.846C195.306 162.982 194.623 163.035 193.821 162.913C191.46 162.462 189.102 161.033 187.003 159.531C185.663 159.979 184.141 159.781 182.898 159.084C182.815 159.038 182.815 159.038 182.732 158.992C180.162 157.553 178.036 155.71 176.299 153.757C176.04 153.83 175.864 153.949 175.606 154.022C174.478 154.48 173.039 154.328 171.796 153.631ZM211.405 164.372C211.405 164.372 211.488 164.419 211.405 164.372V164.372ZM165.704 125.613C166.205 130.358 168.689 135.451 173.312 141.197C173.793 140.921 174.357 140.692 175.086 140.556C177.275 140.148 179.44 141.143 180.541 143.066C180.624 143.112 180.578 143.195 180.661 143.241L180.378 139.272L188.619 147.697L185.756 134.334C182.917 133.181 180.079 132.027 177.287 130.791C173.122 128.895 169.288 127.184 165.704 125.613ZM190.226 136.074L199.035 151.459C199.035 151.459 199.861 152.901 201.572 154.512C203.273 153.614 205.442 153.63 207.09 154.77C207.587 155.049 208.287 155.549 209.245 155.977C210.386 154.329 212.382 153.486 214.411 153.751C218.128 154.308 235.056 156.162 254.224 150.124C251.966 149.296 249.423 148.199 246.723 146.796C244.107 145.441 241.915 144.105 239.852 142.732L238.564 150.286C221.878 147.805 205.636 142.197 190.226 136.074ZM171.156 111.788C170.98 111.908 170.888 112.074 170.712 112.193C181.085 117.782 191.477 122.947 201.605 127.418C212.359 132.132 223.962 136.885 236.078 139.748C233.336 137.451 231.183 135.266 229.28 133.22C226.686 130.462 224.736 128.499 222.193 127.402C220.064 126.537 218.761 124.392 218.953 122.104C218.963 121.892 218.926 121.762 219.019 121.596C217.775 120.9 216.32 120.194 214.595 119.773C212.327 119.157 210.636 117.121 210.579 114.694C210.599 114.27 210.572 113.928 210.675 113.55C209.256 112.973 207.402 112.589 205.28 112.49L171.156 111.788ZM192.565 103.303C190.433 103.416 188.338 103.659 186.279 104.03C180.784 105.092 175.775 107.623 172.091 110.896L194.081 105.458C193.428 104.875 192.821 104.209 192.565 103.303Z" fill="black"/>
<path d="M269.246 148.189C265.877 148.372 259.189 147.677 248.925 142.476C234.175 134.981 232.025 126.373 224.1 123.025C223.639 122.876 223.669 122.239 224.186 122.093L225.95 121.665C226.338 121.556 226.487 121.095 226.202 120.826C224.859 119.53 221.261 116.427 215.922 115.071C215.461 114.922 215.408 114.239 215.879 114.176C216.137 114.103 216.525 113.994 216.784 113.921C217.818 113.629 218.09 112.365 217.224 111.772C215.089 110.141 211.156 107.83 205.462 107.692L210.025 106.544C210.413 106.434 210.562 105.973 210.277 105.705C208.768 104.316 204.367 101.09 197.656 101.797C197.185 101.86 196.92 101.167 197.401 100.892L199.241 99.7446C199.592 99.5058 199.493 98.9056 199.068 98.8858C198.053 98.7533 197.002 98.4915 196.578 98.4717C192.841 98.3396 189.213 98.5955 185.566 99.2757C177.237 100.928 168.805 105.681 164.25 113.04C164.018 113.454 164.211 113.889 164.542 114.074C176.112 120.442 187.914 126.396 199.912 131.806C212.666 137.421 225.781 142.585 239.558 145.398C218.648 142.294 198.815 134.349 179.333 126.165C173.702 123.775 168.247 121.266 162.673 118.581C162.258 118.349 161.694 118.578 161.628 119.085C158.908 129.975 165.998 140.259 173.291 148.044C173.981 148.757 175.228 148.475 175.489 147.424C175.668 146.326 177.127 146.054 177.724 146.933C179.157 149.041 181.492 151.873 184.503 153.885C185.368 154.478 186.506 153.808 186.426 152.784L186.383 151.889C186.383 151.889 190.485 156.036 193.987 157.561C194.945 157.989 195.88 157.096 195.671 156.108L195.144 153.744C195.144 153.744 198.208 159.162 204.409 162.089C204.824 162.321 205.314 161.833 205.076 161.482C204.764 160.872 204.333 160.086 204.031 159.264C203.838 158.829 204.329 158.342 204.697 158.657C206.428 159.844 209.579 161.607 213.057 161.812C214.201 161.908 214.778 160.489 214.005 159.73L213.518 159.239C213.149 158.924 213.474 158.344 213.935 158.493C219.977 159.371 244.535 161.795 269.714 149.104C269.899 148.773 269.717 148.126 269.246 148.189Z" fill="url(#paint6_linear_492_1002)"/>
<path d="M122.808 152.448C124.792 155.518 132.841 166.231 148.011 166.557C148.565 166.54 149.009 166.136 148.992 165.582C148.813 161.235 151.108 144.881 153.576 129.385C153.662 128.453 152.76 127.731 152.094 128.338C146.143 133.717 132.165 144.293 123.126 151.102C122.729 151.424 122.533 151.967 122.808 152.448Z" fill="url(#paint7_linear_492_1002)"/>
</g>
<defs>
<linearGradient id="paint0_linear_492_1002" x1="105.253" y1="159.928" x2="151.923" y2="186.054" gradientUnits="userSpaceOnUse">
<stop offset="0.0022147" stop-color="#F4BC00"/>
<stop offset="1" stop-color="#F2A100"/>
</linearGradient>
<linearGradient id="paint1_linear_492_1002" x1="106.936" y1="184.144" x2="130.394" y2="197.276" gradientUnits="userSpaceOnUse">
<stop offset="0.0022147" stop-color="#F4BC00"/>
<stop offset="1" stop-color="#F2A100"/>
</linearGradient>
<linearGradient id="paint2_linear_492_1002" x1="181.836" y1="80.7946" x2="169.599" y2="98.4791" gradientUnits="userSpaceOnUse">
<stop offset="0.0022147" stop-color="#F4BC00"/>
<stop offset="1" stop-color="#F2A100"/>
</linearGradient>
<linearGradient id="paint3_linear_492_1002" x1="111.649" y1="121.662" x2="75.9458" y2="124.078" gradientUnits="userSpaceOnUse">
<stop offset="0.0022147" stop-color="#F4BC00"/>
<stop offset="1" stop-color="#F2A100"/>
</linearGradient>
<linearGradient id="paint4_linear_492_1002" x1="184.398" y1="154.823" x2="192.513" y2="209.025" gradientUnits="userSpaceOnUse">
<stop offset="0.0022147" stop-color="#F4BC00"/>
<stop offset="1" stop-color="#F2A100"/>
</linearGradient>
<linearGradient id="paint5_linear_492_1002" x1="102.011" y1="74.7907" x2="139.594" y2="97.6969" gradientUnits="userSpaceOnUse">
<stop offset="0.0022147" stop-color="#F4BC00"/>
<stop offset="1" stop-color="#F2A100"/>
</linearGradient>
<linearGradient id="paint6_linear_492_1002" x1="178.158" y1="119.378" x2="232.081" y2="148.445" gradientUnits="userSpaceOnUse">
<stop offset="0.0022147" stop-color="#F4BC00"/>
<stop offset="1" stop-color="#F2A100"/>
</linearGradient>
<linearGradient id="paint7_linear_492_1002" x1="130.317" y1="138.13" x2="156.368" y2="152.713" gradientUnits="userSpaceOnUse">
<stop offset="0.0022147" stop-color="#F4BC00"/>
<stop offset="1" stop-color="#F2A100"/>
</linearGradient>
</defs>
</svg>
