<svg width="12" height="12" viewBox="0 0 12 12" fill="none" xmlns="http://www.w3.org/2000/svg">
<g clip-path="url(#clip0_1023_1255)">
<path d="M6.53906 8.53125C6.53906 9.04819 6.95963 9.46875 7.47656 9.46875H8.57812C9.09506 9.46875 9.51562 9.04819 9.51562 8.53125V7.42969C9.51562 6.91275 9.09506 6.49219 8.57812 6.49219H7.47656C6.95963 6.49219 6.53906 6.91275 6.53906 7.42969V8.53125ZM7.47656 7.42969H8.57812L8.57871 8.53123C8.57871 8.53123 8.57855 8.53125 8.57812 8.53125H7.47656V7.42969Z" fill="#555555"/>
<path d="M9.04688 5.39062C9.30576 5.39062 9.51562 5.18076 9.51562 4.92188C9.51562 4.66299 9.30576 4.45312 9.04688 4.45312C8.78799 4.45312 8.57812 4.66299 8.57812 4.92188C8.57812 5.18076 8.78799 5.39062 9.04688 5.39062Z" fill="#555555"/>
<path d="M7.00781 5.39062C7.2667 5.39062 7.47656 5.18076 7.47656 4.92188C7.47656 4.66299 7.2667 4.45312 7.00781 4.45312C6.74893 4.45312 6.53906 4.66299 6.53906 4.92188C6.53906 5.18076 6.74893 5.39062 7.00781 5.39062Z" fill="#555555"/>
<path d="M11.5312 8.25C11.7901 8.25 12 8.04014 12 7.78125V2.8125C12 1.77863 11.1589 0.9375 10.125 0.9375H9.51562V0.46875C9.51562 0.209859 9.30577 0 9.04688 0C8.78798 0 8.57812 0.209859 8.57812 0.46875V0.9375H6.44531V0.46875C6.44531 0.209859 6.23545 0 5.97656 0C5.71767 0 5.50781 0.209859 5.50781 0.46875V0.9375H3.39844V0.46875C3.39844 0.209859 3.18858 0 2.92969 0C2.6708 0 2.46094 0.209859 2.46094 0.46875V0.9375H1.875C0.841125 0.9375 0 1.77863 0 2.8125V10.125C0 11.1589 0.841125 12 1.875 12H10.125C11.1589 12 12 11.1589 12 10.125C12 9.86611 11.7901 9.65625 11.5312 9.65625C11.2724 9.65625 11.0625 9.86611 11.0625 10.125C11.0625 10.6419 10.6419 11.0625 10.125 11.0625H1.875C1.35806 11.0625 0.9375 10.6419 0.9375 10.125V2.8125C0.9375 2.29556 1.35806 1.875 1.875 1.875H2.46094V2.34375C2.46094 2.60264 2.6708 2.8125 2.92969 2.8125C3.18858 2.8125 3.39844 2.60264 3.39844 2.34375V1.875H5.50781V2.34375C5.50781 2.60264 5.71767 2.8125 5.97656 2.8125C6.23545 2.8125 6.44531 2.60264 6.44531 2.34375V1.875H8.57812V2.34375C8.57812 2.60264 8.78798 2.8125 9.04688 2.8125C9.30577 2.8125 9.51562 2.60264 9.51562 2.34375V1.875H10.125C10.6419 1.875 11.0625 2.29556 11.0625 2.8125V7.78125C11.0625 8.04014 11.2724 8.25 11.5312 8.25Z" fill="#555555"/>
<path d="M2.92969 9.46875C3.18857 9.46875 3.39844 9.25888 3.39844 9C3.39844 8.74112 3.18857 8.53125 2.92969 8.53125C2.6708 8.53125 2.46094 8.74112 2.46094 9C2.46094 9.25888 2.6708 9.46875 2.92969 9.46875Z" fill="#555555"/>
<path d="M2.92969 5.39062C3.18857 5.39062 3.39844 5.18076 3.39844 4.92188C3.39844 4.66299 3.18857 4.45312 2.92969 4.45312C2.6708 4.45312 2.46094 4.66299 2.46094 4.92188C2.46094 5.18076 2.6708 5.39062 2.92969 5.39062Z" fill="#555555"/>
<path d="M2.92969 7.42969C3.18857 7.42969 3.39844 7.21982 3.39844 6.96094C3.39844 6.70205 3.18857 6.49219 2.92969 6.49219C2.6708 6.49219 2.46094 6.70205 2.46094 6.96094C2.46094 7.21982 2.6708 7.42969 2.92969 7.42969Z" fill="#555555"/>
<path d="M4.96875 7.42969C5.22763 7.42969 5.4375 7.21982 5.4375 6.96094C5.4375 6.70205 5.22763 6.49219 4.96875 6.49219C4.70987 6.49219 4.5 6.70205 4.5 6.96094C4.5 7.21982 4.70987 7.42969 4.96875 7.42969Z" fill="#555555"/>
<path d="M4.96875 5.39062C5.22763 5.39062 5.4375 5.18076 5.4375 4.92188C5.4375 4.66299 5.22763 4.45312 4.96875 4.45312C4.70987 4.45312 4.5 4.66299 4.5 4.92188C4.5 5.18076 4.70987 5.39062 4.96875 5.39062Z" fill="#555555"/>
<path d="M4.96875 9.46875C5.22763 9.46875 5.4375 9.25888 5.4375 9C5.4375 8.74112 5.22763 8.53125 4.96875 8.53125C4.70987 8.53125 4.5 8.74112 4.5 9C4.5 9.25888 4.70987 9.46875 4.96875 9.46875Z" fill="#555555"/>
</g>
<defs>
<clipPath id="clip0_1023_1255">
<rect width="12" height="12" fill="white"/>
</clipPath>
</defs>
</svg>
