<svg width="16" height="14" viewBox="0 0 16 14" fill="none" xmlns="http://www.w3.org/2000/svg">
<path fill-rule="evenodd" clip-rule="evenodd" d="M3.3544 0H0V1.4H2.2526L4.1916 10.2746H4.2V10.5H13.3V10.3264L14.8351 3.5637L15.0717 2.8H3.9585L3.5595 0.9723L3.3544 0ZM13.2909 4.2H4.2644L5.3347 9.1H12.1786L13.2909 4.2Z" fill="black"/>
<path d="M6.30234 13.9997C6.67365 13.9997 7.02974 13.8522 7.29229 13.5897C7.55484 13.3271 7.70234 12.971 7.70234 12.5997C7.70234 12.2284 7.55484 11.8723 7.29229 11.6098C7.02974 11.3472 6.67365 11.1997 6.30234 11.1997C5.93104 11.1997 5.57495 11.3472 5.31239 11.6098C5.04984 11.8723 4.90234 12.2284 4.90234 12.5997C4.90234 12.971 5.04984 13.3271 5.31239 13.5897C5.57495 13.8522 5.93104 13.9997 6.30234 13.9997ZM12.6023 12.5997C12.6023 12.971 12.4548 13.3271 12.1923 13.5897C11.9297 13.8522 11.5736 13.9997 11.2023 13.9997C10.831 13.9997 10.4749 13.8522 10.2124 13.5897C9.94984 13.3271 9.80234 12.971 9.80234 12.5997C9.80234 12.2284 9.94984 11.8723 10.2124 11.6098C10.4749 11.3472 10.831 11.1997 11.2023 11.1997C11.5736 11.1997 11.9297 11.3472 12.1923 11.6098C12.4548 11.8723 12.6023 12.2284 12.6023 12.5997Z" fill="black"/>
</svg>
