<svg width="12" height="12" viewBox="0 0 12 12" fill="none" xmlns="http://www.w3.org/2000/svg">
<path d="M3.86142 10.892C4.74995 11.6107 5.85863 12.0019 7.00142 12C7.75542 12 8.47142 11.833 9.11442 11.533L11.4034 11.99C11.4841 12.0061 11.5674 12.002 11.6461 11.9781C11.7248 11.9542 11.7964 11.9113 11.8546 11.8532C11.9127 11.795 11.9557 11.7234 11.9795 11.6447C12.0034 11.566 12.0075 11.4827 11.9914 11.402L11.5344 9.114C11.8344 8.471 12.0014 7.754 12.0014 7C12.0031 5.85755 11.6119 4.74927 10.8934 3.861C11.0357 4.60134 11.0381 5.36178 10.9004 6.103C11.1101 7.01931 10.9915 7.98014 10.5654 8.818C10.5141 8.91848 10.4982 9.03337 10.5204 9.144L10.8644 10.863L9.14442 10.519C9.03411 10.497 8.91961 10.5129 8.81942 10.564C7.9814 10.9908 7.02002 11.1093 6.10342 10.899C5.36222 11.0368 4.60175 11.0344 3.86142 10.892ZM5.00142 2.01287e-07C4.16059 -0.000238356 3.33328 0.211573 2.59601 0.615843C1.85875 1.02011 1.23534 1.60378 0.783452 2.31286C0.331567 3.02194 0.0657997 3.83353 0.0107346 4.67255C-0.0443304 5.51158 0.113085 6.35094 0.46842 7.113L0.0114196 9.402C-0.00463718 9.48266 -0.0005512 9.56603 0.0233153 9.64473C0.0471817 9.72343 0.0900918 9.79502 0.148244 9.85318C0.206395 9.91133 0.277993 9.95424 0.356692 9.9781C0.435392 10.002 0.518763 10.0061 0.59942 9.99L2.88742 9.533C3.56574 9.84874 4.30628 10.0082 5.05444 9.99967C5.80259 9.99113 6.5393 9.8148 7.21024 9.48366C7.88118 9.15252 8.46925 8.67503 8.9311 8.08639C9.39295 7.49774 9.7168 6.81294 9.87879 6.08248C10.0408 5.35202 10.0368 4.59452 9.86704 3.86582C9.69732 3.13711 9.36622 2.45579 8.89815 1.87207C8.43009 1.28836 7.83698 0.817128 7.16257 0.493125C6.48816 0.169122 5.74963 0.000605995 5.00142 2.01287e-07Z" fill="black"/>
</svg>
