<svg width="36" height="36" viewBox="0 0 36 36" fill="none" xmlns="http://www.w3.org/2000/svg">
<path d="M34.9361 9.2506L26.5688 0.883393C25.391 -0.2945 23.4744 -0.294429 22.2962 0.883393L17.5911 5.5885C17.3167 5.86299 17.3167 6.30808 17.5911 6.58265C17.8657 6.85714 18.3107 6.85714 18.5853 6.58265L23.2904 1.87754C23.9203 1.24765 24.9452 1.24779 25.5748 1.87754L33.942 10.2448C34.5718 10.8745 34.5718 11.8993 33.942 12.5291L20.1565 26.3145C19.8514 26.6197 19.4457 26.7877 19.0143 26.7877C18.5828 26.7877 18.1772 26.6196 17.8721 26.3145L17.2966 25.7391L20.5091 22.5266C21.6013 21.4343 21.6013 19.6571 20.5091 18.5648C19.4169 17.4725 17.6396 17.4724 16.5474 18.5648L13.699 21.4131L13.2378 21.4197C13.1537 21.4209 13.0701 21.4246 12.9866 21.4292L9.5049 17.9474C8.87507 17.3176 8.87507 16.2929 9.5049 15.663L14.1119 11.0561C14.3864 10.7816 14.3864 10.3365 14.1119 10.0619C13.8375 9.7875 13.3923 9.7875 13.1178 10.0619L8.51082 14.6689C7.33286 15.8469 7.33286 17.7635 8.51082 18.9415L11.3255 21.7561C10.4704 22.0533 9.68632 22.5406 9.0293 23.1976C7.89906 24.3277 7.26755 25.8303 7.25096 27.4286L7.24576 27.928L0.385557 34.7884C0.111064 35.0629 0.111064 35.508 0.385557 35.7825C0.522838 35.9198 0.702717 35.9884 0.882596 35.9884C1.06247 35.9884 1.24242 35.9198 1.37963 35.7825L8.44271 28.7195C8.57275 28.5894 8.64662 28.4136 8.64852 28.2297L8.65668 27.4433C8.6694 26.215 9.15477 25.0603 10.0233 24.1918C10.8873 23.3278 12.0359 22.8426 13.2576 22.8254L14.0042 22.8149C14.1872 22.8123 14.3619 22.7385 14.4914 22.6091L17.5415 19.5589C18.0857 19.0149 18.9709 19.0149 19.5151 19.5589C20.0592 20.103 20.0592 20.9884 19.5151 21.5325L14.94 26.1076C14.6654 26.3821 14.6654 26.8272 14.94 27.1018C15.2144 27.3762 15.6596 27.3762 15.9341 27.1018L16.3026 26.7332L16.8781 27.3087C17.4671 27.8977 18.2406 28.1922 19.0144 28.1921C19.788 28.1921 20.5619 27.8976 21.1508 27.3087L24.4163 24.0431L22.5977 28.9682C22.0629 30.4162 20.8568 31.5314 19.3714 31.9512L13.749 33.5402C13.6333 33.5729 13.528 33.6347 13.443 33.7196L12.3626 34.8001C12.0881 35.0746 12.0881 35.5196 12.3626 35.7942C12.4999 35.9314 12.6797 36.0001 12.8596 36.0001C13.0395 36.0001 13.2194 35.9314 13.3566 35.7942L14.3076 34.8433L19.7538 33.3042C21.6704 32.7624 23.2265 31.3236 23.9165 29.4552L26.7924 21.6672L34.9363 13.5233C36.1139 12.3452 36.1139 10.4286 34.9361 9.2506Z" fill="black"/>
<path d="M22.9695 19.056C23.1068 19.1932 23.2867 19.2619 23.4666 19.2619C23.6465 19.2619 23.8263 19.1932 23.9636 19.056L31.2591 11.7605C31.5336 11.486 31.5336 11.0409 31.2591 10.7664C30.9845 10.4919 30.5396 10.4919 30.2649 10.7664L22.9695 18.0618C22.695 18.3363 22.695 18.7814 22.9695 19.056Z" fill="#F4BC00"/>
<path d="M15.2799 13.3406L12.9305 15.69C12.656 15.9645 12.656 16.4096 12.9305 16.6841C13.0678 16.8213 13.2476 16.89 13.4275 16.89C13.6074 16.89 13.7873 16.8213 13.9246 16.6841L16.2739 14.3347C16.5484 14.0602 16.5484 13.6151 16.2739 13.3406C15.9995 13.0662 15.5544 13.0662 15.2799 13.3406Z" fill="#F4BC00"/>
<path d="M15.8514 9.02499C16.0362 9.02499 16.2176 8.94978 16.3483 8.81896C16.4791 8.68829 16.5543 8.50757 16.5543 8.32207C16.5543 8.1372 16.4791 7.95584 16.3483 7.8251C16.2176 7.69435 16.0362 7.61914 15.8514 7.61914C15.6665 7.61914 15.4851 7.69428 15.3544 7.8251C15.2237 7.95591 15.1484 8.1372 15.1484 8.32207C15.1484 8.50764 15.2237 8.68829 15.3544 8.81896C15.4851 8.94978 15.6666 9.02499 15.8514 9.02499Z" fill="#F4BC00"/>
<path d="M24.5569 10.0792C23.1804 10.0792 22.0605 8.95927 22.0605 7.5828C22.0605 6.20633 23.1804 5.08643 24.5569 5.08643C25.9334 5.08643 27.0532 6.20633 27.0532 7.5828C27.0532 8.95927 25.9334 10.0792 24.5569 10.0792ZM24.5569 6.49228C23.9556 6.49228 23.4664 6.98144 23.4664 7.5828C23.4664 8.18415 23.9556 8.67332 24.5569 8.67332C25.1582 8.67332 25.6474 8.18415 25.6474 7.5828C25.6474 6.98144 25.1582 6.49228 24.5569 6.49228Z" fill="#F4BC00"/>
</svg>
