<svg width="36" height="40" viewBox="0 0 36 40" fill="none" xmlns="http://www.w3.org/2000/svg">
<path d="M18.085 21.8303C18.011 21.8143 17.9351 21.8114 17.8601 21.8226C17.1088 21.7351 16.5421 21.0995 16.5408 20.3435C16.5408 19.9811 16.247 19.6873 15.8847 19.6873C15.5224 19.6873 15.2286 19.9811 15.2286 20.3435C15.2305 21.606 16.075 22.7119 17.2924 23.0461V23.7022C17.2924 24.0645 17.5862 24.3583 17.9485 24.3583C18.3109 24.3583 18.6046 24.0645 18.6046 23.7022V23.0858C20.0098 22.7917 20.9648 21.483 20.8171 20.0551C20.6691 18.6272 19.4661 17.5422 18.0305 17.5418C17.2078 17.5418 16.5408 16.8748 16.5408 16.0521C16.5408 15.2294 17.2078 14.5624 18.0305 14.5624C18.8532 14.5624 19.5202 15.2294 19.5202 16.0521C19.5202 16.4145 19.814 16.7082 20.1764 16.7082C20.5387 16.7082 20.8325 16.4145 20.8325 16.0521C20.8306 14.7264 19.9018 13.583 18.6046 13.3094V12.7123C18.6046 12.3499 18.3109 12.0562 17.9485 12.0562C17.5862 12.0562 17.2924 12.3499 17.2924 12.7123V13.3495C15.9385 13.7192 15.0671 15.0337 15.2536 16.4247C15.44 17.8157 16.627 18.8541 18.0305 18.8537C18.8423 18.8537 19.5045 19.5038 19.5193 20.3153C19.5343 21.1268 18.8962 21.8008 18.085 21.8303Z" fill="black"/>
<path d="M8.51562 18.2482C8.51562 23.5029 12.7753 27.7625 18.0299 27.7625C23.2846 27.7625 27.5443 23.5029 27.5443 18.2482C27.5443 12.9935 23.2846 8.73389 18.0299 8.73389C12.7778 8.73965 8.52171 12.9961 8.51562 18.2482ZM18.0299 10.0461C22.56 10.0461 26.232 13.7182 26.232 18.2482C26.232 22.7782 22.56 26.4503 18.0299 26.4503C13.4999 26.4503 9.82786 22.7782 9.82786 18.2482C9.83298 13.7204 13.5022 10.0512 18.0299 10.0461Z" fill="#F4BC00"/>
<path d="M30.7791 29.38L25.6394 31.8084C24.9298 30.4885 23.5685 29.6485 22.0705 29.6062L17.3258 29.4758C16.5745 29.4543 15.8374 29.264 15.1694 28.919L14.6866 28.6688C12.2146 27.3803 9.26821 27.3835 6.7988 28.6771L6.82892 27.5834C6.83885 27.221 6.5534 26.9193 6.19106 26.9093L0.98827 26.7661C0.625932 26.7562 0.324465 27.0416 0.314533 27.404L0.000251485 38.8213C-0.00967989 39.1836 0.275769 39.4854 0.638106 39.4953L5.8409 39.6385H5.85884C6.21445 39.6385 6.50534 39.3557 6.51496 39.0004L6.53001 38.4541L7.88165 37.7304C8.41218 37.445 9.03242 37.3771 9.61196 37.5411L17.6833 39.8064C17.6974 39.8106 17.7115 39.8138 17.726 39.817C18.3093 39.9391 18.9039 40.0002 19.4998 39.9999C20.7621 40.0006 22.0096 39.7286 23.1568 39.2019C23.185 39.1891 23.2123 39.174 23.2382 39.157L34.941 31.5874C35.2325 31.3987 35.3267 31.0158 35.1559 30.7134C34.2871 29.1718 32.3601 28.5845 30.7791 29.38ZM1.3301 38.2017L1.60818 28.096L5.49907 28.203L5.22099 38.309L1.3301 38.2017ZM22.5658 38.03C21.1404 38.6733 19.5485 38.8508 18.0165 38.5378L9.96693 36.2782C9.06093 36.0222 8.09117 36.1283 7.26238 36.5739L6.57166 36.9439L6.75651 30.2248C8.94528 28.7691 11.7523 28.6195 14.0834 29.834L14.5661 30.0842C15.41 30.5199 16.3407 30.7602 17.2899 30.7877L22.0349 30.9181C23.3676 30.9565 24.4995 31.9055 24.7699 33.2113L17.7022 33.0162C17.3399 33.0063 17.0384 33.292 17.0282 33.6541C17.0183 34.0164 17.304 34.3182 17.666 34.3281L25.4657 34.5428H25.484C25.8393 34.5424 26.1299 34.2596 26.1395 33.9046C26.1475 33.6195 26.1263 33.334 26.076 33.0534L31.3477 30.5625C31.3528 30.5603 31.358 30.5577 31.3631 30.5551C32.1108 30.1768 33.0149 30.3033 33.63 30.8726L22.5658 38.03Z" fill="black"/>
<path d="M18.6872 6.88922V0.656116C18.6872 0.293778 18.3935 0 18.0311 0C17.6688 0 17.375 0.293778 17.375 0.656116V6.88922C17.375 7.25155 17.6688 7.54533 18.0311 7.54533C18.3935 7.54533 18.6872 7.25155 18.6872 6.88922Z" fill="#F4BC00"/>
<path d="M23.6091 6.88915V3.93663C23.6091 3.5743 23.3153 3.28052 22.953 3.28052C22.5907 3.28052 22.2969 3.5743 22.2969 3.93663V6.88915C22.2969 7.25149 22.5907 7.54527 22.953 7.54527C23.3153 7.54527 23.6091 7.25149 23.6091 6.88915Z" fill="#F4BC00"/>
<path d="M13.7654 6.88915V3.93663C13.7654 3.5743 13.4716 3.28052 13.1092 3.28052C12.7469 3.28052 12.4531 3.5743 12.4531 3.93663V6.88915C12.4531 7.25149 12.7469 7.54527 13.1092 7.54527C13.4716 7.54527 13.7654 7.25149 13.7654 6.88915Z" fill="#F4BC00"/>
</svg>
