<svg width="40" height="40" viewBox="0 0 40 40" fill="none" xmlns="http://www.w3.org/2000/svg">
<path d="M39.9372 11.2423C39.8751 10.7336 39.6184 10.2797 39.2143 9.96429L26.9693 0.405116C26.137 -0.244601 24.929 -0.0970161 24.2767 0.734427L12.4144 15.8577L4.54334 21.1274C4.54319 21.1274 4.54303 21.1276 4.5428 21.1277L2.37012 22.5823L0.85279 23.5983C0.82607 23.6161 0.799897 23.6346 0.774349 23.6536C0.390504 23.9387 0.129946 24.3502 0.0368165 24.822C-0.0622504 25.3241 0.0401761 25.8345 0.325189 26.2592L0.326204 26.2607C0.326204 26.2608 0.326283 26.2609 0.326361 26.261L2.16402 28.9993L2.80061 29.9479L6.50835 35.4729C6.50835 35.4729 6.50843 35.473 6.50843 35.4731L7.12354 36.3897L8.97714 39.1518C9.34661 39.7023 9.95445 40 10.5731 40C10.9401 40 11.3111 39.8951 11.6383 39.6761L11.6395 39.6753C11.6397 39.6751 11.6399 39.6751 11.6401 39.675L15.2428 37.2629L16.8343 38.5052C17.184 38.7781 17.5998 38.9104 18.0129 38.9104C18.5833 38.9104 19.1486 38.6581 19.5269 38.1759L25.773 30.2129L34.879 24.1164C34.8909 24.1095 34.9033 24.1038 34.9149 24.0961L38.605 21.6254C39.0318 21.3397 39.3216 20.9051 39.4209 20.4018C39.52 19.8997 39.4176 19.3892 39.1325 18.9645L39.1305 18.9616C39.1302 18.9612 39.13 18.9607 39.1297 18.9603L37.0409 15.8477L39.5424 12.6585C39.8591 12.2544 39.9994 11.7516 39.9372 11.2423ZM5.16345 25.8311C4.93336 26.9968 4.32498 28.0259 3.42947 28.7818L1.56813 26.0082L1.29937 25.6076C1.18851 25.4424 1.14858 25.2437 1.18718 25.0483C1.22101 24.8769 1.31156 24.726 1.44493 24.6164C1.46399 24.6008 1.48399 24.586 1.50477 24.572L2.55646 23.868L4.68155 22.4452C5.22205 23.4839 5.39338 24.666 5.16345 25.8311ZM10.9869 38.7017C10.6438 38.9305 10.179 38.8395 9.95015 38.4984L9.92452 38.4602L7.82669 35.3342C9.97062 34.2226 12.6172 34.7373 14.1733 36.5684L10.9869 38.7017ZM18.6047 37.4525C18.3504 37.7766 17.8796 37.8345 17.5553 37.5813L16.268 36.5763L22.6361 32.3129L18.6047 37.4525ZM34.2941 19.3924C34.5242 18.2267 35.1326 17.1976 36.0281 16.4417L38.1573 19.6145C38.2675 19.7796 38.3071 19.9777 38.2686 20.1726C38.2299 20.3686 38.1172 20.5377 37.951 20.649L34.7747 22.7756C34.2353 21.7376 34.0644 20.5566 34.2941 19.3924ZM38.6201 11.9351L36.3539 14.8242L30.4788 6.06943C29.89 5.19205 28.6961 4.95688 27.8175 5.54511L22.6259 9.02089C21.9963 9.44247 22.6482 10.416 23.2779 9.99476L24.3036 9.30801C25.5392 10.828 27.3735 11.6436 29.24 11.6436C30.2783 11.6436 31.3262 11.3902 32.2868 10.8667L35.3722 15.4644C34.2189 16.3982 33.4351 17.6924 33.1443 19.1654C32.8538 20.6367 33.0862 22.1298 33.7964 23.4303L25.0382 29.294C25.0373 29.2946 25.0364 29.2951 25.0355 29.2958L15.1511 35.9135C13.2279 33.5502 9.85717 32.8927 7.17073 34.3569L4.08512 29.759C5.23845 28.8252 6.02224 27.531 6.31303 26.058C6.60367 24.5856 6.37085 23.0915 5.65933 21.7904L20.5558 11.8171C21.1853 11.3955 20.5333 10.4218 19.9037 10.8432L15.5509 13.7574L25.1989 1.45774C25.4531 1.13366 25.9237 1.07569 26.2482 1.32898L38.4932 10.8881C38.6502 11.0106 38.7498 11.1868 38.7739 11.3844C38.7981 11.5823 38.7435 11.7778 38.6201 11.9351ZM28.4696 6.52265C28.813 6.29288 29.2784 6.38382 29.5075 6.72516L30.5809 8.32461L31.631 9.88944C29.487 11.001 26.8404 10.4863 25.2844 8.65525L28.4696 6.52265Z" fill="black"/>
<path d="M15.4415 16.2223C13.7331 17.3662 12.573 19.1063 12.1751 21.1221C11.7774 23.1371 12.1889 25.1863 13.3338 26.8922C14.4826 28.6043 16.2307 29.7643 18.2559 30.1587C18.9764 30.2989 19.211 29.1508 18.4798 29.0083C16.7628 28.6739 15.2809 27.6905 14.3068 26.2392C13.3365 24.7933 12.9877 23.0566 13.3248 21.3489C13.6621 19.6405 14.6453 18.1656 16.0936 17.196C19.0828 15.1947 23.145 15.9959 25.1488 18.9819C26.1192 20.4278 26.4679 22.1645 26.1308 23.8722C25.7935 25.5806 24.8103 27.0554 23.3621 28.0249C22.7921 28.4065 22.1721 28.6944 21.519 28.8806C20.7904 29.0883 21.1118 30.2152 21.8404 30.0076C22.611 29.7878 23.3424 29.4484 24.0141 28.9987C25.7225 27.8548 26.8826 26.1148 27.2805 24.0991C27.6782 22.084 27.2667 20.0348 26.1218 18.3288C23.7583 14.807 18.9673 13.8619 15.4415 16.2223Z" fill="#F4BC00"/>
<path d="M28.6509 17.2222C28.763 17.2222 28.8763 17.1901 28.9764 17.1231L31.7349 15.2763C32.0037 15.0962 32.0758 14.7323 31.8958 14.4634C31.7158 14.1945 31.3518 14.1225 31.0829 14.3024L28.3244 16.1492C28.0556 16.3293 27.9836 16.6932 28.1635 16.9622C28.2765 17.1311 28.4619 17.2222 28.6509 17.2222Z" fill="#F4BC00"/>
<path d="M10.4793 28.0982L7.72092 29.945C7.45208 30.125 7.38005 30.4889 7.55998 30.7578C7.67303 30.9266 7.85843 31.0179 8.04742 31.0179C8.15953 31.0179 8.27282 30.9858 8.3729 30.9187L11.1313 29.0719C11.4001 28.8919 11.4722 28.528 11.2923 28.2591C11.1121 27.9902 10.7482 27.9181 10.4793 28.0982Z" fill="#F4BC00"/>
<path d="M21.8096 26.8484C22.2513 27.5067 23.1919 26.8051 22.7827 26.1954L22.4669 25.725C23.3118 24.8543 23.3393 23.6496 22.9549 22.7975C22.3203 21.3911 21.0152 21.275 19.6903 21.5873L18.3609 19.6064C18.6948 19.4979 18.9551 19.5262 18.9808 19.5293C19.7267 19.6369 19.8991 18.4855 19.1537 18.3703C19.1132 18.3641 18.4488 18.2698 17.6929 18.611L17.4351 18.2269C17.0128 17.5979 16.0397 18.2508 16.462 18.8799L16.7432 19.2989C16.1343 19.952 15.9581 20.9114 16.3114 21.7373C16.829 22.9474 17.9889 23.0912 19.1551 22.893L20.8657 25.4421C20.5267 25.6263 20.254 25.6836 19.7421 25.6898C19.0017 25.6988 19.0326 26.873 19.7563 26.8616C20.5547 26.8519 21.0159 26.7096 21.5207 26.418L21.8096 26.8484ZM18.0038 21.8087C17.761 21.7908 17.5196 21.5819 17.389 21.2764C17.2769 21.0143 17.2378 20.6402 17.4277 20.3188L18.4249 21.8047C18.2746 21.8156 18.1327 21.8181 18.0038 21.8087ZM20.4266 22.6125C21.391 22.3653 21.7879 23.0605 21.8867 23.2795C22.0721 23.6903 22.0859 24.2478 21.7836 24.7067L20.3853 22.6229C20.3992 22.6193 20.4125 22.6161 20.4266 22.6125Z" fill="#F4BC00"/>
</svg>
