<svg width="35" height="35" viewBox="0 0 35 35" fill="none" xmlns="http://www.w3.org/2000/svg">
<path d="M32.1289 3.55469H31.3086V2.18403C31.3086 0.979729 30.3289 0 29.1246 0C27.9205 0 26.9408 0.979729 26.9408 2.18403V3.55469H19.6926V2.18403C19.6926 0.979729 18.7128 0 17.5088 0C16.3045 0 15.3248 0.979729 15.3248 2.18403V3.55469H8.0592V2.18403C8.0592 0.979729 7.07947 0 5.87543 0C4.67113 0 3.69141 0.979729 3.69141 2.18403V3.55469H2.87109C1.28788 3.55469 0 4.84257 0 6.42578V32.1289C0 33.7121 1.28788 35 2.87109 35H32.1289C33.7121 35 35 33.7121 35 32.1289V6.42578C35 4.84257 33.7121 3.55469 32.1289 3.55469ZM28.308 2.18403C28.308 1.73355 28.6744 1.36719 29.1246 1.36719C29.575 1.36719 29.9414 1.73355 29.9414 2.18403V6.0191C29.9414 6.46957 29.575 6.83594 29.1246 6.83594C28.6744 6.83594 28.308 6.46957 28.308 6.0191V2.18403ZM16.692 2.18403C16.692 1.73355 17.0583 1.36719 17.5088 1.36719C17.959 1.36719 18.3254 1.73355 18.3254 2.18403V6.0191C18.3254 6.46957 17.959 6.83594 17.5088 6.83594C17.0583 6.83594 16.692 6.46957 16.692 6.0191V2.18403ZM5.05859 2.18403C5.05859 1.73355 5.42496 1.36719 5.87543 1.36719C6.32565 1.36719 6.69201 1.73355 6.69201 2.18403V6.0191C6.69201 6.46957 6.32565 6.83594 5.87543 6.83594C5.42496 6.83594 5.05859 6.46957 5.05859 6.0191V2.18403ZM2.87109 4.92188H3.69141V6.0191C3.69141 7.2234 4.67113 8.20312 5.87543 8.20312C7.07947 8.20312 8.0592 7.2234 8.0592 6.0191V4.92188H15.3248V6.0191C15.3248 7.2234 16.3045 8.20312 17.5088 8.20312C18.7128 8.20312 19.6926 7.2234 19.6926 6.0191V4.92188H26.9408V6.0191C26.9408 7.2234 27.9205 8.20312 29.1246 8.20312C30.3289 8.20312 31.3086 7.2234 31.3086 6.0191V4.92188H32.1289C32.9583 4.92188 33.6328 5.59639 33.6328 6.42578V11.7578H20.5762C20.1986 11.7578 19.8926 12.0638 19.8926 12.4414C19.8926 12.819 20.1986 13.125 20.5762 13.125H33.6328V29.3945C33.6328 30.2239 32.9583 30.8984 32.1289 30.8984H2.87109C2.0417 30.8984 1.36719 30.2239 1.36719 29.3945V13.125H14.4238C14.8014 13.125 15.1074 12.819 15.1074 12.4414C15.1074 12.0638 14.8014 11.7578 14.4238 11.7578H1.36719V6.42578C1.36719 5.59639 2.0417 4.92188 2.87109 4.92188ZM32.1289 33.6328H2.87109C2.0417 33.6328 1.36719 32.9583 1.36719 32.1289V31.8389C1.80485 32.1091 2.31995 32.2656 2.87109 32.2656H32.1289C32.6801 32.2656 33.1952 32.1091 33.6328 31.8389V32.1289C33.6328 32.9583 32.9583 33.6328 32.1289 33.6328Z" fill="black"/>
<path d="M17.5 13.125C17.6797 13.125 17.8562 13.0518 17.9833 12.9247C18.1104 12.7976 18.1836 12.6211 18.1836 12.4414C18.1836 12.2617 18.1104 12.0852 17.9833 11.9581C17.8562 11.831 17.6797 11.7578 17.5 11.7578C17.3203 11.7578 17.1438 11.831 17.0167 11.9581C16.8896 12.0852 16.8164 12.2617 16.8164 12.4414C16.8164 12.6211 16.8896 12.7976 17.0167 12.9247C17.1438 13.0518 17.3203 13.125 17.5 13.125Z" fill="#F4BC00"/>
<path d="M12.3018 19.0778C11.7063 19.1643 11.2208 19.5737 11.035 20.1459C10.8491 20.7182 11.0011 21.3345 11.4321 21.7545L13.329 23.6034L12.8812 26.2142C12.7795 26.8072 13.0185 27.3952 13.5053 27.749C13.9921 28.1026 14.6255 28.1485 15.1579 27.8684L17.5027 26.6358L19.8472 27.8684C20.079 27.9902 20.3295 28.0505 20.5789 28.0505C20.903 28.0505 21.2248 27.9488 21.4999 27.749C21.9866 27.3952 22.2259 26.8072 22.1242 26.2142L21.6764 23.6034L23.5733 21.7545C24.004 21.3345 24.1563 20.7182 23.9704 20.1459C23.7843 19.5737 23.2991 19.1643 22.7036 19.0778L20.0822 18.697L18.9099 16.3215C18.6434 15.7821 18.1043 15.447 17.5027 15.447C16.9011 15.447 16.3619 15.7821 16.0957 16.3215L14.9232 18.697L12.3018 19.0778ZM15.99 19.6244L17.3214 16.9266C17.3673 16.8337 17.4453 16.8142 17.5024 16.8142C17.5598 16.8142 17.6378 16.8337 17.6837 16.9266L19.0151 19.6244C19.1147 19.826 19.307 19.966 19.5297 19.9983L22.5068 20.4308C22.6094 20.4458 22.6521 20.5139 22.67 20.5684C22.6876 20.6228 22.6929 20.7029 22.6187 20.7753L20.4646 22.8752C20.3033 23.0325 20.2299 23.2587 20.2678 23.4803L20.7765 26.4454C20.7938 26.5477 20.7423 26.6094 20.6961 26.643C20.6496 26.6767 20.5751 26.7068 20.4833 26.6585L17.8205 25.2585C17.7209 25.2061 17.6116 25.18 17.5024 25.18C17.3932 25.18 17.284 25.2061 17.1844 25.2585L14.5216 26.6585C14.4297 26.7068 14.3552 26.6767 14.3088 26.643C14.2626 26.6094 14.211 26.5477 14.2284 26.4454L14.7371 23.4803C14.775 23.2587 14.7016 23.0325 14.5405 22.8752L12.3862 20.7753C12.3119 20.7029 12.3173 20.6228 12.3352 20.5684C12.3528 20.5139 12.3955 20.4458 12.498 20.4308L15.4751 19.9983C15.6978 19.966 15.8904 19.826 15.99 19.6244Z" fill="#F4BC00"/>
</svg>
