<svg width="33" height="33" viewBox="0 0 33 33" fill="none" xmlns="http://www.w3.org/2000/svg">
<circle cx="16.5" cy="16.5" r="16" fill="white" stroke="#E8E8E8"/>
<path d="M11.46 17.92C11.0467 17.92 10.7 17.78 10.42 17.5C10.14 17.22 10 16.8733 10 16.46C10 16.0467 10.14 15.7 10.42 15.42C10.7 15.14 11.0467 15 11.46 15C11.86 15 12.2 15.14 12.48 15.42C12.76 15.7 12.9 16.0467 12.9 16.46C12.9 16.8733 12.76 17.22 12.48 17.5C12.2 17.78 11.86 17.92 11.46 17.92Z" fill="black"/>
<path d="M16.2842 17.92C15.8709 17.92 15.5242 17.78 15.2442 17.5C14.9642 17.22 14.8242 16.8733 14.8242 16.46C14.8242 16.0467 14.9642 15.7 15.2442 15.42C15.5242 15.14 15.8709 15 16.2842 15C16.6842 15 17.0242 15.14 17.3042 15.42C17.5842 15.7 17.7242 16.0467 17.7242 16.46C17.7242 16.8733 17.5842 17.22 17.3042 17.5C17.0242 17.78 16.6842 17.92 16.2842 17.92Z" fill="black"/>
<path d="M21.1084 17.92C20.6951 17.92 20.3484 17.78 20.0684 17.5C19.7884 17.22 19.6484 16.8733 19.6484 16.46C19.6484 16.0467 19.7884 15.7 20.0684 15.42C20.3484 15.14 20.6951 15 21.1084 15C21.5084 15 21.8484 15.14 22.1284 15.42C22.4084 15.7 22.5484 16.0467 22.5484 16.46C22.5484 16.8733 22.4084 17.22 22.1284 17.5C21.8484 17.78 21.5084 17.92 21.1084 17.92Z" fill="black"/>
</svg>
