<svg width="161" height="90" viewBox="0 0 161 90" fill="none" xmlns="http://www.w3.org/2000/svg">
<path d="M93.6667 20.0957H66.6875V44.3078L66.7567 44.2733C66.7567 44.2733 66.5146 47.0058 68.1056 50.7068C69.3854 53.128 71.5645 56.5523 74.9542 59.4231C76.0611 60.3224 77.2717 61.1872 78.6898 62.0519L79.8658 65.995C80.0388 66.6176 80.9035 66.583 81.0764 65.995L82.1833 62.1902C82.1833 62.1902 85.9534 59.8036 89.1356 55.9988C90.3462 54.5115 91.5222 52.7129 92.4907 50.6376C93.39 48.4931 93.8051 46.141 93.4246 43.6507C93.2517 42.4401 93.3554 41.6791 93.7013 41.264V20.0957H93.6667Z" fill="black"/>
<path d="M72.2558 48.7007C73.4665 49.185 81.8369 52.298 89.5156 48.7353C89.654 48.6661 89.7578 48.5624 89.7924 48.424L90.6225 45.8644C90.7263 45.484 90.415 45.1381 90.0345 45.2073C87.4403 45.899 79.6233 47.5247 71.8408 45.1727C71.4949 45.0689 71.1836 45.311 71.1836 45.6569C71.2182 46.3487 71.3565 47.4555 72.0137 48.4932C72.0483 48.597 72.1521 48.6661 72.2558 48.7007Z" fill="#ECCB00"/>
<path d="M72.2558 48.7007C73.4665 49.185 81.8369 52.298 89.5156 48.7353C89.654 48.6661 89.7578 48.5624 89.7924 48.424L90.6225 45.8644C90.7263 45.484 90.415 45.1381 90.0345 45.2073C87.4403 45.899 79.6233 47.5247 71.8408 45.1727C71.4949 45.0689 71.1836 45.311 71.1836 45.6569C71.2182 46.3487 71.3565 47.4555 72.0137 48.4932C72.0483 48.597 72.1521 48.6661 72.2558 48.7007Z" fill="url(#paint0_linear_1311_2)"/>
<path d="M85.6745 54.4082L83.703 56.5181C83.5992 56.6218 83.4608 56.6564 83.3225 56.6218C82.6307 56.4835 80.3824 56.0684 78.8259 56.5873C78.6876 56.6218 78.5492 56.6218 78.4455 56.5181L76.128 54.4428C75.8513 54.2006 76.0242 53.751 76.4047 53.751H85.3978C85.7437 53.751 85.9166 54.166 85.6745 54.4082Z" fill="url(#paint1_linear_1311_2)"/>
<path d="M80.7627 26.8065C86.7801 26.8065 91.6581 21.9285 91.6581 15.9111C91.6581 9.89369 86.7801 5.01562 80.7627 5.01562C74.7453 5.01562 69.8672 9.89369 69.8672 15.9111C69.8672 21.9285 74.7453 26.8065 80.7627 26.8065Z" fill="black"/>
<path d="M80.7648 24.0739C85.273 24.0739 88.9277 20.4193 88.9277 15.911C88.9277 11.4027 85.273 7.74805 80.7648 7.74805C76.2565 7.74805 72.6018 11.4027 72.6018 15.911C72.6018 20.4193 76.2565 24.0739 80.7648 24.0739Z" fill="url(#paint2_linear_1311_2)"/>
<path d="M87.3908 1.20942L82.4961 5.89941L83.3814 6.82342L88.2762 2.13343L87.3908 1.20942Z" fill="black"/>
<path d="M87.8556 3.32052C88.7725 3.32052 89.5158 2.5772 89.5158 1.66026C89.5158 0.743324 88.7725 0 87.8556 0C86.9386 0 86.1953 0.743324 86.1953 1.66026C86.1953 2.5772 86.9386 3.32052 87.8556 3.32052Z" fill="black"/>
<path d="M73.8697 1.21454L72.9844 2.13867L77.8798 6.82866L78.7651 5.90453L73.8697 1.21454Z" fill="black"/>
<path d="M73.4337 3.32052C74.3506 3.32052 75.094 2.5772 75.094 1.66026C75.094 0.743324 74.3506 0 73.4337 0C72.5168 0 71.7734 0.743324 71.7734 1.66026C71.7734 2.5772 72.5168 3.32052 73.4337 3.32052Z" fill="black"/>
<path d="M72.3588 42.1292C72.0129 42.3367 71.6324 42.4405 71.2174 42.3367C71.1482 42.3021 71.0444 42.3021 70.9752 42.2675C70.491 42.8901 69.8684 43.5127 69.142 43.997C68.7961 44.2391 68.3465 44.3083 67.966 44.2045C67.4126 44.6887 66.7208 45.173 66.029 45.3459C65.8215 45.4151 65.614 45.4151 65.3719 45.3805C64.9568 45.7956 64.4034 46.2452 63.7808 46.5911C63.2619 46.9024 62.6048 46.8332 62.1205 46.4873C61.4979 46.7641 60.737 46.9716 59.976 46.937C59.4572 46.937 59.0075 46.6603 58.7308 46.2106C55.5486 46.6603 49.5648 46.937 43.1659 44.3083C42.5087 44.0315 42.1282 43.3744 42.2666 42.648C42.4049 41.9562 42.9583 41.4374 43.6847 41.4374C44.4802 41.4028 46.1751 41.1261 48.8384 39.5004C50.9483 38.2206 52.0206 36.9063 52.9545 35.7994C53.4041 35.246 53.8538 34.6926 54.4072 34.1737C54.338 33.7241 54.4418 33.2744 54.7531 32.9285C55.0298 32.6172 55.6178 32.0292 56.4825 31.4758C56.448 31.0953 56.5863 30.6803 56.863 30.4036C57.1743 30.0577 57.7623 29.4697 58.7308 28.9508C58.7654 28.6395 58.9038 28.3282 59.1459 28.1207C59.5264 27.7056 60.4603 26.9101 61.8784 26.495C62.0513 25.9762 62.4664 25.5957 62.9852 25.4574C63.089 25.4228 63.2274 25.3882 63.3311 25.3882C63.5387 25.3536 63.677 25.2844 63.85 25.2844C65.0606 25.1461 66.2366 25.1461 67.4126 25.2844C70.6294 25.6649 73.5002 27.2906 75.0567 29.608L75.1605 29.781L75.2988 29.7118L75.541 30.369L75.8177 30.784L75.7139 30.8532L75.8523 31.2337C77.6509 35.8686 73.9153 40.4343 72.7047 41.9216C72.5663 41.9562 72.4626 42.06 72.3588 42.1292ZM70.1797 38.774C70.4564 38.6011 70.8023 38.4973 71.1482 38.5319C71.3557 38.5665 71.5287 38.6011 71.7016 38.7049C72.9814 36.8371 73.6386 35.2114 73.6386 33.7587C72.6009 34.3467 71.4941 34.9347 70.2835 35.5573C69.4879 35.9724 68.6578 36.3874 67.8277 36.8025L67.2397 41.0569L69.4879 38.359V39.6042C69.5571 39.5004 69.5917 39.3967 69.6609 39.3275C69.7992 39.0854 69.9722 38.9124 70.1797 38.774ZM62.4318 44.2737C62.4318 44.2737 62.4664 44.2737 62.4318 44.2737C62.4664 44.2737 62.4318 44.2737 62.4318 44.2737ZM62.2243 43.3052C62.6739 42.9939 63.2274 42.9939 63.7116 43.2014C64.1958 42.6826 64.4034 42.1983 64.438 42.1983L66.7554 37.3213C62.328 39.5004 57.6586 41.5066 52.747 42.648L52.1935 40.4689C51.6401 40.9186 51.0175 41.3682 50.2566 41.8179C49.4264 42.3367 48.6655 42.7172 47.9737 43.0285C53.8538 44.4466 58.8692 43.4781 59.9414 43.236C60.5294 43.0976 61.1174 43.3398 61.4633 43.7894C61.74 43.6165 61.9822 43.4435 62.1205 43.3398C62.1551 43.3398 62.1897 43.3398 62.2243 43.3052ZM52.9891 39.7771C56.5863 38.6357 59.976 36.9754 63.1236 35.2806C66.029 33.7241 68.9691 31.9601 71.9091 30.0923C71.84 30.0231 71.7708 29.9539 71.7016 29.9193L61.7055 30.8878C61.0483 30.957 60.4948 31.1299 60.0798 31.3375C60.1144 31.4412 60.149 31.5796 60.149 31.7179C60.1835 32.3751 59.7685 32.9977 59.1459 33.2398C58.627 33.4128 58.1774 33.6549 57.8315 33.897C57.8661 33.9662 57.8661 34.0354 57.8661 34.1046C57.9699 34.7272 57.6586 35.3498 57.0706 35.6611C56.3442 36.0415 55.8254 36.6641 55.099 37.5634C54.511 38.186 53.8538 38.947 52.9891 39.7771ZM64.6109 28.6741L71.6324 29.8501C70.4564 28.8471 68.8307 28.1899 67.0667 27.9824C66.4441 27.9132 65.7869 27.8786 65.1297 27.9132C65.0606 28.1899 64.853 28.4666 64.6109 28.6741Z" fill="black"/>
<path d="M43.7556 42.7867C44.7587 42.7521 46.6957 42.4062 49.5666 40.6422C53.7172 38.1172 54.1669 35.5576 56.4151 34.3816C56.5189 34.3124 56.5189 34.1395 56.3805 34.1049L55.8617 34.0011C55.7579 33.9665 55.6888 33.8628 55.7925 33.759C56.173 33.3439 57.1415 32.3755 58.698 31.8566C58.8363 31.822 58.8363 31.6145 58.698 31.5799C58.5942 31.5453 58.5251 31.5453 58.4213 31.5107C58.11 31.4416 58.0062 31.0957 58.2483 30.8881C58.8364 30.3693 59.9432 29.6084 61.6035 29.4354L60.2545 29.1933C60.1507 29.1587 60.0815 29.0549 60.1853 28.9512C60.6004 28.5015 61.811 27.4639 63.7825 27.533C63.9209 27.533 63.9901 27.3255 63.8517 27.2563L63.2983 26.945C63.1945 26.8758 63.1945 26.7029 63.3329 26.6683C63.6096 26.5991 63.9555 26.4954 64.0593 26.4954C65.1315 26.357 66.2383 26.357 67.3106 26.4954C69.7664 26.8067 72.3606 27.9827 73.8479 30.0234C73.9171 30.1272 73.8825 30.2655 73.7787 30.3347C70.5619 32.4446 67.2068 34.4854 63.8171 36.3186C60.1853 38.2555 56.4843 40.0542 52.5066 41.1956C58.5596 39.812 64.1976 37.0449 69.6972 34.2087C71.2883 33.3785 72.8448 32.5138 74.4013 31.6145C74.5397 31.5453 74.678 31.6145 74.7472 31.7183C75.7849 34.8313 73.9171 38.0134 71.9801 40.4692C71.8071 40.7113 71.4267 40.6422 71.3229 40.3309C71.2537 40.0196 70.8041 39.9504 70.6657 40.2271C70.2852 40.8497 69.6972 41.749 68.8325 42.4062C68.5904 42.6137 68.2445 42.4408 68.2445 42.1295V41.8528C68.2445 41.8528 67.1377 43.1672 66.1692 43.686C65.8925 43.8243 65.5812 43.6168 65.6503 43.3055L65.7541 42.5791C65.7541 42.5791 64.9586 44.2394 63.2291 45.2079C63.1254 45.2771 62.987 45.1733 63.0216 45.0349C63.0908 44.862 63.1945 44.6199 63.2983 44.3778C63.3329 44.2394 63.1945 44.1356 63.0908 44.2048C62.6065 44.5853 61.7072 45.1733 60.7041 45.3117C60.3928 45.3462 60.1853 44.9658 60.3928 44.7236L60.5312 44.5507C60.6004 44.4469 60.5312 44.3086 60.3928 44.3086C58.6634 44.6891 51.5035 45.9688 43.8594 42.7867C43.5481 42.9942 43.5827 42.7867 43.7556 42.7867Z" fill="url(#paint3_linear_1311_2)"/>
<path d="M87.9569 41.8523C86.7463 40.365 83.0107 35.7993 84.8093 31.1644L84.9476 30.7839L84.8439 30.7147L85.1206 30.2996L85.3627 29.6425L85.5011 29.7116L85.6048 29.5387C87.1613 27.2212 90.0322 25.5956 93.249 25.2151C94.425 25.0767 95.601 25.0767 96.8116 25.2151C96.95 25.2497 97.1229 25.2843 97.3304 25.3189C97.4342 25.3534 97.5726 25.388 97.6763 25.388C98.1952 25.4918 98.6448 25.9069 98.7832 26.4257C100.201 26.8062 101.135 27.6363 101.516 28.0514C101.723 28.2935 101.862 28.5702 101.931 28.8815C102.899 29.3657 103.487 29.9883 103.799 30.3342C104.075 30.6455 104.214 31.026 104.179 31.4065C105.044 31.9599 105.632 32.5479 105.908 32.8592C106.22 33.2051 106.358 33.6548 106.254 34.1044C106.773 34.5887 107.223 35.1421 107.707 35.7301C108.641 36.8715 109.679 38.1513 111.823 39.4311C114.486 41.0568 116.216 41.3335 116.977 41.3681C117.669 41.4026 118.257 41.8869 118.395 42.5787C118.533 43.2704 118.153 43.9622 117.496 44.2389C111.131 46.8677 105.113 46.591 101.931 46.1413C101.689 46.591 101.204 46.8677 100.686 46.8677C99.89 46.9023 99.1636 46.6947 98.541 46.418C98.0568 46.7985 97.3996 46.8331 96.8808 46.5218C96.2236 46.1413 95.7048 45.7262 95.2897 45.3112C95.0822 45.3458 94.8746 45.3458 94.6325 45.2766C93.9407 45.1036 93.2835 44.6194 92.6955 44.1352C92.2805 44.2389 91.8654 44.1697 91.5195 43.9276C90.7586 43.4434 90.1706 42.8208 89.6863 42.1982C89.6171 42.2328 89.5134 42.2674 89.4442 42.2674C89.0291 42.3711 88.6486 42.2674 88.3028 42.0598C88.1644 42.0598 88.0606 41.9561 87.9569 41.8523ZM90.9661 39.3273C91.0007 39.3965 91.0699 39.5003 91.139 39.604V38.3588L93.3873 41.0568L92.7993 36.8023C91.9692 36.3873 91.1736 35.9722 90.3435 35.5571C89.1675 34.9345 88.0261 34.3119 86.9884 33.7585C86.9884 35.2112 87.611 36.8369 88.9254 38.7047C89.0983 38.601 89.2712 38.5664 89.4788 38.5318C89.8247 38.4972 90.1706 38.5664 90.4473 38.7739C90.6894 38.9122 90.8623 39.0852 90.9661 39.3273ZM98.5065 43.3742C98.6448 43.478 98.8869 43.6509 99.1636 43.8239C99.5095 43.3396 100.098 43.1321 100.686 43.2704C101.792 43.5126 106.773 44.481 112.653 43.0629C111.961 42.7516 111.201 42.3365 110.37 41.8523C109.644 41.4026 108.987 40.953 108.433 40.5033L107.88 42.6824C103.003 41.5756 98.3335 39.5348 93.8716 37.3558L96.189 42.2328C96.189 42.2328 96.4311 42.717 96.9154 43.2358C97.3996 42.9937 97.953 43.0283 98.4027 43.3396C98.4373 43.3396 98.4719 43.3396 98.5065 43.3742ZM105.597 37.4941C104.871 36.6294 104.352 35.9722 103.626 35.5917C103.072 35.2804 102.726 34.6578 102.83 34.0352C102.83 33.9661 102.865 33.8969 102.865 33.8277C102.519 33.5856 102.069 33.3435 101.55 33.1705C100.928 32.963 100.513 32.3404 100.547 31.6486C100.547 31.5103 100.582 31.4065 100.616 31.2681C100.201 31.0606 99.6479 30.8531 98.9907 30.8185L88.9945 29.85C88.9254 29.9192 88.8562 29.9883 88.787 30.0229C91.727 31.9253 94.6671 33.6548 97.5725 35.2112C100.72 36.8715 104.11 38.5664 107.707 39.7078C106.773 38.9468 106.151 38.1859 105.597 37.4941ZM95.4972 27.8784C94.84 27.8438 94.1829 27.8784 93.5603 27.9476C91.8308 28.1551 90.2051 28.8469 88.9945 29.8154L96.0161 28.6394C95.7739 28.4664 95.5664 28.1897 95.4972 27.8784Z" fill="black"/>
<path d="M116.909 42.7867C115.906 42.7521 113.969 42.4062 111.098 40.6422C106.948 38.1172 106.498 35.5576 104.25 34.3816C104.146 34.3124 104.146 34.1395 104.284 34.1049L104.803 34.0011C104.907 33.9665 104.976 33.8628 104.872 33.759C104.492 33.3439 103.523 32.3755 101.967 31.8566C101.829 31.822 101.829 31.6145 101.967 31.5799C102.071 31.5453 102.14 31.5453 102.244 31.5107C102.555 31.4416 102.659 31.0957 102.417 30.8881C101.829 30.3693 100.722 29.6084 99.0615 29.4354L100.41 29.1933C100.514 29.1587 100.583 29.0549 100.48 28.9512C100.065 28.5015 98.854 27.4639 96.8824 27.533C96.744 27.533 96.6749 27.3255 96.8132 27.2563L97.3666 26.945C97.4704 26.8758 97.4704 26.7029 97.3321 26.6683C97.0553 26.5991 96.7095 26.4954 96.6057 26.4954C95.5334 26.357 94.4266 26.357 93.3544 26.4954C90.8985 26.8067 88.3044 27.9827 86.8171 30.0234C86.7479 30.1272 86.7825 30.2655 86.8862 30.3347C90.103 32.4446 93.4581 34.4854 96.8478 36.3186C100.48 38.2555 104.181 40.0542 108.158 41.1956C102.105 39.812 96.4673 37.0449 90.9677 34.2087C89.3766 33.3785 87.8201 32.5138 86.2637 31.6145C86.1253 31.5453 85.9869 31.6145 85.9178 31.7183C84.8801 34.8313 86.7479 38.0134 88.6849 40.4692C88.8578 40.7113 89.2383 40.6422 89.3421 40.3309C89.4112 40.0196 89.8609 39.9504 89.9992 40.2271C90.3797 40.8497 90.9677 41.749 91.8324 42.4062C92.0746 42.6137 92.4205 42.4408 92.4205 42.1295V41.8528C92.4205 41.8528 93.5273 43.1672 94.4958 43.686C94.7725 43.8243 95.0838 43.6168 95.0146 43.3055L94.9108 42.5791C94.9108 42.5791 95.7064 44.2394 97.4358 45.2079C97.5396 45.2771 97.6779 45.1733 97.6434 45.0349C97.5742 44.862 97.4704 44.6199 97.3666 44.3778C97.3321 44.2394 97.4704 44.1356 97.5742 44.2048C98.0584 44.5853 98.9577 45.1733 99.9608 45.3117C100.272 45.3462 100.48 44.9658 100.272 44.7236L100.134 44.5507C100.065 44.4469 100.134 44.3086 100.272 44.3086C102.002 44.6891 109.161 45.9688 116.806 42.7867C117.082 42.9942 117.048 42.7867 116.909 42.7867Z" fill="url(#paint4_linear_1311_2)"/>
<path d="M69.7655 33.9667C69.2467 33.9667 68.7624 33.7592 68.382 33.3787C68.3128 33.3095 68.2436 33.2404 68.209 33.1712C67.3097 33.4479 66.2375 33.6554 65.1652 33.6554C64.6464 33.6554 64.1275 33.4133 63.7817 33.0674C62.8478 33.1712 61.8447 33.2058 61.0146 32.9291C60.7724 32.8599 60.5303 32.7215 60.3228 32.5486C59.5964 32.6869 58.7663 32.7561 57.8324 32.7215C57.0714 32.6869 56.4142 32.1681 56.1375 31.4763C55.3074 31.3034 54.4081 31.0267 53.6126 30.4387C53.0937 30.0582 52.7824 29.4702 52.817 28.813C49.2198 27.0836 42.8209 23.2442 38.0822 16.1535C37.5634 15.3926 37.6671 14.3895 38.2897 13.7323C38.9123 13.0751 39.9154 12.9368 40.6764 13.421C41.5065 13.9398 43.4435 14.8045 47.2828 14.9429C50.3266 15.0813 52.2982 14.4587 54.0276 13.9398C54.8923 13.6631 55.7225 13.421 56.5872 13.2826C56.8293 12.7638 57.279 12.3833 57.867 12.2104C58.3512 12.072 59.3543 11.8645 60.5995 11.8991C60.8416 11.484 61.2567 11.1727 61.7409 11.0344C62.2943 10.896 63.332 10.6885 64.6464 10.8268C64.9231 10.5501 65.269 10.3426 65.6495 10.2388C66.3412 10.0659 67.8631 9.89294 69.5926 10.4464C70.1114 10.0313 70.8378 9.92753 71.4949 10.1697C71.6333 10.2388 71.7717 10.2734 71.91 10.308C72.1521 10.3772 72.3251 10.4464 72.498 10.5501C73.847 11.2419 75.0922 12.072 76.199 13.0059C79.2774 15.6347 81.1106 19.2665 81.1452 22.76V22.8983H81.3528L81.1452 23.8322V24.524H80.9723L80.8685 24.9391C79.5196 30.9921 72.498 33.1712 70.2152 33.863C70.146 33.9321 69.9385 33.9667 69.7655 33.9667ZM69.8347 28.7784C70.2843 28.7784 70.6994 28.9168 71.0453 29.2281C71.2182 29.3664 71.3566 29.5394 71.4949 29.7469C73.9853 28.7438 75.6802 27.5678 76.6833 26.1497C75.2305 26.0459 73.7432 25.9075 72.1175 25.7346C71.0107 25.5962 69.9039 25.4925 68.7624 25.3541L65.4765 29.0897L69.5926 27.8791L68.797 29.0897C68.8316 29.0897 68.8316 29.0551 68.8662 29.0551C69.1775 28.8822 69.5234 28.7784 69.8347 28.7784ZM58.0745 29.1589C58.1091 29.1589 58.1091 29.1589 58.0745 29.1589C58.1091 29.1589 58.1091 29.1589 58.0745 29.1589ZM58.4896 28.0175C59.1468 28.0175 59.7694 28.3633 60.1498 28.9514C60.98 28.7438 61.4988 28.4325 61.4988 28.4325L67.1714 25.1466C61.1183 24.3511 54.9269 23.2096 49.1506 21.0305L50.0845 18.4018C49.2198 18.471 48.2513 18.5055 47.179 18.471C46.0722 18.4364 45.1037 18.3326 44.2044 18.1942C49.2544 23.5555 54.9269 25.9421 56.2067 26.4264C56.8985 26.7031 57.3827 27.3257 57.4519 28.052C57.8324 28.0866 58.1437 28.052 58.3512 28.052C58.4204 28.0175 58.455 28.0175 58.4896 28.0175ZM51.8139 18.1597C56.1721 19.3703 60.7033 19.9583 64.9577 20.3733C68.97 20.7538 73.1898 20.9613 77.4788 21.0305C77.4788 20.9613 77.4442 20.8922 77.4096 20.823L66.445 14.9775C65.7532 14.597 65.096 14.4241 64.5426 14.3549C64.508 14.4933 64.4388 14.597 64.3697 14.7354C63.92 15.4963 63.0553 15.8768 62.1906 15.6347C61.568 15.4617 60.9454 15.4271 60.4611 15.4271C60.4265 15.4963 60.4265 15.5655 60.392 15.6001C60.0461 16.361 59.2505 16.8107 58.4204 16.7069C57.4173 16.6032 56.4488 16.8799 55.1345 17.2949C54.166 17.5717 53.0937 17.9175 51.8139 18.1597ZM71.2182 14.7008L77.2713 20.3733C76.6833 18.6785 75.5418 16.9836 73.9853 15.6693C73.3973 15.185 72.7747 14.7008 72.1175 14.3203C71.8408 14.5278 71.5641 14.6316 71.2182 14.7008ZM61.568 14.8391C61.568 14.8391 61.568 14.8737 61.568 14.8391C61.568 14.8737 61.568 14.8391 61.568 14.8391Z" fill="black"/>
<path d="M39.7761 14.9079C40.8137 15.5651 43.062 16.5335 47.2472 16.7065C53.2657 16.9486 55.4794 14.5966 58.5924 14.9425C58.7653 14.9771 58.8691 14.7695 58.7307 14.6312L58.2465 14.1815C58.1427 14.0777 58.1773 13.9048 58.3156 13.8702C58.9728 13.6973 60.6677 13.3514 62.6047 13.8702C62.7776 13.9048 62.916 13.6973 62.7776 13.5935C62.7084 13.5243 62.6047 13.4206 62.5355 13.3514C62.2588 13.0747 62.3971 12.625 62.7776 12.5904C63.7461 12.4521 65.4063 12.4175 67.2396 13.386L65.9944 12.21C65.8906 12.1062 65.9252 11.9332 66.0635 11.8987C66.7899 11.7257 68.7615 11.4836 70.7676 12.9017C70.906 13.0055 71.1135 12.8326 71.0097 12.6596L70.6292 11.9678C70.5601 11.8295 70.6984 11.6565 70.8368 11.7257C71.1827 11.8641 71.5631 11.9678 71.7015 12.037C72.9121 12.6596 74.0189 13.386 75.0566 14.2507C77.4086 16.2568 79.2419 19.2661 79.3802 22.4136C79.3802 22.5866 79.2419 22.6904 79.1035 22.6904C74.2957 22.6558 69.4878 22.4482 64.7146 22.0332C59.6646 21.5489 54.5801 20.8571 49.703 19.3007C56.8975 22.0332 64.6108 23.0362 72.2549 23.901C74.4686 24.1431 76.6477 24.316 78.896 24.4544C79.0689 24.4544 79.2073 24.6273 79.1381 24.8003C78.0658 28.7434 73.9844 30.7495 70.2834 31.9256C69.9375 32.0293 69.5916 31.718 69.6954 31.3375C69.8337 30.9571 69.4186 30.6112 69.0728 30.7841C68.2426 31.1992 66.9974 31.6834 65.6831 31.7872C65.3026 31.8218 65.0605 31.4067 65.268 31.0954L65.4409 30.8187C65.4409 30.8187 63.4002 31.4067 62.0166 31.2684C61.6362 31.2338 61.4978 30.7841 61.7399 30.5074L62.3279 29.8502C62.3279 29.8502 60.391 31.0262 57.9006 30.8533C57.7276 30.8533 57.6585 30.6112 57.7968 30.542C58.0043 30.4036 58.2811 30.2307 58.5232 30.0232C58.6615 29.9194 58.5924 29.6773 58.4194 29.7119C57.6585 29.781 56.3441 29.781 55.2027 29.2276C54.8222 29.0547 54.8914 28.5013 55.2718 28.3975L55.514 28.3283C55.6869 28.2937 55.6869 28.0516 55.514 28.017C53.4386 27.2215 45.2065 23.6242 39.4648 15.1154C39.4302 14.9771 39.6377 14.8041 39.7761 14.9079Z" fill="url(#paint5_linear_1311_2)"/>
<path d="M91.1748 33.9663C90.9673 33.9663 90.7943 33.9317 90.5868 33.8971C88.3039 33.2054 81.2824 31.0263 79.9335 24.9732L79.8297 24.5582H79.6568V23.8664L79.4492 22.9325H79.6568V22.7941C79.6913 19.3007 81.5245 15.6343 84.6029 13.0401C85.7098 12.1062 86.955 11.2761 88.3039 10.5843C88.4769 10.4805 88.6498 10.446 88.892 10.3422C89.0303 10.3076 89.1687 10.2384 89.307 10.2038C89.9642 9.96171 90.6906 10.0655 91.2094 10.4805C92.9388 9.92712 94.4607 10.1347 95.1525 10.273C95.5676 10.3768 95.9135 10.5843 96.1556 10.861C97.47 10.7227 98.5076 10.9302 99.0611 11.0686C99.5453 11.2069 99.9604 11.5182 100.202 11.9333C101.482 11.9333 102.451 12.1408 102.935 12.2446C103.488 12.3829 103.973 12.798 104.215 13.3168C105.08 13.4552 105.91 13.7319 106.774 13.974C108.504 14.5274 110.475 15.1154 113.519 14.9771C117.359 14.8041 119.33 13.9394 120.126 13.4552C120.921 12.9709 121.89 13.1093 122.512 13.7665C123.135 14.4237 123.239 15.4267 122.72 16.1877C117.947 23.2784 111.582 27.1177 107.985 28.8472C107.985 29.4698 107.708 30.0924 107.189 30.4728C106.394 31.0263 105.495 31.3376 104.664 31.5105C104.388 32.2369 103.731 32.7211 102.97 32.7557C102.07 32.8249 101.24 32.7557 100.514 32.5828C100.306 32.7557 100.099 32.8941 99.822 32.9978C98.9919 33.2745 97.9888 33.2399 97.0549 33.1362C96.709 33.5167 96.1902 33.7242 95.6714 33.7242C95.6368 33.7242 95.6368 33.7242 95.6022 33.7242C94.5299 33.7242 93.5269 33.5167 92.6275 33.2054C92.5584 33.2745 92.5238 33.3437 92.4546 33.4129C92.1779 33.7588 91.6936 33.9663 91.1748 33.9663ZM105.668 30.3345C105.668 30.3345 105.702 30.3345 105.668 30.3345V30.3345ZM84.2571 26.1493C85.2601 27.5674 86.955 28.7434 89.4454 29.7465C89.5491 29.5735 89.6875 29.4006 89.895 29.2277C90.5176 28.7088 91.3823 28.6396 92.0741 29.0547C92.1087 29.0547 92.1087 29.0893 92.1433 29.0893L91.3478 27.8787L95.4638 29.0893L92.1779 25.3537C91.0711 25.4921 89.9642 25.6304 88.8574 25.7342C87.1971 25.8725 85.6752 26.0109 84.2571 26.1493ZM93.9073 25.1116L99.4415 28.4321C99.4415 28.4321 99.9604 28.7434 100.79 28.9509C101.171 28.3629 101.863 27.9825 102.589 28.0516C102.797 28.0516 103.108 28.0862 103.488 28.0516C103.558 27.3253 104.042 26.7027 104.734 26.426C106.013 25.9417 111.721 23.5205 116.736 18.1938C115.871 18.3322 114.868 18.436 113.761 18.4705C112.689 18.5051 111.755 18.4705 110.856 18.4014L111.79 21.0301C106.048 23.2092 99.8912 24.316 93.9073 25.1116ZM83.5307 20.788C83.4961 20.8572 83.4961 20.9263 83.4615 20.9955C87.7505 20.9263 91.9704 20.7188 95.9827 20.3383C100.237 19.9233 104.768 19.3699 109.126 18.1247C107.847 17.8825 106.774 17.5712 105.806 17.2599C104.491 16.8449 103.523 16.5682 102.52 16.6719C101.69 16.7757 100.894 16.326 100.548 15.5651C100.514 15.4959 100.479 15.4613 100.479 15.3921C99.9604 15.3921 99.3724 15.4267 98.7498 15.5997C97.9196 15.8072 97.0203 15.4613 96.5707 14.7004C96.5015 14.562 96.4323 14.4582 96.3977 14.3199C95.8443 14.3891 95.1871 14.5966 94.4953 14.9425L83.5307 20.788ZM88.8228 14.2853C88.1656 14.7004 87.543 15.15 86.955 15.6343C85.3985 16.9486 84.2571 18.6435 83.6691 20.3383L89.6875 14.7004C89.3762 14.6312 89.0649 14.5274 88.8228 14.2853Z" fill="black"/>
<path d="M121.167 14.9079C120.129 15.5651 117.881 16.5335 113.695 16.7065C107.677 16.9486 105.463 14.5966 102.35 14.9425C102.177 14.9771 102.074 14.7695 102.212 14.6312L102.696 14.1815C102.8 14.0777 102.765 13.9048 102.627 13.8702C101.97 13.6973 100.275 13.3514 98.3381 13.8702C98.1651 13.9048 98.0268 13.6973 98.1651 13.5935C98.2343 13.5243 98.3381 13.4206 98.4072 13.3514C98.6839 13.0747 98.5456 12.625 98.1651 12.5904C97.1966 12.4521 95.5364 12.4175 93.7032 13.386L94.9484 12.21C95.0521 12.1062 95.0175 11.9332 94.8792 11.8987C94.1528 11.7257 92.1812 11.4836 90.1751 12.9017C90.0367 13.0055 89.8292 12.8326 89.933 12.6596L90.3135 11.9678C90.3826 11.8295 90.2443 11.6565 90.1059 11.7257C89.76 11.8641 89.3796 11.9678 89.2412 12.037C88.0306 12.6596 86.9238 13.386 85.8861 14.2507C83.5341 16.2568 81.7009 19.2661 81.5625 22.4136C81.5625 22.5866 81.7009 22.6904 81.8392 22.6904C86.647 22.6558 91.4549 22.4482 96.2281 22.0332C101.278 21.5489 106.363 20.8571 111.24 19.3007C104.045 22.0332 96.3319 23.0362 88.6878 23.901C86.4741 24.1431 84.295 24.316 82.0467 24.4544C81.8738 24.4544 81.7354 24.6273 81.8046 24.8003C82.8769 28.7434 86.9583 30.7495 90.6593 31.9256C91.0052 32.0293 91.3511 31.718 91.2474 31.3375C91.109 30.9571 91.5241 30.6112 91.8699 30.7841C92.7001 31.1992 93.9453 31.6834 95.2597 31.7872C95.6401 31.8218 95.8822 31.4067 95.6747 31.0954L95.5018 30.8187C95.5018 30.8187 97.5425 31.4067 98.9261 31.2684C99.3065 31.2338 99.4449 30.7841 99.2028 30.5074L98.6148 29.8502C98.6148 29.8502 100.552 31.0262 103.042 30.8533C103.215 30.8533 103.284 30.6112 103.146 30.542C102.938 30.4036 102.662 30.2307 102.42 30.0232C102.281 29.9194 102.35 29.6773 102.523 29.7119C103.284 29.781 104.599 29.781 105.74 29.2276C106.121 29.0547 106.051 28.5013 105.671 28.3975L105.429 28.3283C105.256 28.2937 105.256 28.0516 105.429 28.017C107.504 27.2215 115.736 23.6242 121.478 15.1154C121.478 14.9771 121.305 14.8041 121.167 14.9079Z" fill="url(#paint6_linear_1311_2)"/>
<path d="M75.4061 42.3022C76.5822 42.9248 81.0441 44.8963 85.9211 42.3022C86.0941 42.1984 86.1632 41.9909 86.0595 41.8179C85.2293 40.469 83.0503 34.8656 81.0787 29.5043C80.9403 29.193 80.5253 29.1238 80.4215 29.4351C79.4876 32.2022 76.928 38.0477 75.2678 41.8179C75.1986 41.9909 75.2332 42.1984 75.4061 42.3022Z" fill="url(#paint7_linear_1311_2)"/>
<path d="M17.7786 84.2932C17.7786 87.4062 15.2536 89.9657 12.1061 89.9657H0V72.2217H11.1722C13.8009 72.2217 15.98 74.3662 15.98 77.0295C15.98 77.998 15.7033 78.8973 15.2191 79.6237C16.7756 80.5922 17.7786 82.3216 17.7786 84.2932ZM3.21676 78.6206H11.2414C12.1407 78.6206 12.867 77.8942 12.867 76.9949C12.867 76.0956 12.1407 75.3693 11.2414 75.3693H3.21676V78.6206ZM12.1407 86.749C13.5242 86.749 14.6311 85.6421 14.6311 84.2586C14.6311 82.875 13.5242 81.7682 12.1407 81.7682H3.21676V86.749H12.1407Z" fill="black"/>
<path d="M22.8624 76.9949V78.6552H34.2767V81.8374H22.8624V85.1925C22.8624 86.0918 23.5888 86.8181 24.4881 86.8181H37.4589V90.0003H24.4881C21.8593 90.0003 19.7148 87.8558 19.7148 85.1925V77.0295C19.7148 74.4008 21.8593 72.2217 24.4881 72.2217H37.4589V75.4038H24.4881C23.5888 75.3693 22.8624 76.0956 22.8624 76.9949Z" fill="black"/>
<path d="M57.0698 89.9652H53.5072L51.8815 86.783L48.0076 79.1735L44.1336 86.783L42.508 89.9652H38.9453L40.571 86.783L48.0076 72.1865L55.4442 86.783L57.0698 89.9652Z" fill="black"/>
<path d="M74.3997 72.2217V81.111C74.3997 86.0226 70.422 90.0003 65.5104 90.0003C60.5988 90.0003 56.6211 86.0226 56.6211 81.111V72.2217H59.8033V81.111C59.8033 84.2586 62.3628 86.8181 65.5104 86.8181C68.658 86.8181 71.2176 84.2586 71.2176 81.111V72.2217H74.3997Z" fill="black"/>
<path d="M94.6704 72.2217V75.4038H87.4067V90.0003H84.2246V75.4038H76.9609V72.2217H94.6704Z" fill="black"/>
<path d="M97.2617 89.9657V72.2217H100.444V89.9657H97.2617Z" fill="black"/>
<path d="M120.716 84.2932C120.716 87.4062 118.191 89.9657 115.044 89.9657H102.938V72.2217H114.11C116.738 72.2217 118.918 74.3662 118.918 77.0295C118.918 77.998 118.641 78.8973 118.157 79.6237C119.713 80.5922 120.716 82.3216 120.716 84.2932ZM106.12 78.6206H114.144C115.044 78.6206 115.77 77.8942 115.77 76.9949C115.77 76.0956 115.044 75.3693 114.144 75.3693H106.12V78.6206ZM115.044 86.749C116.427 86.749 117.534 85.6421 117.534 84.2586C117.534 82.875 116.427 81.7682 115.044 81.7682H106.12V86.749H115.044Z" fill="url(#paint8_linear_1311_2)"/>
<path d="M125.8 76.9949V78.6552H137.214V81.8374H125.8V85.1925C125.8 86.0918 126.526 86.8181 127.426 86.8181H140.396V90.0003H127.426C124.797 90.0003 122.652 87.8558 122.652 85.1925V77.0295C122.652 74.4008 124.797 72.2217 127.426 72.2217H140.396V75.4038H127.426C126.526 75.3693 125.8 76.0956 125.8 76.9949Z" fill="url(#paint9_linear_1311_2)"/>
<path d="M146.069 76.9949V78.6552H157.484V81.8374H146.069V85.1925C146.069 86.0918 146.796 86.8181 147.695 86.8181H160.666V90.0003H147.695C145.066 90.0003 142.922 87.8558 142.922 85.1925V77.0295C142.922 74.4008 145.066 72.2217 147.695 72.2217H160.666V75.4038H147.695C146.83 75.3693 146.069 76.0956 146.069 76.9949Z" fill="url(#paint10_linear_1311_2)"/>
<defs>
<linearGradient id="paint0_linear_1311_2" x1="71.1568" y1="47.7994" x2="90.6281" y2="47.7994" gradientUnits="userSpaceOnUse">
<stop offset="0.0022147" stop-color="#F4BC00"/>
<stop offset="1" stop-color="#F2A100"/>
</linearGradient>
<linearGradient id="paint1_linear_1311_2" x1="75.9971" y1="55.1932" x2="85.7842" y2="55.1932" gradientUnits="userSpaceOnUse">
<stop offset="0.0022147" stop-color="#F4BC00"/>
<stop offset="1" stop-color="#F2A100"/>
</linearGradient>
<linearGradient id="paint2_linear_1311_2" x1="81.4125" y1="9.04309" x2="80.6703" y2="16.8369" gradientUnits="userSpaceOnUse">
<stop offset="0.0022147" stop-color="#F4BC00"/>
<stop offset="1" stop-color="#F2A100"/>
</linearGradient>
<linearGradient id="paint3_linear_1311_2" x1="66.3848" y1="34.5073" x2="55.4728" y2="41.6239" gradientUnits="userSpaceOnUse">
<stop offset="0.0022147" stop-color="#F4BC00"/>
<stop offset="1" stop-color="#F2A100"/>
</linearGradient>
<linearGradient id="paint4_linear_1311_2" x1="95.3904" y1="32.104" x2="107.607" y2="47.879" gradientUnits="userSpaceOnUse">
<stop offset="0.0022147" stop-color="#F4BC00"/>
<stop offset="1" stop-color="#F2A100"/>
</linearGradient>
<linearGradient id="paint5_linear_1311_2" x1="54.9867" y1="21.3311" x2="70.999" y2="21.9241" gradientUnits="userSpaceOnUse">
<stop offset="0.0022147" stop-color="#F4BC00"/>
<stop offset="1" stop-color="#F2A100"/>
</linearGradient>
<linearGradient id="paint6_linear_1311_2" x1="87.1075" y1="21.954" x2="109.406" y2="21.5981" gradientUnits="userSpaceOnUse">
<stop offset="0.0022147" stop-color="#F4BC00"/>
<stop offset="1" stop-color="#F2A100"/>
</linearGradient>
<linearGradient id="paint7_linear_1311_2" x1="75.2453" y1="36.4184" x2="86.114" y2="36.4184" gradientUnits="userSpaceOnUse">
<stop offset="0.0022147" stop-color="#F4BC00"/>
<stop offset="1" stop-color="#F2A100"/>
</linearGradient>
<linearGradient id="paint8_linear_1311_2" x1="171.055" y1="81.0841" x2="97.0418" y2="81.0841" gradientUnits="userSpaceOnUse">
<stop offset="0.0022147" stop-color="#F4BC00"/>
<stop offset="1" stop-color="#F2A100"/>
</linearGradient>
<linearGradient id="paint9_linear_1311_2" x1="171.054" y1="81.0841" x2="97.0411" y2="81.0841" gradientUnits="userSpaceOnUse">
<stop offset="0.0022147" stop-color="#F4BC00"/>
<stop offset="1" stop-color="#F2A100"/>
</linearGradient>
<linearGradient id="paint10_linear_1311_2" x1="171.055" y1="81.0841" x2="97.0416" y2="81.0841" gradientUnits="userSpaceOnUse">
<stop offset="0.0022147" stop-color="#F4BC00"/>
<stop offset="1" stop-color="#F2A100"/>
</linearGradient>
</defs>
</svg>
