<svg width="12" height="13" viewBox="0 0 12 13" fill="none" xmlns="http://www.w3.org/2000/svg">
<path d="M2.56062 9.59481H10.1538C10.3987 9.59481 10.6334 9.49672 10.8066 9.32211C10.9797 9.14751 11.0769 8.9107 11.0769 8.66377V2.61206C11.0769 2.36514 10.9797 2.12833 10.8066 1.95373C10.6334 1.77912 10.3987 1.68103 10.1538 1.68103H1.84615C1.60134 1.68103 1.36655 1.77912 1.19344 1.95373C1.02033 2.12833 0.923077 2.36514 0.923077 2.61206V10.9169L2.56062 9.59481ZM2.88462 10.5258L0.749538 12.2482C0.681674 12.3029 0.599895 12.3371 0.513602 12.347C0.427309 12.3569 0.340002 12.342 0.261716 12.3041C0.18343 12.2662 0.117341 12.2067 0.0710448 12.1326C0.0247486 12.0585 0.00012363 11.9727 0 11.8851V2.61206C0 2.11821 0.194505 1.64459 0.540726 1.29539C0.886947 0.946181 1.35652 0.75 1.84615 0.75H10.1538C10.6435 0.75 11.1131 0.946181 11.4593 1.29539C11.8055 1.64459 12 2.11821 12 2.61206V8.66377C12 9.15762 11.8055 9.63125 11.4593 9.98045C11.1131 10.3297 10.6435 10.5258 10.1538 10.5258H2.88462Z" fill="black"/>
<path d="M6.00039 6.35C5.79938 6.35 5.60661 6.26571 5.46448 6.11569C5.32235 5.96566 5.2425 5.76217 5.2425 5.55C5.2425 5.33783 5.32235 5.13434 5.46448 4.98431C5.60661 4.83429 5.79938 4.75 6.00039 4.75C6.2014 4.75 6.39417 4.83429 6.5363 4.98431C6.67844 5.13434 6.75829 5.33783 6.75829 5.55C6.75829 5.76217 6.67844 5.96566 6.5363 6.11569C6.39417 6.26571 6.2014 6.35 6.00039 6.35V6.35ZM8.8425 6.35C8.64149 6.35 8.44872 6.26571 8.30658 6.11569C8.16445 5.96566 8.0846 5.76217 8.0846 5.55C8.0846 5.33783 8.16445 5.13434 8.30658 4.98431C8.44872 4.83429 8.64149 4.75 8.8425 4.75C9.0435 4.75 9.23628 4.83429 9.37841 4.98431C9.52054 5.13434 9.60039 5.33783 9.60039 5.55C9.60039 5.76217 9.52054 5.96566 9.37841 6.11569C9.23628 6.26571 9.0435 6.35 8.8425 6.35V6.35ZM3.15829 6.35C2.95728 6.35 2.76451 6.26571 2.62237 6.11569C2.48024 5.96566 2.40039 5.76217 2.40039 5.55C2.40039 5.33783 2.48024 5.13434 2.62237 4.98431C2.76451 4.83429 2.95728 4.75 3.15829 4.75C3.35929 4.75 3.55207 4.83429 3.6942 4.98431C3.83633 5.13434 3.91618 5.33783 3.91618 5.55C3.91618 5.76217 3.83633 5.96566 3.6942 6.11569C3.55207 6.26571 3.35929 6.35 3.15829 6.35V6.35Z" fill="black"/>
</svg>
