<svg width="33" height="30" viewBox="0 0 33 30" fill="none" xmlns="http://www.w3.org/2000/svg">
<path d="M28.71 10.3218V10.0018C28.6418 7.29281 27.5047 4.72079 25.5468 2.84724C23.5889 0.973688 20.9694 -0.0492185 18.26 0.00182235C16.2422 -0.0146426 14.2626 0.552343 12.5594 1.63455C10.8563 2.71676 9.50216 4.26807 8.66 6.10182C6.2888 6.36633 4.09717 7.49199 2.50088 9.26523C0.904588 11.0385 0.0146874 13.336 0 15.7218C0.00262204 16.986 0.25438 18.2372 0.740881 19.404C1.22738 20.5708 1.93909 21.6303 2.8353 22.5219C3.73152 23.4135 4.79468 24.1196 5.96399 24.6001C7.1333 25.0805 8.38584 25.3258 9.65 25.3218H13.4V23.3218H9.65C7.71714 23.2172 5.8958 22.3838 4.55309 20.9895C3.21038 19.5952 2.44615 17.7437 2.41445 15.8083C2.38274 13.8729 3.08591 11.9974 4.38222 10.5599C5.67854 9.12235 7.4716 8.22969 9.4 8.06182H10.07L10.3 7.43182C10.9202 5.82096 12.02 4.43931 13.4507 3.47358C14.8814 2.50785 16.5741 2.0046 18.3 2.03182C20.479 1.98062 22.59 2.79279 24.1728 4.29131C25.7556 5.78983 26.682 7.85323 26.75 10.0318C26.7638 10.2983 26.7638 10.5653 26.75 10.8318L26.67 11.5518L27.32 11.8518C28.5772 12.4182 29.6009 13.4003 30.219 14.6329C30.837 15.8655 31.0117 17.2733 30.7136 18.6196C30.4154 19.9658 29.6627 21.1683 28.5821 22.0247C27.5014 22.8811 26.1588 23.3392 24.78 23.3218H19.4V25.3218H24.78C26.5585 25.3346 28.2905 24.7543 29.7024 23.6728C31.1142 22.5912 32.1254 21.07 32.5762 19.3496C33.0269 17.6291 32.8915 15.8075 32.1914 14.1726C31.4912 12.5377 30.2662 11.1828 28.71 10.3218Z" fill="#7D7D7D"/>
<path d="M20.6806 19.1719C20.8801 19.1751 21.076 19.1185 21.243 19.0095C21.4101 18.9005 21.5408 18.744 21.6182 18.5601C21.6956 18.3762 21.7162 18.1734 21.6775 17.9777C21.6387 17.782 21.5423 17.6024 21.4006 17.4619L16.4006 12.4619L11.4006 17.4619C11.2368 17.6532 11.1512 17.8993 11.1609 18.151C11.1706 18.4026 11.275 18.6414 11.4531 18.8195C11.6311 18.9976 11.8699 19.1019 12.1216 19.1116C12.3732 19.1213 12.6193 19.0357 12.8106 18.8719L15.4006 16.3219V28.5719C15.4006 28.8371 15.506 29.0915 15.6935 29.279C15.881 29.4666 16.1354 29.5719 16.4006 29.5719C16.6658 29.5719 16.9202 29.4666 17.1077 29.279C17.2953 29.0915 17.4006 28.8371 17.4006 28.5719V16.3219L19.9706 18.8919C20.161 19.0754 20.4162 19.1761 20.6806 19.1719Z" fill="#7D7D7D"/>
</svg>
