<svg width="20" height="14" viewBox="0 0 20 14" fill="none" xmlns="http://www.w3.org/2000/svg">
<path d="M12.2286 10.2168C12.7797 9.67948 13.1581 8.9901 13.3154 8.23669C13.4728 7.48329 13.4019 6.70009 13.1119 5.98716C12.8219 5.27424 12.3259 4.66398 11.6873 4.23435C11.0487 3.80473 10.2965 3.57525 9.52688 3.57525C8.75722 3.57525 8.00504 3.80473 7.36646 4.23435C6.72787 4.66398 6.23188 5.27424 5.94187 5.98716C5.65185 6.70009 5.58098 7.48329 5.73831 8.23669C5.89564 8.9901 6.27402 9.67948 6.82511 10.2168C5.78677 10.7765 4.9509 11.6488 4.43595 12.7101C4.33133 12.9233 4.31569 13.1693 4.39246 13.3941C4.46923 13.6188 4.63212 13.8038 4.84531 13.9084C5.0585 14.013 5.30452 14.0287 5.52924 13.9519C5.75397 13.8752 5.93899 13.7123 6.04361 13.4991C6.36053 12.8447 6.85536 12.2929 7.47141 11.9067C8.08746 11.5206 8.79982 11.3158 9.52688 11.3158C10.2539 11.3158 10.9663 11.5206 11.5823 11.9067C12.1984 12.2929 12.6932 12.8447 13.0101 13.4991C13.084 13.6491 13.1985 13.7754 13.3406 13.8636C13.4827 13.9517 13.6467 13.9982 13.814 13.9977C13.948 13.9966 14.0801 13.9662 14.201 13.9084C14.3074 13.8575 14.4027 13.786 14.4813 13.6981C14.56 13.6102 14.6204 13.5076 14.6591 13.3961C14.6979 13.2847 14.7142 13.1667 14.7071 13.049C14.7 12.9312 14.6697 12.8161 14.6178 12.7101C14.1029 11.6488 13.267 10.7765 12.2286 10.2168ZM7.44287 7.44801C7.44287 7.03584 7.5651 6.63292 7.79409 6.2902C8.02308 5.94749 8.34856 5.68038 8.72936 5.52265C9.11017 5.36491 9.52919 5.32364 9.93345 5.40405C10.3377 5.48447 10.709 5.68295 11.0005 5.9744C11.2919 6.26585 11.4904 6.63719 11.5708 7.04145C11.6512 7.4457 11.61 7.86473 11.4522 8.24553C11.2945 8.62633 11.0274 8.95181 10.6847 9.1808C10.342 9.40979 9.93905 9.53202 9.52688 9.53202C8.97477 9.53006 8.44583 9.30986 8.05543 8.91946C7.66503 8.52906 7.44483 8.00012 7.44287 7.44801ZM18.6965 8.16253C18.507 8.30466 18.2688 8.36568 18.0343 8.33218C17.7998 8.29868 17.5882 8.1734 17.4461 7.9839C17.1663 7.60714 16.8142 7.28999 16.4104 7.051C16.0065 6.81201 15.559 6.656 15.0941 6.59208C14.9177 6.56568 14.7533 6.48705 14.6219 6.36634C14.4906 6.24562 14.3984 6.08835 14.3573 5.91478C14.3416 5.88131 14.3291 5.84642 14.3201 5.81058C14.2899 5.69719 14.2826 5.57893 14.2985 5.46268C14.3145 5.34643 14.3533 5.2345 14.4129 5.13339C14.4724 5.03229 14.5515 4.94403 14.6454 4.87374C14.7394 4.80344 14.8464 4.75252 14.9602 4.72392C15.202 4.66058 15.4239 4.53737 15.6055 4.36566C15.7872 4.19396 15.9226 3.97928 15.9994 3.74143C16.0763 3.50358 16.0919 3.25022 16.0451 3.00471C15.9982 2.7592 15.8902 2.52945 15.7312 2.33665C15.5721 2.14385 15.367 1.9942 15.1349 1.90151C14.9028 1.80882 14.6511 1.77608 14.403 1.80629C14.1548 1.83651 13.9183 1.92871 13.7152 2.0744C13.5121 2.22009 13.349 2.41458 13.2409 2.63992C13.1965 2.75469 13.129 2.85905 13.0424 2.94648C12.9559 3.03391 12.8522 3.10251 12.7379 3.14799C12.6235 3.19346 12.5011 3.21483 12.3781 3.21075C12.2551 3.20667 12.1343 3.17723 12.0233 3.12427C11.9122 3.07132 11.8133 2.99599 11.7328 2.90302C11.6522 2.81004 11.5917 2.70143 11.5551 2.58397C11.5184 2.46652 11.5065 2.34277 11.5199 2.22048C11.5334 2.09819 11.5719 1.97999 11.6332 1.87331C11.8325 1.45241 12.1193 1.07887 12.4744 0.777596C12.8295 0.476325 13.2448 0.254259 13.6926 0.126216C14.1403 -0.0018264 14.6102 -0.0329013 15.071 0.0350658C15.5317 0.103033 15.9726 0.268479 16.3643 0.520363C16.756 0.772247 17.0895 1.10478 17.3425 1.49576C17.5955 1.88674 17.7622 2.32719 17.8314 2.78771C17.9007 3.24822 17.871 3.71822 17.7442 4.16633C17.6174 4.61444 17.3965 5.03036 17.0963 5.38634C17.7958 5.7556 18.4037 6.27698 18.8751 6.91213C18.9455 7.00596 18.9967 7.11273 19.0258 7.22635C19.0549 7.33997 19.0614 7.45821 19.0448 7.57432C19.0282 7.69043 18.9889 7.80214 18.9291 7.90307C18.8694 8.00399 18.7903 8.09216 18.6965 8.16253ZM3.95961 6.59208C3.49472 6.656 3.04724 6.81201 2.64339 7.051C2.23954 7.28999 1.88743 7.60714 1.60766 7.9839C1.52369 8.09398 1.41564 8.1834 1.2918 8.24533C1.16796 8.30725 1.0316 8.34003 0.893148 8.34116C0.700071 8.3401 0.512356 8.27753 0.357261 8.16253C0.16776 8.0204 0.0424796 7.80882 0.0089802 7.57432C-0.0245192 7.33983 0.0365066 7.10163 0.178633 6.91213C0.650095 6.27698 1.25795 5.7556 1.95748 5.38634C1.65722 5.03036 1.43633 4.61444 1.30956 4.16633C1.18279 3.71822 1.15305 3.24822 1.22233 2.78771C1.2916 2.32719 1.4583 1.88674 1.7113 1.49576C1.96429 1.10478 2.29777 0.772247 2.68947 0.520363C3.08117 0.268479 3.52209 0.103033 3.9828 0.0350658C4.44351 -0.0329013 4.91342 -0.0018264 5.36117 0.126216C5.80892 0.254259 6.22421 0.476325 6.57933 0.777596C6.93445 1.07887 7.22124 1.45241 7.42054 1.87331C7.48181 1.97999 7.52038 2.09819 7.53383 2.22048C7.54727 2.34277 7.53531 2.46652 7.49868 2.58397C7.46206 2.70143 7.40156 2.81004 7.32099 2.90302C7.24042 2.99599 7.14151 3.07132 7.03046 3.12427C6.91941 3.17723 6.79862 3.20667 6.67566 3.21075C6.5527 3.21483 6.43022 3.19346 6.3159 3.14799C6.20159 3.10251 6.0979 3.03391 6.01134 2.94648C5.92478 2.85905 5.85722 2.75469 5.81288 2.63992C5.70475 2.41458 5.54161 2.22009 5.33851 2.0744C5.13542 1.92871 4.89891 1.83651 4.65079 1.80629C4.40268 1.77608 4.15096 1.80882 3.91883 1.90151C3.68671 1.9942 3.48166 2.14385 3.3226 2.33665C3.16353 2.52945 3.05558 2.7592 3.00869 3.00471C2.96181 3.25022 2.97749 3.50358 3.05431 3.74143C3.13112 3.97928 3.26659 4.19396 3.44822 4.36566C3.62985 4.53737 3.8518 4.66058 4.09358 4.72392C4.20738 4.75252 4.31437 4.80344 4.40832 4.87374C4.50227 4.94403 4.58132 5.03229 4.64087 5.13339C4.70043 5.2345 4.7393 5.34643 4.75523 5.46268C4.77116 5.57893 4.76383 5.69719 4.73367 5.81058C4.72461 5.84642 4.71215 5.88131 4.69645 5.91478C4.65531 6.08835 4.56314 6.24562 4.43181 6.36634C4.30049 6.48705 4.13602 6.56568 3.95961 6.59208Z" fill="#F2A100"/>
</svg>
