<svg width="14" height="14" viewBox="0 0 14 14" fill="none" xmlns="http://www.w3.org/2000/svg">
<path d="M6.3 0L2.45 6.3H10.15L6.3 0ZM6.3 2.688L7.651 4.9H4.942L6.3 2.688ZM10.15 7.7C8.407 7.7 7 9.107 7 10.85C7 12.593 8.407 14 10.15 14C11.893 14 13.3 12.593 13.3 10.85C13.3 9.107 11.893 7.7 10.15 7.7ZM10.15 12.6C9.68587 12.6 9.24075 12.4156 8.91256 12.0874C8.58437 11.7592 8.4 11.3141 8.4 10.85C8.4 10.3859 8.58437 9.94075 8.91256 9.61256C9.24075 9.28437 9.68587 9.1 10.15 9.1C10.6141 9.1 11.0592 9.28437 11.3874 9.61256C11.7156 9.94075 11.9 10.3859 11.9 10.85C11.9 11.3141 11.7156 11.7592 11.3874 12.0874C11.0592 12.4156 10.6141 12.6 10.15 12.6ZM0 13.65H5.6V8.05H0V13.65ZM1.4 9.45H4.2V12.25H1.4V9.45Z" fill="#F2A100"/>
</svg>
