<svg width="14" height="14" viewBox="0 0 14 14" fill="none" xmlns="http://www.w3.org/2000/svg">
<path d="M3.11111 6.3H4.66667V7.7H3.11111V6.3ZM14 2.8V12.6C14 13.37 13.3 14 12.4444 14H1.55556C1.143 14 0.747335 13.8525 0.455612 13.5899C0.163888 13.3274 0 12.9713 0 12.6L0.00777777 2.8C0.00777777 2.03 0.692222 1.4 1.55556 1.4H2.33333V0H3.88889V1.4H10.1111V0H11.6667V1.4H12.4444C13.3 1.4 14 2.03 14 2.8ZM1.55556 4.2H12.4444V2.8H1.55556V4.2ZM12.4444 12.6V5.6H1.55556V12.6H12.4444ZM9.33333 7.7H10.8889V6.3H9.33333V7.7ZM6.22222 7.7H7.77778V6.3H6.22222V7.7Z" fill="#F2A100"/>
</svg>
