<svg version="1.2" xmlns="http://www.w3.org/2000/svg" viewBox="0 0 40 40" width="40" height="40"><style>.a{fill:#f69421}</style><path fill-rule="evenodd" class="a" d="m20 36.7q-6.7-5.7-10-10.6-3.3-4.9-3.3-9.1 0-6.3 4-10 4-3.7 9.3-3.7 5.3 0 9.3 3.7 4 3.7 4 10 0 4.2-3.3 9.1-3.3 4.9-10 10.6zm0-3.3q5.5-5.1 8.2-9.2 2.6-4.1 2.6-7.2 0-4.9-3.1-8-3.1-3.2-7.7-3.2-4.6 0-7.7 3.2-3.1 3.1-3.1 8 0 3.1 2.7 7.2 2.7 4.1 8.1 9.2zm-2.1-14.7q-0.8-0.8-0.8-2 0-1.2 0.8-2.1 0.9-0.9 2.1-0.9 1.2 0 2.1 0.9 0.8 0.9 0.8 2.1 0 1.2-0.8 2-0.9 0.9-2.1 0.9-1.2 0-2.1-0.9z"/></svg>