<svg width="161" height="90" viewBox="0 0 161 90" fill="none" xmlns="http://www.w3.org/2000/svg">
<path d="M93.6667 20.0962H66.6875V44.3083L66.7567 44.2737C66.7567 44.2737 66.5146 47.0063 68.1056 50.7073C69.3854 53.1285 71.5645 56.5528 74.9542 59.4236C76.0611 60.3229 77.2717 61.1876 78.6898 62.0524L79.8658 65.9955C80.0388 66.6181 80.9035 66.5835 81.0764 65.9955L82.1833 62.1907C82.1833 62.1907 85.9534 59.8041 89.1356 55.9993C90.3462 54.512 91.5222 52.7134 92.4907 50.6381C93.39 48.4936 93.8051 46.1415 93.4246 43.6511C93.2517 42.4405 93.3554 41.6796 93.7013 41.2645V20.0962H93.6667Z" fill="black"/>
<path d="M72.2563 48.7007C73.4669 49.185 81.8374 52.298 89.5161 48.7353C89.6545 48.6661 89.7582 48.5624 89.7928 48.424L90.623 45.8644C90.7267 45.484 90.4154 45.1381 90.035 45.2073C87.4408 45.899 79.6237 47.5247 71.8413 45.1727C71.4954 45.0689 71.1841 45.311 71.1841 45.6569C71.2187 46.3487 71.357 47.4555 72.0142 48.4932C72.0488 48.597 72.1526 48.6661 72.2563 48.7007Z" fill="#ECCB00"/>
<path d="M72.2563 48.7007C73.4669 49.185 81.8374 52.298 89.5161 48.7353C89.6545 48.6661 89.7582 48.5624 89.7928 48.424L90.623 45.8644C90.7267 45.484 90.4154 45.1381 90.035 45.2073C87.4408 45.899 79.6237 47.5247 71.8413 45.1727C71.4954 45.0689 71.1841 45.311 71.1841 45.6569C71.2187 46.3487 71.357 47.4555 72.0142 48.4932C72.0488 48.597 72.1526 48.6661 72.2563 48.7007Z" fill="url(#paint0_linear_492_580)"/>
<path d="M85.6755 54.4082L83.7039 56.5181C83.6002 56.6218 83.4618 56.6564 83.3235 56.6218C82.6317 56.4835 80.3834 56.0684 78.8269 56.5873C78.6886 56.6218 78.5502 56.6218 78.4464 56.5181L76.129 54.4428C75.8523 54.2006 76.0252 53.751 76.4057 53.751H85.3988C85.7447 53.751 85.9176 54.166 85.6755 54.4082Z" fill="url(#paint1_linear_492_580)"/>
<path d="M80.7656 26.8065C86.783 26.8065 91.6611 21.9285 91.6611 15.9111C91.6611 9.89369 86.783 5.01562 80.7656 5.01562C74.7482 5.01562 69.8701 9.89369 69.8701 15.9111C69.8701 21.9285 74.7482 26.8065 80.7656 26.8065Z" fill="black"/>
<path d="M80.7645 24.0739C85.2728 24.0739 88.9275 20.4193 88.9275 15.911C88.9275 11.4027 85.2728 7.74805 80.7645 7.74805C76.2562 7.74805 72.6016 11.4027 72.6016 15.911C72.6016 20.4193 76.2562 24.0739 80.7645 24.0739Z" fill="url(#paint2_linear_492_580)"/>
<path d="M87.3918 1.20894L82.4971 5.89893L83.3824 6.82293L88.2772 2.13294L87.3918 1.20894Z" fill="black"/>
<path d="M87.8561 3.32052C88.773 3.32052 89.5163 2.5772 89.5163 1.66026C89.5163 0.743324 88.773 0 87.8561 0C86.9391 0 86.1958 0.743324 86.1958 1.66026C86.1958 2.5772 86.9391 3.32052 87.8561 3.32052Z" fill="black"/>
<path d="M73.8697 1.21454L72.9844 2.13867L77.8798 6.82866L78.7651 5.90453L73.8697 1.21454Z" fill="black"/>
<path d="M73.4317 3.32052C74.3487 3.32052 75.092 2.5772 75.092 1.66026C75.092 0.743324 74.3487 0 73.4317 0C72.5148 0 71.7715 0.743324 71.7715 1.66026C71.7715 2.5772 72.5148 3.32052 73.4317 3.32052Z" fill="black"/>
<path d="M72.3593 42.1292C72.0134 42.3367 71.6329 42.4405 71.2179 42.3367C71.1487 42.3021 71.0449 42.3021 70.9757 42.2675C70.4915 42.8901 69.8689 43.5127 69.1425 43.997C68.7966 44.2391 68.347 44.3083 67.9665 44.2045C67.4131 44.6887 66.7213 45.173 66.0295 45.3459C65.822 45.4151 65.6145 45.4151 65.3723 45.3805C64.9573 45.7956 64.4039 46.2452 63.7813 46.5911C63.2624 46.9024 62.6052 46.8332 62.121 46.4873C61.4984 46.7641 60.7375 46.9716 59.9765 46.937C59.4577 46.937 59.008 46.6603 58.7313 46.2106C55.5491 46.6603 49.5653 46.937 43.1664 44.3083C42.5092 44.0315 42.1287 43.3744 42.267 42.648C42.4054 41.9562 42.9588 41.4374 43.6852 41.4374C44.4807 41.4028 46.1756 41.1261 48.8389 39.5004C50.9488 38.2206 52.0211 36.9063 52.955 35.7994C53.4046 35.246 53.8543 34.6926 54.4077 34.1737C54.3385 33.7241 54.4423 33.2744 54.7536 32.9285C55.0303 32.6172 55.6183 32.0292 56.483 31.4758C56.4484 31.0953 56.5868 30.6803 56.8635 30.4036C57.1748 30.0577 57.7628 29.4697 58.7313 28.9508C58.7659 28.6395 58.9042 28.3282 59.1464 28.1207C59.5268 27.7056 60.4607 26.9101 61.8789 26.495C62.0518 25.9762 62.4669 25.5957 62.9857 25.4574C63.0895 25.4228 63.2278 25.3882 63.3316 25.3882C63.5391 25.3536 63.6775 25.2844 63.8504 25.2844C65.061 25.1461 66.2371 25.1461 67.4131 25.2844C70.6298 25.6649 73.5007 27.2906 75.0572 29.608L75.161 29.781L75.2993 29.7118L75.5415 30.369L75.8182 30.784L75.7144 30.8532L75.8527 31.2337C77.6514 35.8686 73.9158 40.4343 72.7052 41.9216C72.5668 41.9562 72.463 42.06 72.3593 42.1292ZM70.1802 38.774C70.4569 38.6011 70.8028 38.4973 71.1487 38.5319C71.3562 38.5665 71.5291 38.6011 71.7021 38.7049C72.9819 36.8371 73.6391 35.2114 73.6391 33.7587C72.6014 34.3467 71.4946 34.9347 70.284 35.5573C69.4884 35.9724 68.6583 36.3874 67.8282 36.8025L67.2401 41.0569L69.4884 38.359V39.6042C69.5576 39.5004 69.5922 39.3967 69.6614 39.3275C69.7997 39.0854 69.9727 38.9124 70.1802 38.774ZM62.4323 44.2737C62.4323 44.2737 62.4669 44.2737 62.4323 44.2737C62.4669 44.2737 62.4323 44.2737 62.4323 44.2737ZM62.2248 43.3052C62.6744 42.9939 63.2278 42.9939 63.7121 43.2014C64.1963 42.6826 64.4039 42.1983 64.4384 42.1983L66.7559 37.3213C62.3285 39.5004 57.659 41.5066 52.7474 42.648L52.194 40.4689C51.6406 40.9186 51.018 41.3682 50.2571 41.8179C49.4269 42.3367 48.666 42.7172 47.9742 43.0285C53.8543 44.4466 58.8697 43.4781 59.9419 43.236C60.5299 43.0976 61.1179 43.3398 61.4638 43.7894C61.7405 43.6165 61.9826 43.4435 62.121 43.3398C62.1556 43.3398 62.1902 43.3398 62.2248 43.3052ZM52.9896 39.7771C56.5868 38.6357 59.9765 36.9754 63.1241 35.2806C66.0295 33.7241 68.9696 31.9601 71.9096 30.0923C71.8405 30.0231 71.7713 29.9539 71.7021 29.9193L61.7059 30.8878C61.0488 30.957 60.4953 31.1299 60.0803 31.3375C60.1149 31.4412 60.1494 31.5796 60.1494 31.7179C60.184 32.3751 59.769 32.9977 59.1464 33.2398C58.6275 33.4128 58.1779 33.6549 57.832 33.897C57.8666 33.9662 57.8666 34.0354 57.8666 34.1046C57.9703 34.7272 57.659 35.3498 57.071 35.6611C56.3447 36.0415 55.8258 36.6641 55.0995 37.5634C54.5115 38.186 53.8543 38.947 52.9896 39.7771ZM64.6114 28.6741L71.6329 29.8501C70.4569 28.8471 68.8312 28.1899 67.0672 27.9824C66.4446 27.9132 65.7874 27.8786 65.1302 27.9132C65.061 28.1899 64.8535 28.4666 64.6114 28.6741Z" fill="black"/>
<path d="M43.7547 42.7862C44.7577 42.7516 46.6947 42.4057 49.5656 40.6417C53.7162 38.1167 54.1659 35.5571 56.4142 34.3811C56.5179 34.3119 56.5179 34.139 56.3796 34.1044L55.8607 34.0006C55.757 33.9661 55.6878 33.8623 55.7916 33.7585C56.172 33.3435 57.1405 32.375 58.697 31.8561C58.8354 31.8215 58.8354 31.614 58.697 31.5794C58.5932 31.5448 58.5241 31.5448 58.4203 31.5103C58.109 31.4411 58.0052 31.0952 58.2474 30.8877C58.8354 30.3688 59.9422 29.6079 61.6025 29.4349L60.2535 29.1928C60.1497 29.1582 60.0806 29.0544 60.1843 28.9507C60.5994 28.501 61.81 27.4634 63.7816 27.5325C63.9199 27.5325 63.9891 27.325 63.8507 27.2558L63.2973 26.9445C63.1936 26.8754 63.1936 26.7024 63.3319 26.6678C63.6086 26.5986 63.9545 26.4949 64.0583 26.4949C65.1305 26.3565 66.2374 26.3565 67.3096 26.4949C69.7654 26.8062 72.3596 27.9822 73.8469 30.0229C73.9161 30.1267 73.8815 30.2651 73.7777 30.3342C70.561 32.4441 67.2059 34.4849 63.8162 36.3181C60.1843 38.2551 56.4833 40.0537 52.5056 41.1951C58.5587 39.8116 64.1966 37.0445 69.6962 34.2082C71.2873 33.378 72.8438 32.5133 74.4003 31.614C74.5387 31.5448 74.677 31.614 74.7462 31.7178C75.7839 34.8308 73.9161 38.0129 71.9791 40.4687C71.8062 40.7109 71.4257 40.6417 71.3219 40.3304C71.2527 40.0191 70.8031 39.9499 70.6647 40.2266C70.2843 40.8492 69.6962 41.7485 68.8315 42.4057C68.5894 42.6132 68.2435 42.4403 68.2435 42.129V41.8523C68.2435 41.8523 67.1367 43.1667 66.1682 43.6855C65.8915 43.8239 65.5802 43.6163 65.6494 43.305L65.7531 42.5787C65.7531 42.5787 64.9576 44.2389 63.2281 45.2074C63.1244 45.2766 62.986 45.1728 63.0206 45.0345C63.0898 44.8615 63.1936 44.6194 63.2973 44.3773C63.3319 44.2389 63.1936 44.1351 63.0898 44.2043C62.6056 44.5848 61.7062 45.1728 60.7032 45.3112C60.3919 45.3458 60.1843 44.9653 60.3919 44.7232L60.5302 44.5502C60.5994 44.4464 60.5302 44.3081 60.3919 44.3081C58.6624 44.6886 51.5026 45.9684 43.8584 42.7862C43.5471 42.9937 43.5817 42.7862 43.7547 42.7862Z" fill="url(#paint3_linear_492_580)"/>
<path d="M87.9583 41.8523C86.7477 40.365 83.0121 35.7993 84.8108 31.1644L84.9491 30.7839L84.8453 30.7147L85.1221 30.2996L85.3642 29.6425L85.5025 29.7116L85.6063 29.5387C87.1628 27.2212 90.0337 25.5956 93.2504 25.2151C94.4264 25.0767 95.6025 25.0767 96.8131 25.2151C96.9514 25.2497 97.1244 25.2843 97.3319 25.3189C97.4357 25.3534 97.574 25.388 97.6778 25.388C98.1966 25.4918 98.6463 25.9069 98.7846 26.4257C100.203 26.8062 101.137 27.6363 101.517 28.0514C101.725 28.2935 101.863 28.5702 101.932 28.8815C102.901 29.3657 103.489 29.9883 103.8 30.3342C104.077 30.6455 104.215 31.026 104.18 31.4065C105.045 31.9599 105.633 32.5479 105.91 32.8592C106.221 33.2051 106.36 33.6548 106.256 34.1044C106.775 34.5887 107.224 35.1421 107.709 35.7301C108.642 36.8715 109.68 38.1513 111.825 39.4311C114.488 41.0568 116.217 41.3335 116.978 41.3681C117.67 41.4026 118.258 41.8869 118.396 42.5787C118.535 43.2704 118.154 43.9622 117.497 44.2389C111.133 46.8677 105.114 46.591 101.932 46.1413C101.69 46.591 101.206 46.8677 100.687 46.8677C99.8915 46.9023 99.1651 46.6947 98.5425 46.418C98.0583 46.7985 97.4011 46.8331 96.8822 46.5218C96.2251 46.1413 95.7062 45.7262 95.2912 45.3112C95.0836 45.3458 94.8761 45.3458 94.634 45.2766C93.9422 45.1036 93.285 44.6194 92.697 44.1352C92.2819 44.2389 91.8669 44.1697 91.521 43.9276C90.76 43.4434 90.172 42.8208 89.6878 42.1982C89.6186 42.2328 89.5148 42.2674 89.4457 42.2674C89.0306 42.3711 88.6501 42.2674 88.3042 42.0598C88.1659 42.0598 88.0621 41.9561 87.9583 41.8523ZM90.9676 39.3273C91.0022 39.3965 91.0713 39.5003 91.1405 39.604V38.3588L93.3888 41.0568L92.8008 36.8023C91.9706 36.3873 91.1751 35.9722 90.345 35.5571C89.1689 34.9345 88.0275 34.3119 86.9899 33.7585C86.9899 35.2112 87.6124 36.8369 88.9268 38.7047C89.0998 38.601 89.2727 38.5664 89.4802 38.5318C89.8261 38.4972 90.172 38.5664 90.4487 38.7739C90.6909 38.9122 90.8638 39.0852 90.9676 39.3273ZM98.5079 43.3742C98.6463 43.478 98.8884 43.6509 99.1651 43.8239C99.511 43.3396 100.099 43.1321 100.687 43.2704C101.794 43.5126 106.775 44.481 112.655 43.0629C111.963 42.7516 111.202 42.3365 110.372 41.8523C109.645 41.4026 108.988 40.953 108.435 40.5033L107.881 42.6824C103.004 41.5756 98.335 39.5348 93.873 37.3558L96.1905 42.2328C96.1905 42.2328 96.4326 42.717 96.9168 43.2358C97.4011 42.9937 97.9545 43.0283 98.4042 43.3396C98.4387 43.3396 98.4733 43.3396 98.5079 43.3742ZM105.599 37.4941C104.872 36.6294 104.353 35.9722 103.627 35.5917C103.074 35.2804 102.728 34.6578 102.832 34.0352C102.832 33.9661 102.866 33.8969 102.866 33.8277C102.52 33.5856 102.071 33.3435 101.552 33.1705C100.929 32.963 100.514 32.3404 100.549 31.6486C100.549 31.5103 100.583 31.4065 100.618 31.2681C100.203 31.0606 99.6493 30.8531 98.9922 30.8185L88.996 29.85C88.9268 29.9192 88.8576 29.9883 88.7885 30.0229C91.7285 31.9253 94.6686 33.6548 97.574 35.2112C100.722 36.8715 104.111 38.5664 107.709 39.7078C106.775 38.9468 106.152 38.1859 105.599 37.4941ZM95.4987 27.8784C94.8415 27.8438 94.1843 27.8784 93.5617 27.9476C91.8323 28.1551 90.2066 28.8469 88.996 29.8154L96.0175 28.6394C95.7754 28.4664 95.5679 28.1897 95.4987 27.8784Z" fill="black"/>
<path d="M116.91 42.7862C115.907 42.7516 113.97 42.4057 111.099 40.6417C106.948 38.1167 106.499 35.5571 104.25 34.3811C104.147 34.3119 104.147 34.139 104.285 34.1044L104.804 34.0006C104.907 33.9661 104.977 33.8623 104.873 33.7585C104.492 33.3435 103.524 32.375 101.967 31.8561C101.829 31.8215 101.829 31.614 101.967 31.5794C102.071 31.5448 102.14 31.5448 102.244 31.5103C102.555 31.4411 102.659 31.0952 102.417 30.8877C101.829 30.3688 100.722 29.6079 99.062 29.4349L100.411 29.1928C100.515 29.1582 100.584 29.0544 100.48 28.9507C100.065 28.501 98.8544 27.4634 96.8829 27.5325C96.7445 27.5325 96.6754 27.325 96.8137 27.2558L97.3671 26.9445C97.4709 26.8754 97.4709 26.7024 97.3325 26.6678C97.0558 26.5986 96.7099 26.4949 96.6062 26.4949C95.5339 26.3565 94.4271 26.3565 93.3548 26.4949C90.899 26.8062 88.3049 27.9822 86.8176 30.0229C86.7484 30.1267 86.783 30.2651 86.8867 30.3342C90.1035 32.4441 93.4586 34.4849 96.8483 36.3181C100.48 38.2551 104.181 40.0537 108.159 41.1951C102.106 39.8116 96.4678 37.0445 90.9682 34.2082C89.3771 33.378 87.8206 32.5133 86.2641 31.614C86.1258 31.5448 85.9874 31.614 85.9183 31.7178C84.8806 34.8308 86.7484 38.0129 88.6854 40.4687C88.8583 40.7109 89.2388 40.6417 89.3425 40.3304C89.4117 40.0191 89.8614 39.9499 89.9997 40.2266C90.3802 40.8492 90.9682 41.7485 91.8329 42.4057C92.0751 42.6132 92.4209 42.4403 92.4209 42.129V41.8523C92.4209 41.8523 93.5278 43.1667 94.4963 43.6855C94.773 43.8239 95.0843 43.6163 95.0151 43.305L94.9113 42.5787C94.9113 42.5787 95.7069 44.2389 97.4363 45.2074C97.5401 45.2766 97.6784 45.1728 97.6438 45.0345C97.5747 44.8615 97.4709 44.6194 97.3671 44.3773C97.3325 44.2389 97.4709 44.1351 97.5747 44.2043C98.0589 44.5848 98.9582 45.1728 99.9613 45.3112C100.273 45.3458 100.48 44.9653 100.273 44.7232L100.134 44.5502C100.065 44.4464 100.134 44.3081 100.273 44.3081C102.002 44.6886 109.162 45.9684 116.806 42.7862C117.083 42.9937 117.048 42.7862 116.91 42.7862Z" fill="url(#paint4_linear_492_580)"/>
<path d="M69.766 33.9662C69.2472 33.9662 68.7629 33.7587 68.3824 33.3782C68.3133 33.3091 68.2441 33.2399 68.2095 33.1707C67.3102 33.4474 66.2379 33.6549 65.1657 33.6549C64.6469 33.6549 64.128 33.4128 63.7821 33.0669C62.8482 33.1707 61.8452 33.2053 61.015 32.9286C60.7729 32.8594 60.5308 32.721 60.3233 32.5481C59.5969 32.6865 58.7668 32.7556 57.8329 32.721C57.0719 32.6865 56.4147 32.1676 56.138 31.4759C55.3079 31.3029 54.4086 31.0262 53.613 30.4382C53.0942 30.0577 52.7829 29.4697 52.8175 28.8125C49.2203 27.0831 42.8213 23.2437 38.0827 16.153C37.5639 15.3921 37.6676 14.389 38.2902 13.7318C38.9128 13.0746 39.9159 12.9363 40.6768 13.4205C41.507 13.9393 43.4439 14.8041 47.2833 14.9424C50.3271 15.0808 52.2987 14.4582 54.0281 13.9393C54.8928 13.6626 55.723 13.4205 56.5877 13.2822C56.8298 12.7633 57.2795 12.3828 57.8675 12.2099C58.3517 12.0715 59.3548 11.864 60.6 11.8986C60.8421 11.4835 61.2572 11.1722 61.7414 11.0339C62.2948 10.8955 63.3325 10.688 64.6469 10.8264C64.9236 10.5496 65.2695 10.3421 65.6499 10.2383C66.3417 10.0654 67.8636 9.89245 69.5931 10.4459C70.1119 10.0308 70.8383 9.92704 71.4954 10.1692C71.6338 10.2383 71.7722 10.2729 71.9105 10.3075C72.1526 10.3767 72.3256 10.4459 72.4985 10.5496C73.8475 11.2414 75.0927 12.0715 76.1995 13.0054C79.2779 15.6342 81.1111 19.266 81.1457 22.7595V22.8978H81.3532L81.1457 23.8317V24.5235H80.9728L80.869 24.9386C79.52 30.9916 72.4985 33.1707 70.2157 33.8625C70.1465 33.9317 69.9389 33.9662 69.766 33.9662ZM69.8352 28.7779C70.2848 28.7779 70.6999 28.9163 71.0458 29.2276C71.2187 29.3659 71.3571 29.5389 71.4954 29.7464C73.9858 28.7433 75.6807 27.5673 76.6838 26.1492C75.231 26.0454 73.7437 25.9071 72.118 25.7341C71.0112 25.5958 69.9044 25.492 68.7629 25.3536L65.477 29.0892L69.5931 27.8786L68.7975 29.0892C68.8321 29.0892 68.8321 29.0546 68.8667 29.0546C69.178 28.8817 69.5239 28.7779 69.8352 28.7779ZM58.075 29.1584C58.1096 29.1584 58.1096 29.1584 58.075 29.1584C58.1096 29.1584 58.1096 29.1584 58.075 29.1584ZM58.4901 28.017C59.1473 28.017 59.7698 28.3629 60.1503 28.9509C60.9805 28.7433 61.4993 28.432 61.4993 28.432L67.1718 25.1461C61.1188 24.3506 54.9274 23.2091 49.1511 21.03L50.085 18.4013C49.2203 18.4705 48.2518 18.5051 47.1795 18.4705C46.0727 18.4359 45.1042 18.3321 44.2049 18.1938C49.2549 23.555 54.9274 25.9416 56.2072 26.4259C56.899 26.7026 57.3832 27.3252 57.4524 28.0516C57.8329 28.0862 58.1442 28.0516 58.3517 28.0516C58.4209 28.017 58.4555 28.017 58.4901 28.017ZM51.8144 18.1592C56.1726 19.3698 60.7037 19.9578 64.9582 20.3729C68.9705 20.7533 73.1903 20.9609 77.4793 21.03C77.4793 20.9609 77.4447 20.8917 77.4101 20.8225L66.4455 14.977C65.7537 14.5965 65.0965 14.4236 64.5431 14.3544C64.5085 14.4928 64.4393 14.5965 64.3702 14.7349C63.9205 15.4958 63.0558 15.8763 62.1911 15.6342C61.5685 15.4612 60.9459 15.4267 60.4616 15.4267C60.427 15.4958 60.427 15.565 60.3924 15.5996C60.0466 16.3606 59.251 16.8102 58.4209 16.7064C57.4178 16.6027 56.4493 16.8794 55.135 17.2945C54.1665 17.5712 53.0942 17.9171 51.8144 18.1592ZM71.2187 14.7003L77.2718 20.3729C76.6838 18.678 75.5423 16.9832 73.9858 15.6688C73.3978 15.1845 72.7752 14.7003 72.118 14.3198C71.8413 14.5273 71.5646 14.6311 71.2187 14.7003ZM61.5685 14.8387C61.5685 14.8387 61.5685 14.8732 61.5685 14.8387C61.5685 14.8732 61.5685 14.8387 61.5685 14.8387Z" fill="black"/>
<path d="M39.7766 14.9079C40.8142 15.5651 43.0625 16.5335 47.2477 16.7065C53.2662 16.9486 55.4799 14.5966 58.5928 14.9425C58.7658 14.9771 58.8696 14.7695 58.7312 14.6312L58.247 14.1815C58.1432 14.0777 58.1778 13.9048 58.3161 13.8702C58.9733 13.6973 60.6682 13.3514 62.6051 13.8702C62.7781 13.9048 62.9164 13.6973 62.7781 13.5935C62.7089 13.5243 62.6051 13.4206 62.536 13.3514C62.2593 13.0747 62.3976 12.625 62.7781 12.5904C63.7466 12.4521 65.4068 12.4175 67.24 13.386L65.9948 12.21C65.8911 12.1062 65.9257 11.9332 66.064 11.8987C66.7904 11.7257 68.7619 11.4836 70.7681 12.9017C70.9064 13.0055 71.114 12.8326 71.0102 12.6596L70.6297 11.9678C70.5606 11.8295 70.6989 11.6565 70.8373 11.7257C71.1832 11.8641 71.5636 11.9678 71.702 12.037C72.9126 12.6596 74.0194 13.386 75.0571 14.2507C77.4091 16.2568 79.2423 19.2661 79.3807 22.4136C79.3807 22.5866 79.2423 22.6904 79.104 22.6904C74.2961 22.6558 69.4883 22.4482 64.7151 22.0332C59.6651 21.5489 54.5805 20.8571 49.7035 19.3007C56.898 22.0332 64.6113 23.0362 72.2554 23.901C74.4691 24.1431 76.6482 24.316 78.8965 24.4544C79.0694 24.4544 79.2078 24.6273 79.1386 24.8003C78.0663 28.7434 73.9848 30.7495 70.2838 31.9256C69.938 32.0293 69.5921 31.718 69.6958 31.3375C69.8342 30.9571 69.4191 30.6112 69.0732 30.7841C68.2431 31.1992 66.9979 31.6834 65.6835 31.7872C65.3031 31.8218 65.0609 31.4067 65.2685 31.0954L65.4414 30.8187C65.4414 30.8187 63.4007 31.4067 62.0171 31.2684C61.6367 31.2338 61.4983 30.7841 61.7404 30.5074L62.3284 29.8502C62.3284 29.8502 60.3915 31.0262 57.9011 30.8533C57.7281 30.8533 57.6589 30.6112 57.7973 30.542C58.0048 30.4036 58.2815 30.2307 58.5237 30.0232C58.662 29.9194 58.5928 29.6773 58.4199 29.7119C57.6589 29.781 56.3446 29.781 55.2031 29.2276C54.8227 29.0547 54.8918 28.5013 55.2723 28.3975L55.5144 28.3283C55.6874 28.2937 55.6874 28.0516 55.5144 28.017C53.4391 27.2215 45.207 23.6242 39.4653 15.1154C39.4307 14.9771 39.6382 14.8041 39.7766 14.9079Z" fill="url(#paint5_linear_492_580)"/>
<path d="M91.1758 33.9663C90.9683 33.9663 90.7953 33.9317 90.5878 33.8971C88.3049 33.2054 81.2834 31.0263 79.9344 24.9732L79.8307 24.5582H79.6577V23.8664L79.4502 22.9325H79.6577V22.7941C79.6923 19.3007 81.5255 15.6343 84.6039 13.0401C85.7108 12.1062 86.956 11.2761 88.3049 10.5843C88.4779 10.4805 88.6508 10.446 88.8929 10.3422C89.0313 10.3076 89.1696 10.2384 89.308 10.2038C89.9652 9.96171 90.6915 10.0655 91.2104 10.4805C92.9398 9.92712 94.4617 10.1347 95.1535 10.273C95.5686 10.3768 95.9145 10.5843 96.1566 10.861C97.471 10.7227 98.5086 10.9302 99.062 11.0686C99.5463 11.2069 99.9613 11.5182 100.203 11.9333C101.483 11.9333 102.452 12.1408 102.936 12.2446C103.489 12.3829 103.974 12.798 104.216 13.3168C105.08 13.4552 105.911 13.7319 106.775 13.974C108.505 14.5274 110.476 15.1154 113.52 14.9771C117.359 14.8041 119.331 13.9394 120.127 13.4552C120.922 12.9709 121.891 13.1093 122.513 13.7665C123.136 14.4237 123.24 15.4267 122.721 16.1877C117.948 23.2784 111.583 27.1177 107.986 28.8472C107.986 29.4698 107.709 30.0924 107.19 30.4728C106.395 31.0263 105.496 31.3376 104.665 31.5105C104.389 32.2369 103.732 32.7211 102.971 32.7557C102.071 32.8249 101.241 32.7557 100.515 32.5828C100.307 32.7557 100.1 32.8941 99.823 32.9978C98.9929 33.2745 97.9898 33.2399 97.0559 33.1362C96.71 33.5167 96.1912 33.7242 95.6723 33.7242C95.6377 33.7242 95.6377 33.7242 95.6032 33.7242C94.5309 33.7242 93.5278 33.5167 92.6285 33.2054C92.5593 33.2745 92.5248 33.3437 92.4556 33.4129C92.1789 33.7588 91.6946 33.9663 91.1758 33.9663ZM105.668 30.3345C105.668 30.3345 105.703 30.3345 105.668 30.3345V30.3345ZM84.258 26.1493C85.2611 27.5674 86.956 28.7434 89.4463 29.7465C89.5501 29.5735 89.6885 29.4006 89.896 29.2277C90.5186 28.7088 91.3833 28.6396 92.0751 29.0547C92.1097 29.0547 92.1097 29.0893 92.1443 29.0893L91.3487 27.8787L95.4648 29.0893L92.1789 25.3537C91.072 25.4921 89.9652 25.6304 88.8583 25.7342C87.1981 25.8725 85.6762 26.0109 84.258 26.1493ZM93.9083 25.1116L99.4425 28.4321C99.4425 28.4321 99.9613 28.7434 100.791 28.9509C101.172 28.3629 101.864 27.9825 102.59 28.0516C102.798 28.0516 103.109 28.0862 103.489 28.0516C103.559 27.3253 104.043 26.7027 104.735 26.426C106.014 25.9417 111.722 23.5205 116.737 18.1938C115.872 18.3322 114.869 18.436 113.762 18.4705C112.69 18.5051 111.756 18.4705 110.857 18.4014L111.791 21.0301C106.049 23.2092 99.8922 24.316 93.9083 25.1116ZM83.5317 20.788C83.4971 20.8572 83.4971 20.9263 83.4625 20.9955C87.7515 20.9263 91.9713 20.7188 95.9836 20.3383C100.238 19.9233 104.769 19.3699 109.127 18.1247C107.848 17.8825 106.775 17.5712 105.807 17.2599C104.492 16.8449 103.524 16.5682 102.521 16.6719C101.691 16.7757 100.895 16.326 100.549 15.5651C100.515 15.4959 100.48 15.4613 100.48 15.3921C99.9613 15.3921 99.3733 15.4267 98.7507 15.5997C97.9206 15.8072 97.0213 15.4613 96.5716 14.7004C96.5025 14.562 96.4333 14.4582 96.3987 14.3199C95.8453 14.3891 95.1881 14.5966 94.4963 14.9425L83.5317 20.788ZM88.8238 14.2853C88.1666 14.7004 87.544 15.15 86.956 15.6343C85.3995 16.9486 84.258 18.6435 83.67 20.3383L89.6885 14.7004C89.3772 14.6312 89.0659 14.5274 88.8238 14.2853Z" fill="black"/>
<path d="M121.165 14.9079C120.127 15.5651 117.879 16.5335 113.694 16.7065C107.675 16.9486 105.461 14.5966 102.348 14.9425C102.175 14.9771 102.072 14.7695 102.21 14.6312L102.694 14.1815C102.798 14.0777 102.763 13.9048 102.625 13.8702C101.968 13.6973 100.273 13.3514 98.3361 13.8702C98.1632 13.9048 98.0248 13.6973 98.1632 13.5935C98.2323 13.5243 98.3361 13.4206 98.4053 13.3514C98.682 13.0747 98.5436 12.625 98.1632 12.5904C97.1947 12.4521 95.5344 12.4175 93.7012 13.386L94.9464 12.21C95.0502 12.1062 95.0156 11.9332 94.8772 11.8987C94.1509 11.7257 92.1793 11.4836 90.1731 12.9017C90.0348 13.0055 89.8273 12.8326 89.931 12.6596L90.3115 11.9678C90.3807 11.8295 90.2423 11.6565 90.104 11.7257C89.7581 11.8641 89.3776 11.9678 89.2393 12.037C88.0287 12.6596 86.9218 13.386 85.8841 14.2507C83.5321 16.2568 81.6989 19.2661 81.5605 22.4136C81.5605 22.5866 81.6989 22.6904 81.8373 22.6904C86.6451 22.6558 91.4529 22.4482 96.2262 22.0332C101.276 21.5489 106.361 20.8571 111.238 19.3007C104.043 22.0332 96.33 23.0362 88.6858 23.901C86.4722 24.1431 84.2931 24.316 82.0448 24.4544C81.8718 24.4544 81.7335 24.6273 81.8027 24.8003C82.8749 28.7434 86.9564 30.7495 90.6574 31.9256C91.0033 32.0293 91.3492 31.718 91.2454 31.3375C91.107 30.9571 91.5221 30.6112 91.868 30.7841C92.6981 31.1992 93.9433 31.6834 95.2577 31.7872C95.6382 31.8218 95.8803 31.4067 95.6728 31.0954L95.4998 30.8187C95.4998 30.8187 97.5406 31.4067 98.9241 31.2684C99.3046 31.2338 99.4429 30.7841 99.2008 30.5074L98.6128 29.8502C98.6128 29.8502 100.55 31.0262 103.04 30.8533C103.213 30.8533 103.282 30.6112 103.144 30.542C102.936 30.4036 102.66 30.2307 102.418 30.0232C102.279 29.9194 102.348 29.6773 102.521 29.7119C103.282 29.781 104.597 29.781 105.738 29.2276C106.119 29.0547 106.049 28.5013 105.669 28.3975L105.427 28.3283C105.254 28.2937 105.254 28.0516 105.427 28.017C107.502 27.2215 115.734 23.6242 121.476 15.1154C121.476 14.9771 121.303 14.8041 121.165 14.9079Z" fill="url(#paint6_linear_492_580)"/>
<path d="M75.4032 42.3022C76.5792 42.9248 81.0412 44.8963 85.9182 42.3022C86.0911 42.1984 86.1603 41.9909 86.0565 41.8179C85.2264 40.469 83.0473 34.8656 81.0758 29.5043C80.9374 29.193 80.5223 29.1238 80.4186 29.4351C79.4847 32.2022 76.9251 38.0477 75.2648 41.8179C75.1957 41.9909 75.2303 42.1984 75.4032 42.3022Z" fill="url(#paint7_linear_492_580)"/>
<path d="M17.7786 84.2927C17.7786 87.4057 15.2536 89.9652 12.1061 89.9652H0V72.2212H11.1722C13.8009 72.2212 15.98 74.3657 15.98 77.029C15.98 77.9975 15.7033 78.8968 15.2191 79.6232C16.7756 80.5917 17.7786 82.3211 17.7786 84.2927ZM3.21676 78.6201H11.2414C12.1407 78.6201 12.867 77.8938 12.867 76.9944C12.867 76.0951 12.1407 75.3688 11.2414 75.3688H3.21676V78.6201ZM12.1407 86.7485C13.5242 86.7485 14.6311 85.6416 14.6311 84.2581C14.6311 82.8745 13.5242 81.7677 12.1407 81.7677H3.21676V86.7485H12.1407Z" fill="black"/>
<path d="M22.8629 76.9944V78.6547H34.2772V81.8369H22.8629V85.192C22.8629 86.0913 23.5893 86.8177 24.4886 86.8177H37.4594V89.9998H24.4886C21.8598 89.9998 19.7153 87.8553 19.7153 85.192V77.029C19.7153 74.4003 21.8598 72.2212 24.4886 72.2212H37.4594V75.4034H24.4886C23.5893 75.3688 22.8629 76.0951 22.8629 76.9944Z" fill="black"/>
<path d="M57.0715 89.9652H53.5089L51.8832 86.783L48.0093 79.1735L44.1353 86.783L42.5097 89.9652H38.947L40.5727 86.783L48.0093 72.1865L55.4459 86.783L57.0715 89.9652Z" fill="black"/>
<path d="M74.4007 72.2212V81.1105C74.4007 86.0221 70.423 89.9998 65.5114 89.9998C60.5998 89.9998 56.6221 86.0221 56.6221 81.1105V72.2212H59.8042V81.1105C59.8042 84.2581 62.3638 86.8177 65.5114 86.8177C68.659 86.8177 71.2185 84.2581 71.2185 81.1105V72.2212H74.4007Z" fill="black"/>
<path d="M94.6694 72.2212V75.4034H87.4058V89.9998H84.2236V75.4034H76.96V72.2212H94.6694Z" fill="black"/>
<path d="M97.2627 89.9652V72.2212H100.445V89.9652H97.2627Z" fill="black"/>
<path d="M120.715 84.2927C120.715 87.4057 118.19 89.9652 115.042 89.9652H102.936V72.2212H114.108C116.737 72.2212 118.916 74.3657 118.916 77.029C118.916 77.9975 118.639 78.8968 118.155 79.6232C119.712 80.5917 120.715 82.3211 120.715 84.2927ZM106.118 78.6201H114.143C115.042 78.6201 115.768 77.8938 115.768 76.9944C115.768 76.0951 115.042 75.3688 114.143 75.3688H106.118V78.6201ZM115.042 86.7485C116.426 86.7485 117.533 85.6416 117.533 84.2581C117.533 82.8745 116.426 81.7677 115.042 81.7677H106.118V86.7485H115.042Z" fill="url(#paint8_linear_492_580)"/>
<path d="M125.8 76.9944V78.6547H137.215V81.8369H125.8V85.192C125.8 86.0913 126.527 86.8177 127.426 86.8177H140.397V89.9998H127.426C124.797 89.9998 122.653 87.8553 122.653 85.192V77.029C122.653 74.4003 124.797 72.2212 127.426 72.2212H140.397V75.4034H127.426C126.527 75.3688 125.8 76.0951 125.8 76.9944Z" fill="url(#paint9_linear_492_580)"/>
<path d="M146.068 76.9944V78.6547H157.483V81.8369H146.068V85.192C146.068 86.0913 146.795 86.8177 147.694 86.8177H160.665V89.9998H147.694C145.065 89.9998 142.921 87.8553 142.921 85.192V77.029C142.921 74.4003 145.065 72.2212 147.694 72.2212H160.665V75.4034H147.694C146.829 75.3688 146.068 76.0951 146.068 76.9944Z" fill="url(#paint10_linear_492_580)"/>
<defs>
<linearGradient id="paint0_linear_492_580" x1="71.1573" y1="47.7994" x2="90.6286" y2="47.7994" gradientUnits="userSpaceOnUse">
<stop offset="0.0022147" stop-color="#F4BC00"/>
<stop offset="1" stop-color="#F2A100"/>
</linearGradient>
<linearGradient id="paint1_linear_492_580" x1="75.9981" y1="55.1932" x2="85.7852" y2="55.1932" gradientUnits="userSpaceOnUse">
<stop offset="0.0022147" stop-color="#F4BC00"/>
<stop offset="1" stop-color="#F2A100"/>
</linearGradient>
<linearGradient id="paint2_linear_492_580" x1="81.4123" y1="9.04309" x2="80.67" y2="16.8369" gradientUnits="userSpaceOnUse">
<stop offset="0.0022147" stop-color="#F4BC00"/>
<stop offset="1" stop-color="#F2A100"/>
</linearGradient>
<linearGradient id="paint3_linear_492_580" x1="66.3839" y1="34.5068" x2="55.4718" y2="41.6234" gradientUnits="userSpaceOnUse">
<stop offset="0.0022147" stop-color="#F4BC00"/>
<stop offset="1" stop-color="#F2A100"/>
</linearGradient>
<linearGradient id="paint4_linear_492_580" x1="95.3909" y1="32.1035" x2="107.608" y2="47.8786" gradientUnits="userSpaceOnUse">
<stop offset="0.0022147" stop-color="#F4BC00"/>
<stop offset="1" stop-color="#F2A100"/>
</linearGradient>
<linearGradient id="paint5_linear_492_580" x1="54.9872" y1="21.3311" x2="70.9995" y2="21.9241" gradientUnits="userSpaceOnUse">
<stop offset="0.0022147" stop-color="#F4BC00"/>
<stop offset="1" stop-color="#F2A100"/>
</linearGradient>
<linearGradient id="paint6_linear_492_580" x1="87.1056" y1="21.954" x2="109.404" y2="21.5981" gradientUnits="userSpaceOnUse">
<stop offset="0.0022147" stop-color="#F4BC00"/>
<stop offset="1" stop-color="#F2A100"/>
</linearGradient>
<linearGradient id="paint7_linear_492_580" x1="75.2423" y1="36.4184" x2="86.1111" y2="36.4184" gradientUnits="userSpaceOnUse">
<stop offset="0.0022147" stop-color="#F4BC00"/>
<stop offset="1" stop-color="#F2A100"/>
</linearGradient>
<linearGradient id="paint8_linear_492_580" x1="171.053" y1="81.0836" x2="97.0404" y2="81.0836" gradientUnits="userSpaceOnUse">
<stop offset="0.0022147" stop-color="#F4BC00"/>
<stop offset="1" stop-color="#F2A100"/>
</linearGradient>
<linearGradient id="paint9_linear_492_580" x1="171.055" y1="81.0836" x2="97.0416" y2="81.0836" gradientUnits="userSpaceOnUse">
<stop offset="0.0022147" stop-color="#F4BC00"/>
<stop offset="1" stop-color="#F2A100"/>
</linearGradient>
<linearGradient id="paint10_linear_492_580" x1="171.053" y1="81.0836" x2="97.0404" y2="81.0836" gradientUnits="userSpaceOnUse">
<stop offset="0.0022147" stop-color="#F4BC00"/>
<stop offset="1" stop-color="#F2A100"/>
</linearGradient>
</defs>
</svg>
