<svg width="24" height="22" viewBox="0 0 24 22" fill="none" xmlns="http://www.w3.org/2000/svg">
<path d="M21.4246 1.38079C20.2382 0.464623 18.9291 0 17.5335 0C15.7726 0 13.8706 0.761289 12 2.20895C10.1294 0.761289 8.22736 0 6.4665 0C5.07092 0 3.76178 0.464623 2.5754 1.38079C0.839598 2.72143 -0.0265372 4.4132 0.000619257 6.40901C0.0940108 13.2433 11.0501 21.3075 11.5164 21.6474L12 22L12.4836 21.6474C12.95 21.3075 23.9061 13.2433 23.9994 6.40901C24.0265 4.4132 23.1604 2.72143 21.4246 1.38079ZM16.9819 15.5079C14.9535 17.5744 12.9068 19.2191 12 19.9197C11.0932 19.2191 9.04646 17.5745 7.01812 15.5079C3.5431 11.9675 1.68906 8.81275 1.65639 6.38485C1.63674 4.9297 2.26586 3.72918 3.57953 2.71461C4.47072 2.02623 5.44206 1.67723 6.4665 1.67723C8.40531 1.67723 10.2571 2.90012 11.4691 3.92598L12 4.37529L12.5309 3.92598C13.7429 2.90012 15.5947 1.67723 17.5335 1.67723C18.5579 1.67723 19.5293 2.02623 20.4205 2.71461C21.7341 3.72918 22.3633 4.9297 22.3436 6.38485C22.3109 8.81286 20.4568 11.9675 16.9819 15.5079Z" fill="#F2A100"/>
</svg>
