<svg width="17" height="14" viewBox="0 0 17 14" fill="none" xmlns="http://www.w3.org/2000/svg">
<path d="M0 4.2532V11.2C0 11.9426 0.294999 12.6548 0.820101 13.1799C1.3452 13.705 2.05739 14 2.8 14H14C14.7426 14 15.4548 13.705 15.9799 13.1799C16.505 12.6548 16.8 11.9426 16.8 11.2V2.8C16.8 2.05739 16.505 1.3452 15.9799 0.820101C15.4548 0.294999 14.7426 0 14 0H2.8C2.05739 0 1.3452 0.294999 0.820101 0.820101C0.294999 1.3452 0 2.05739 0 2.8V4.2532ZM2.8 1.4H14C14.3713 1.4 14.7274 1.5475 14.9899 1.81005C15.2525 2.0726 15.4 2.4287 15.4 2.8V3.836L8.4 7.6048L1.4 3.836V2.8C1.4 2.4287 1.5475 2.0726 1.81005 1.81005C2.0726 1.5475 2.4287 1.4 2.8 1.4ZM1.4 5.4264L8.0682 9.016C8.17018 9.0709 8.28418 9.09963 8.4 9.09963C8.51582 9.09963 8.62982 9.0709 8.7318 9.016L15.4 5.4264V11.2C15.4 11.5713 15.2525 11.9274 14.9899 12.1899C14.7274 12.4525 14.3713 12.6 14 12.6H2.8C2.4287 12.6 2.0726 12.4525 1.81005 12.1899C1.5475 11.9274 1.4 11.5713 1.4 11.2V5.4264Z" fill="#F4BC00"/>
</svg>
