<svg width="20" height="18" viewBox="0 0 20 18" fill="none" xmlns="http://www.w3.org/2000/svg">
<path d="M18 0H2C1.46957 0 0.960859 0.210714 0.585786 0.585786C0.210714 0.960859 0 1.46957 0 2V4C0.00210674 4.34903 0.0955176 4.69143 0.270949 4.99317C0.446381 5.29491 0.697724 5.54549 1 5.72V16C1 16.5304 1.21071 17.0391 1.58579 17.4142C1.96086 17.7893 2.46957 18 3 18H17C17.5304 18 18.0391 17.7893 18.4142 17.4142C18.7893 17.0391 19 16.5304 19 16V5.72C19.3023 5.54549 19.5536 5.29491 19.7291 4.99317C19.9045 4.69143 19.9979 4.34903 20 4V2C20 1.46957 19.7893 0.960859 19.4142 0.585786C19.0391 0.210714 18.5304 0 18 0ZM2 2H18V4H2V2ZM3 16V6H17V16H3Z" fill="#F2A100"/>
<path d="M6 8H14V10H6V8Z" fill="#F2A100"/>
</svg>
