<svg width="27" height="24" viewBox="0 0 27 24" fill="none" xmlns="http://www.w3.org/2000/svg">
<path d="M13.281 0C9.981 0 7.281 2.7 7.281 6C7.281 7.008 7.527 7.945 7.969 8.781C6.144 8.336 3.921 8 1.281 8H0L3.5 22H4.281C7.687 22 9.781 22.488 11 22.938C11.61 23.164 11.996 23.387 12.219 23.531C12.441 23.676 12.469 23.688 12.469 23.688L12.749 24H13.812L14.094 23.687C14.094 23.687 14.121 23.676 14.344 23.531C14.7268 23.2889 15.1353 23.09 15.562 22.938C16.781 22.488 18.875 22 22.281 22H23.062L26.562 8H25.281C22.652 8 20.433 8.316 18.625 8.75C19.0629 7.8999 19.288 6.95624 19.281 6C19.281 2.7 16.581 0 13.281 0ZM13.281 2C15.504 2 17.281 3.777 17.281 6C17.281 8.223 15.504 10 13.281 10C11.058 10 9.281 8.223 9.281 6C9.281 3.777 11.058 2 13.281 2ZM2.593 10.125C5.703 10.277 8.242 10.816 9.906 11.438C11.246 11.938 11.906 12.324 12.281 12.562V21.312C12.101 21.23 11.937 21.145 11.718 21.062C10.367 20.562 8.148 20.141 5.062 20.062L2.593 10.125ZM23.968 10.125L21.5 20.063C18.414 20.141 16.195 20.563 14.843 21.063C14.625 21.145 14.461 21.23 14.281 21.313V12.563C14.656 12.32 15.312 11.93 16.625 11.438C18.277 10.816 20.82 10.278 23.968 10.125Z" fill="#F2A100"/>
</svg>
