<svg width="29" height="26" viewBox="0 0 29 26" fill="none" xmlns="http://www.w3.org/2000/svg">
<path d="M26.3923 0.613037H13.9475C12.5097 0.613037 11.3398 1.78289 11.3398 3.22073V11.2039L9.02909 10.0548C8.95107 10.0159 8.87176 9.9792 8.79179 9.94441C9.47019 9.23618 9.88838 8.27662 9.88838 7.22087C9.88838 5.0478 8.12053 3.27973 5.94745 3.27973C3.77416 3.27973 2.00631 5.0478 2.00631 7.22087C2.00631 8.40175 2.5291 9.46246 3.35467 10.1854C1.83428 11.0408 0.672852 12.7094 0.672852 14.7766V17.4433C0.672852 18.5913 1.41825 19.5684 2.45065 19.9157V24.5547C2.45065 25.0129 2.82215 25.3846 3.28054 25.3846H8.61393C9.07232 25.3846 9.44382 25.0129 9.44382 24.5547V15.2302L12.1008 16.5585C13.1176 17.0668 14.4969 16.7638 15.1206 15.6065H18.0961L14.9453 24.2709C14.7887 24.7017 15.0111 25.178 15.4418 25.3345C15.9341 25.5136 16.372 25.2048 16.5053 24.8382L19.8623 15.6065H20.4441L23.8354 24.8408C23.9642 25.1912 24.3988 25.5179 24.9007 25.3336C25.3307 25.1756 25.5516 24.6988 25.3934 24.2686L22.2121 15.6065H26.3923C27.8023 15.6065 29 14.4691 29 12.9988V3.22073C29 1.75026 27.8023 0.613037 26.3923 0.613037ZM3.6661 7.22087C3.6661 5.96285 4.68942 4.93952 5.94724 4.93952C7.20526 4.93952 8.22859 5.96285 8.22859 7.22087C8.22859 8.47869 7.20526 9.50201 5.94724 9.50201C4.68942 9.50201 3.6661 8.47869 3.6661 7.22087ZM13.7022 14.7191C13.7001 14.7252 13.6979 14.7314 13.696 14.7377C13.6393 14.8957 13.5114 15.0288 13.3547 15.0932C13.189 15.1607 13.0024 15.1535 12.8432 15.074C11.2651 14.2845 8.98479 13.1453 8.98479 13.1453C8.43412 12.87 7.78403 13.2711 7.78403 13.8877V23.7248H4.11044V19.2211C4.11044 18.7629 3.73872 18.3912 3.28054 18.3912C2.75775 18.3912 2.33265 17.9661 2.33265 17.4433V14.7766C2.33265 12.7488 3.98379 11.162 5.94724 11.162H6.68053C7.23682 11.162 7.79246 11.2926 8.28888 11.5404C8.28888 11.5404 12.4053 13.5875 13.4537 14.1097C13.6782 14.2212 13.785 14.4831 13.7022 14.7191ZM27.3402 12.9988C27.3402 13.2523 27.2419 13.4903 27.0629 13.6692C26.8868 13.8456 26.6424 13.9467 26.3923 13.9467H15.3011C15.2996 13.9422 15.2985 13.9376 15.297 13.9333L17.3566 9.8143C17.5615 9.40432 17.3955 8.90595 16.9855 8.70086C16.5758 8.49598 16.0772 8.66196 15.8721 9.07193L14.1155 12.5849C13.788 12.4218 13.4074 12.2322 12.9996 12.0295V3.22073C12.9996 2.69815 13.4247 2.27283 13.9475 2.27283H26.3923C26.6424 2.27283 26.8868 2.37397 27.0631 2.55076C27.2419 2.72927 27.3402 2.96722 27.3402 3.22073V12.9988Z" fill="#F2A100"/>
<path d="M24.6146 4.16846H15.7254C15.267 4.16846 14.8955 4.53997 14.8955 4.99835C14.8955 5.45674 15.267 5.82825 15.7254 5.82825H24.6146C25.0728 5.82825 25.4445 5.45674 25.4445 4.99835C25.4445 4.53997 25.073 4.16846 24.6146 4.16846Z" fill="#F2A100"/>
<path d="M24.6144 7.28027H20.1697C19.7116 7.28027 19.3398 7.65178 19.3398 8.11017C19.3398 8.56856 19.7116 8.94007 20.1697 8.94007H24.6144C25.0726 8.94007 25.4443 8.56856 25.4443 8.11017C25.4443 7.65178 25.0728 7.28027 24.6144 7.28027Z" fill="#F2A100"/>
<path d="M24.6144 10.3911H20.1697C19.7116 10.3911 19.3398 10.7626 19.3398 11.221C19.3398 11.6792 19.7116 12.0509 20.1697 12.0509H24.6144C25.0726 12.0509 25.4443 11.6792 25.4443 11.221C25.4443 10.7626 25.0728 10.3911 24.6144 10.3911Z" fill="#F2A100"/>
</svg>
