<svg width="24" height="26" viewBox="0 0 24 26" fill="none" xmlns="http://www.w3.org/2000/svg">
<path d="M19.5408 12.5351L19.5408 12.535C19.7017 11.573 20.5258 10.875 21.5 10.875C21.7069 10.875 21.875 10.7068 21.875 10.5C21.875 10.2932 21.7068 10.125 21.5 10.125C20.1579 10.125 19.0229 11.0866 18.801 12.4116L19.5408 12.5351ZM19.5408 12.5351L19.0789 15.3074C18.9264 16.2162 18.1487 16.875 17.2295 16.875H6.7705C5.85116 16.875 5.0736 16.2166 4.92113 15.3089L4.45926 12.5337L4.45923 12.5336C4.29825 11.573 3.47369 10.875 2.5 10.875C2.29317 10.875 2.12498 10.7069 2.12498 10.5C2.12498 10.2932 2.29314 10.125 2.5 10.125C3.84223 10.125 4.97711 11.0862 5.19897 12.4103L5.66085 15.187L5.66094 15.1876C5.75372 15.7303 6.22015 16.125 6.7705 16.125H17.2295C17.78 16.125 18.2469 15.7296 18.3391 15.1844L18.3391 15.1841L18.801 12.4117L19.5408 12.5351ZM12.9705 20.9231L12.6907 18.125H17.2295C18.7614 18.125 20.0581 17.0265 20.3118 15.5133L20.3118 15.5132L20.7737 12.7408C20.8335 12.3834 21.1389 12.1249 21.5 12.1249C22.3962 12.1249 23.125 11.3961 23.125 10.4999C23.125 9.60382 22.3962 8.87502 21.5 8.87502C20.6009 8.87502 19.766 9.17218 19.0946 9.68025C18.94 8.66056 18.0634 7.87503 17 7.87503H12.625V7.125H15C16.1721 7.125 17.125 6.17208 17.125 4.99998V3.00002C17.125 1.82792 16.1721 0.875 15 0.875H9.00001C7.82797 0.875 6.875 1.82792 6.875 3.00002V5.00003C6.875 6.17209 7.82797 7.125 9.00001 7.125H11.375V7.87498H7C5.93674 7.87498 5.06012 8.66047 4.90548 9.67995C4.23399 9.17206 3.39915 8.87497 2.5 8.87497C1.60381 8.87497 0.875 9.60378 0.875 10.5C0.875 11.3962 1.60381 12.125 2.5 12.125C2.86128 12.125 3.1666 12.3836 3.22633 12.7394L3.68821 15.5151L3.68824 15.5153C3.94199 17.0271 5.23868 18.125 6.7705 18.125H11.3093L11.0295 20.9231C9.99525 20.996 8.98717 21.1866 8.22545 21.5069C7.44745 21.834 6.875 22.3206 6.875 23C6.875 23.3877 7.05936 23.7161 7.35909 23.9852C7.65682 24.2525 8.07319 24.4664 8.55607 24.6334C9.5225 24.9677 10.7874 25.125 12 25.125C13.2126 25.125 14.4775 24.9677 15.444 24.6334C15.9268 24.4664 16.3432 24.2525 16.6409 23.9852C16.9407 23.7161 17.125 23.3877 17.125 23C17.125 22.3206 16.5526 21.834 15.7746 21.5069C15.0129 21.1866 14.0048 20.996 12.9705 20.9231ZM17.5681 12.2059L17.5681 12.206L17.1236 14.875L6.87641 14.8755L6.4319 12.2046L6.43187 12.2045C6.37374 11.8575 6.26061 11.5373 6.12502 11.2355V10C6.12502 9.51779 6.51778 9.12502 7 9.12502H17C17.4822 9.12502 17.875 9.51779 17.875 10V11.2365C17.7393 11.5385 17.6262 11.8588 17.5681 12.2059ZM9.00001 5.87502C8.5178 5.87502 8.12503 5.48225 8.12503 5.00003V3.00002C8.12503 2.5178 8.5178 2.12503 9.00001 2.12503H15C15.4822 2.12503 15.875 2.5178 15.875 3.00002V5.00003C15.875 5.48225 15.4822 5.87502 15 5.87502H9.00001ZM12.9633 22.9194C13.0817 22.7887 13.1396 22.6136 13.1219 22.4377L13.0968 22.1867C14.05 22.2704 14.7496 22.4496 15.2132 22.6297C15.4574 22.7245 15.6332 22.8185 15.7455 22.8968C15.802 22.9362 15.8389 22.9693 15.8604 22.9938C15.8634 22.9974 15.866 23.0005 15.8681 23.0032C15.8636 23.0097 15.8564 23.0188 15.8452 23.0305C15.8123 23.0651 15.7579 23.1088 15.678 23.1585C15.5191 23.2574 15.2751 23.3705 14.9456 23.4774C14.2877 23.6907 13.3009 23.875 12 23.875C10.6991 23.875 9.71234 23.6907 9.0544 23.4774C8.7249 23.3705 8.48092 23.2574 8.32201 23.1585C8.24218 23.1088 8.18769 23.0651 8.1548 23.0305C8.14363 23.0188 8.13646 23.0097 8.1319 23.0032C8.13402 23.0005 8.13658 22.9974 8.13968 22.9938C8.16109 22.9693 8.19807 22.9362 8.25454 22.8968C8.36685 22.8184 8.54267 22.7245 8.78681 22.6296C9.25039 22.4496 9.95 22.2703 10.9032 22.1867L10.8781 22.4377C10.8604 22.6135 10.9184 22.7886 11.0366 22.9192C11.1552 23.0506 11.3237 23.125 11.5 23.125H12.5C12.6762 23.125 12.8447 23.0507 12.9633 22.9194Z" fill="#F2A100" stroke="#F2A100" stroke-width="0.25"/>
</svg>
