<svg width="26" height="26" viewBox="0 0 26 26" fill="none" xmlns="http://www.w3.org/2000/svg">
<path d="M19.1643 14.623L17.0969 17.609L17.0968 17.6092C16.9691 17.7932 16.7613 17.8977 16.5455 17.8977C16.479 17.8977 16.4118 17.888 16.3454 17.8672C16.3454 17.8672 16.3453 17.8672 16.3453 17.8672L16.3827 17.7479C16.155 17.6767 16 17.4659 16 17.2273L19.1643 14.623ZM19.1643 14.623L20.5199 15.5911L20.5199 15.5912C20.7242 15.7368 20.9929 15.7568 21.2161 15.6415C21.4392 15.5268 21.5796 15.2965 21.5796 15.0454V9.45976L23.7842 8.35748V18.3126L13.6705 23.3697V13.4143L15.875 12.312L19.1643 14.623ZM24.7547 6.673L24.7546 6.67296L13.3 0.945674L13.2999 0.945634C13.1113 0.851471 12.8888 0.851426 12.7003 0.945674L1.24574 6.67296C1.01851 6.78658 0.875 7.01857 0.875 7.27268V18.7273C0.875 18.9813 1.01848 19.2133 1.2454 19.3269L1.24546 19.327L12.7 25.0543C12.7946 25.1015 12.8972 25.125 13 25.125C13.1028 25.125 13.2055 25.1015 13.3 25.0543L24.7546 19.327L24.7547 19.3269C24.9816 19.2133 25.1251 18.9813 25.1251 18.7273V7.27268C25.1251 7.01859 24.9816 6.78662 24.7547 6.673ZM18.885 13.0211L18.8845 13.0211C18.7081 13.0523 18.551 13.1524 18.4487 13.2999L18.4486 13.3L17.216 15.081V11.6416L20.2387 10.1302V13.7425L19.3897 13.1361C19.3896 13.1361 19.3896 13.1361 19.3896 13.1361C19.2436 13.0317 19.0614 12.9906 18.885 13.0211ZM21.0455 8.22765L11.0903 3.24993L13 2.29496L22.9555 7.27268L21.0455 8.22765ZM16.6819 10.4095L6.72643 5.43176L9.59093 3.99951L19.5464 8.97723L16.6819 10.4095ZM3.04461 7.27268L5.22728 6.18134L15.1825 11.1591L13 12.2504L3.04461 7.27268ZM2.21591 18.3126V8.35748L12.3296 13.4143V23.3695L2.21591 18.3126Z" fill="#F2A100" stroke="#F2A100" stroke-width="0.25"/>
</svg>
