<svg width="10" height="12" viewBox="0 0 10 12" fill="none" xmlns="http://www.w3.org/2000/svg">
<path d="M1.67579 0.279531L2.37267 0.0699289C2.75443 -0.0451886 3.16503 -0.0174767 3.52786 0.147893C3.89068 0.313263 4.18094 0.604994 4.34448 0.968648L4.88312 2.16654C5.02373 2.47933 5.06288 2.8283 4.99509 3.16447C4.9273 3.50065 4.75596 3.80716 4.50512 4.04101L3.61297 4.87285C3.58689 4.89715 3.57037 4.92999 3.56639 4.96541C3.54011 5.20248 3.70075 5.66408 4.07099 6.30603C4.3403 6.77241 4.58454 7.10024 4.79175 7.28357C4.93626 7.41196 5.01569 7.43943 5.04972 7.42987L6.25001 7.06262C6.57779 6.96236 6.92874 6.96718 7.25364 7.07641C7.57855 7.18564 7.86113 7.39381 8.06178 7.67172L8.82673 8.73227C9.05936 9.05479 9.16705 9.45076 9.12982 9.84666C9.09259 10.2426 8.91297 10.6115 8.6243 10.885L8.09522 11.3866C7.81441 11.6525 7.46953 11.8412 7.09415 11.9342C6.71878 12.0273 6.32571 12.0215 5.95322 11.9175C4.30865 11.4583 2.83428 10.0705 1.51337 7.78279C0.190668 5.4921 -0.273322 3.5191 0.154241 1.86319C0.250488 1.49076 0.441047 1.14941 0.70755 0.872028C0.974053 0.594647 1.30752 0.390592 1.67579 0.279531ZM1.93436 1.13764C1.71346 1.2042 1.51341 1.32652 1.3535 1.49281C1.19358 1.65911 1.07918 1.86378 1.02131 2.08712C0.661824 3.47969 1.07326 5.22876 2.28907 7.33493C3.50309 9.43811 4.81027 10.6682 6.19447 11.0552C6.41789 11.1174 6.65361 11.1208 6.8787 11.0649C7.10379 11.009 7.31058 10.8958 7.47895 10.7363L8.00863 10.2347C8.13989 10.1104 8.22157 9.94263 8.23848 9.76262C8.25539 9.58261 8.2064 9.40259 8.10059 9.25598L7.33623 8.19602C7.24502 8.06955 7.1165 7.97482 6.9687 7.92513C6.8209 7.87543 6.66125 7.87327 6.51216 7.91894L5.30889 8.28739C4.61022 8.4952 3.97604 7.93328 3.29528 6.75389C2.83666 5.95968 2.62288 5.34461 2.67603 4.86628C2.7041 4.61787 2.81935 4.38856 3.00208 4.21777L3.89423 3.38593C4.0083 3.27965 4.08622 3.14031 4.11707 2.98748C4.14791 2.83465 4.13013 2.676 4.06621 2.53379L3.52757 1.3359C3.45324 1.17073 3.32139 1.03822 3.15659 0.963076C2.99179 0.887927 2.80529 0.875263 2.63184 0.927445L1.93436 1.13764Z" fill="#F2A100"/>
</svg>
