<svg width="15" height="15" viewBox="0 0 15 15" fill="none" xmlns="http://www.w3.org/2000/svg">
<path d="M6.41437 12.8287C7.83754 12.8284 9.2197 12.352 10.3408 11.4753L13.8655 15L14.9992 13.8663L11.4745 10.3416C12.3517 9.22038 12.8284 7.83791 12.8287 6.41437C12.8287 2.87765 9.95109 0 6.41437 0C2.87765 0 0 2.87765 0 6.41437C0 9.95109 2.87765 12.8287 6.41437 12.8287ZM6.41437 1.60359C9.06751 1.60359 11.2251 3.76123 11.2251 6.41437C11.2251 9.06751 9.06751 11.2251 6.41437 11.2251C3.76123 11.2251 1.60359 9.06751 1.60359 6.41437C1.60359 3.76123 3.76123 1.60359 6.41437 1.60359Z" fill="black"/>
</svg>
