<svg width="19" height="20" viewBox="0 0 19 20" fill="none" xmlns="http://www.w3.org/2000/svg">
<path d="M8.12564 16.2513C9.9285 16.2509 11.6794 15.6474 13.0996 14.5368L17.5646 19.0018L19.0008 17.5656L14.5358 13.1006C15.6469 11.6803 16.2509 9.92896 16.2513 8.12564C16.2513 3.64537 12.6059 0 8.12564 0C3.64537 0 0 3.64537 0 8.12564C0 12.6059 3.64537 16.2513 8.12564 16.2513ZM8.12564 2.03141C11.4866 2.03141 14.2199 4.76467 14.2199 8.12564C14.2199 11.4866 11.4866 14.2199 8.12564 14.2199C4.76467 14.2199 2.03141 11.4866 2.03141 8.12564C2.03141 4.76467 4.76467 2.03141 8.12564 2.03141Z" fill="white"/>
</svg>
