<svg width="25" height="25" viewBox="0 0 25 25" fill="none" xmlns="http://www.w3.org/2000/svg">
<path d="M1.21334 8.31597C1.07173 8.36523 0.94679 8.45324 0.852724 8.56999C0.758658 8.68674 0.699248 8.82755 0.68125 8.9764C0.663252 9.12525 0.687389 9.27616 0.750917 9.41197C0.814444 9.54777 0.914811 9.66303 1.0406 9.74462L8.17488 13.5564C8.30784 13.6274 8.45815 13.6595 8.60853 13.6489C8.7589 13.6383 8.90323 13.5855 9.02493 13.4965L16.4795 8.03206C16.8399 7.78375 17.2806 8.21303 17.0418 8.57983L11.7746 16.175C11.6888 16.299 11.6398 16.4447 11.6332 16.5953C11.6266 16.7459 11.6625 16.8953 11.737 17.0264L15.7345 24.0583C15.8193 24.1819 15.9372 24.2792 16.0746 24.3392C16.212 24.3991 16.3635 24.4193 16.5118 24.3974C16.6601 24.3755 16.7993 24.3124 16.9136 24.2153C17.0278 24.1182 17.1126 23.991 17.1581 23.8482L24.2315 1.66299C24.2765 1.52134 24.2812 1.36996 24.2451 1.22578C24.209 1.0816 24.1335 0.950306 24.027 0.846593C23.9205 0.742879 23.7873 0.670834 23.6422 0.638514C23.4972 0.606194 23.3459 0.614876 23.2055 0.663587L1.21334 8.31597Z" fill="white"/>
</svg>
