<svg width="10" height="9" viewBox="0 0 10 9" fill="none" xmlns="http://www.w3.org/2000/svg">
<path d="M9.85373 4.14649L5.85364 0.146397C5.78371 0.0764905 5.69463 0.0288862 5.59765 0.00960197C5.50067 -0.00968227 5.40015 0.000219481 5.3088 0.0380554C5.21745 0.0758913 5.13936 0.139963 5.08442 0.222169C5.02948 0.304376 5.00014 0.401028 5.00012 0.499905V2.27245C3.63423 2.39885 2.36467 3.0304 1.43988 4.0435C0.515089 5.05661 0.0016359 6.37836 0 7.75008V8.50009C7.89297e-05 8.60389 0.0324556 8.70508 0.0926392 8.78965C0.152823 8.87421 0.23783 8.93795 0.335871 8.97202C0.433911 9.00609 0.540125 9.00881 0.63978 8.97979C0.739435 8.95078 0.827591 8.89148 0.892021 8.8101C1.38188 8.22757 1.98292 7.7485 2.66003 7.40088C3.33715 7.05327 4.07674 6.84409 4.83561 6.78555C4.86061 6.78255 4.92312 6.77755 5.00012 6.77255V8.50009C5.00014 8.59897 5.02948 8.69562 5.08442 8.77783C5.13936 8.86004 5.21745 8.92411 5.3088 8.96194C5.40015 8.99978 5.50067 9.00968 5.59765 8.9904C5.69463 8.97111 5.78371 8.92351 5.85364 8.8536L9.85373 4.85351C9.94747 4.75974 10.0001 4.63259 10.0001 4.5C10.0001 4.36741 9.94747 4.24026 9.85373 4.14649ZM6.00014 7.29307V6.25004C6.00014 6.11743 5.94746 5.99025 5.85369 5.89648C5.75992 5.80271 5.63274 5.75003 5.50013 5.75003C5.37263 5.75003 4.85211 5.77503 4.71911 5.79253C3.37151 5.9167 2.08876 6.42869 1.02602 7.26657C1.14665 6.16376 1.66981 5.14419 2.49534 4.40308C3.32086 3.66197 4.39074 3.25139 5.50013 3.24997C5.63274 3.24997 5.75992 3.19729 5.85369 3.10352C5.94746 3.00975 6.00014 2.88257 6.00014 2.74996V1.70693L8.79321 4.5L6.00014 7.29307Z" fill="#666666"/>
</svg>
