<svg width="64" height="70" viewBox="0 0 64 70" fill="none" xmlns="http://www.w3.org/2000/svg">
<path d="M63.2674 9.33976C62.7032 7.14638 61.3697 5.2501 59.5127 4.00008C57.3614 2.55332 54.7918 2.0774 52.2774 2.65955C49.7983 3.23363 47.647 4.82613 46.3751 7.02922C45.3876 8.74175 44.9807 10.6827 45.1984 12.6415C45.2416 13.0323 45.132 13.4126 44.8908 13.7108C41.8812 17.4202 40.3997 19.2468 37.1533 23.2496L30.403 31.5724H2.20928C1.0581 31.5724 0.121582 32.5095 0.121582 33.6615V37.5265C0.121582 38.6629 0.196777 39.802 0.345254 40.9122C0.41416 41.4275 0.854394 41.8018 1.36039 41.8018C1.40564 41.8018 1.45144 41.7988 1.49752 41.7927C2.05888 41.7176 2.45304 41.2018 2.37799 40.6405C2.24154 39.6201 2.17236 38.5724 2.17236 37.5266V33.6616C2.17236 33.6412 2.18959 33.6233 2.20928 33.6233H30.8913H51.7025H57.7645C57.7853 33.6233 57.8028 33.6408 57.8028 33.6616V37.5266C57.8028 38.542 57.7362 39.5693 57.6048 40.58C57.5318 41.1415 57.9279 41.6559 58.4895 41.7289C59.051 41.8014 59.5655 41.4057 59.6385 40.8442C59.7811 39.7464 59.8535 38.6301 59.8535 37.5266V33.6616C59.8535 32.5096 58.9165 31.5725 57.7645 31.5725H53.1929C54.8354 27.2805 55.6751 25.0876 57.2909 20.8702C57.4276 20.513 57.7077 20.2254 58.0781 20.0615C60.0314 19.2011 61.5807 17.7377 62.5585 15.8297C63.5798 13.8371 63.8315 11.5323 63.2674 9.33976ZM60.7336 14.8941C59.973 16.3783 58.7688 17.5162 57.2499 18.1853C56.3745 18.5728 55.7089 19.2661 55.3757 20.1368C53.6706 24.5874 52.8296 26.7838 50.9972 31.5724H33.0433L38.7458 24.5415C41.9923 20.5388 43.4738 18.7122 46.4842 15.0016C47.0731 14.2733 47.3402 13.3552 47.2365 12.4157C47.0673 10.8934 47.3838 9.38501 48.1512 8.05406C49.1543 6.31664 50.784 5.11023 52.7399 4.65728C54.6949 4.20434 56.6934 4.57539 58.3677 5.7014C59.8073 6.67047 60.842 8.14388 61.2812 9.85054C61.7203 11.5573 61.5257 13.3484 60.7336 14.8941Z" fill="black"/>
<path d="M58.0551 43.733C57.514 43.5666 56.9401 43.8707 56.7738 44.4121C54.8297 50.7414 50.2622 55.9763 44.2425 58.7748C43.5138 59.1136 43.043 59.8549 43.043 60.6634V63.9857C43.043 64.0062 43.0262 64.023 43.0057 64.023H22.1414C21.5751 64.023 21.116 64.4821 21.116 65.0484C21.116 65.6147 21.5751 66.0738 22.1414 66.0738H43.0056C44.157 66.0738 45.0937 65.137 45.0937 63.9857V60.6634C45.0937 60.6478 45.1016 60.6369 45.1069 60.6344C51.6528 57.5914 56.6197 51.898 58.7342 45.0142C58.9005 44.4729 58.5964 43.8993 58.0551 43.733Z" fill="black"/>
<path d="M24.9866 53.1509C26.9434 51.4942 28.5354 49.4225 29.6279 47.0921C29.9821 46.3374 29.9439 45.4539 29.5252 44.7286C29.1065 44.0031 28.3602 43.5276 27.5305 43.4568C27.1637 43.425 26.7906 43.4044 26.4216 43.3958C25.8516 43.3805 25.3857 43.8305 25.3723 44.3967C25.359 44.9628 25.8072 45.4326 26.3732 45.446C26.6994 45.4537 27.0292 45.4718 27.3548 45.5C27.704 45.5298 27.9191 45.9059 27.7713 46.2209C26.7371 48.4267 25.1996 50.3718 23.3011 51.8844C22.2797 51.2092 21.1538 50.6171 19.9927 50.1558C19.7524 50.0607 19.5044 49.9684 19.2537 49.8814C19.2395 49.8765 19.2251 49.8721 19.2109 49.8672C18.6441 49.1285 17.905 48.5605 17.0703 48.2005C18.7183 47.0808 20.5841 46.254 22.601 45.8106C23.154 45.689 23.5039 45.1421 23.3822 44.5889C23.2605 44.0358 22.7134 43.6863 22.1605 43.8077C21.4144 43.9718 20.678 44.1845 19.9593 44.4429C19.5024 41.9194 18.5047 39.5059 17.0339 37.3963C16.5565 36.7119 15.7717 36.3032 14.9345 36.3032C14.0971 36.3032 13.3123 36.7119 12.8349 37.3964C11.3637 39.5067 10.3658 41.9211 9.90911 44.4456C7.49453 43.5794 4.90398 43.2366 2.33982 43.4568C1.50857 43.5276 0.762365 44.0031 0.343595 44.7286C-0.075037 45.4539 -0.113318 46.3374 0.240783 47.0916C1.33357 49.4226 2.92566 51.4944 4.88224 53.1509C2.92566 54.8092 1.33371 56.8806 0.24051 59.2097C-0.113455 59.9659 -0.0746269 60.8506 0.344689 61.5762C0.763458 62.3011 1.5094 62.776 2.33941 62.8467C2.84555 62.8901 3.35223 62.9117 3.85877 62.9117C5.91939 62.9117 7.97113 62.5542 9.90952 61.8583C10.3663 64.3821 11.3641 66.7958 12.8346 68.9053C13.3119 69.5908 14.0969 70 14.9345 70C15.7722 70 16.5572 69.5908 17.0341 68.9058C18.505 66.7961 19.5027 64.3822 19.9596 61.8584C22.3781 62.7268 24.9676 63.0662 27.529 62.8467C28.3596 62.7759 29.1054 62.301 29.5243 61.5762C29.9434 60.8506 29.9824 59.9661 29.628 59.2088C28.5354 56.8806 26.9437 54.8096 24.9866 53.1509ZM11.677 47.2331C11.6878 46.8185 11.7149 46.401 11.7577 45.987C12.0332 43.3282 12.9873 40.7634 14.5169 38.5695C14.6476 38.382 14.8345 38.3541 14.9343 38.3541C15.034 38.3541 15.221 38.3822 15.3516 38.5695C16.7438 40.5662 17.6593 42.8704 18.0204 45.2728C16.5875 45.9895 15.3371 46.8419 14.227 47.8062C13.2943 47.929 12.4355 48.2895 11.7154 48.8271C11.6865 48.4344 11.6716 48.04 11.6716 47.6462C11.6716 47.509 11.6733 47.3711 11.677 47.2331ZM2.09715 46.2205C2.00076 46.0153 2.06994 45.84 2.11971 45.7538C2.16961 45.6674 2.28719 45.5194 2.51428 45.5001C4.94103 45.2922 7.39458 45.6508 9.65495 46.5387C9.5624 48.0467 9.65769 49.5761 9.95191 51.09C9.60847 51.9173 9.46915 52.8317 9.57894 53.7774C6.35416 52.2173 3.67967 49.596 2.09715 46.2205ZM10.318 59.4854C7.87966 60.5762 5.18138 61.0318 2.51373 60.8035C2.164 60.7735 1.94922 60.3961 2.09715 60.0801C3.13129 57.8766 4.66896 55.9315 6.56744 54.4171C8.6137 55.7694 10.2121 56.2507 10.6634 56.4385C11.2192 57.1588 11.9521 57.7354 12.7972 58.1015C12.4722 58.3219 12.1378 58.5319 11.7958 58.7299C11.3251 59.0026 10.8417 59.2498 10.318 59.4854ZM18.111 60.3151C18.111 60.3154 18.111 60.3158 18.111 60.3162C17.8352 62.9744 16.8812 65.539 15.3513 67.7333C15.2205 67.921 15.034 67.9491 14.9343 67.9491C14.8347 67.9491 14.6482 67.921 14.5171 67.7328C13.1249 65.7359 12.2094 63.4318 11.8483 61.0295C13.2643 60.3228 14.4803 59.4928 15.6394 58.4969C16.5642 58.3771 17.4252 58.0237 18.1537 57.4812C18.1825 57.8722 18.1971 58.2653 18.1971 58.6574C18.1971 59.2069 18.1681 59.7647 18.111 60.3151ZM18.2271 53.7291C18.1725 54.0438 18.0727 54.3479 17.9283 54.6377C17.9282 54.6379 17.9282 54.638 17.9282 54.6381C17.3585 55.7823 16.2112 56.4931 14.9335 56.4931C13.0911 56.4931 11.5923 54.9942 11.5923 53.1517C11.5923 51.3086 13.0911 49.809 14.9335 49.809C16.0561 49.809 17.0974 50.3676 17.7196 51.3043C18.0838 51.8511 18.2763 52.49 18.2763 53.1517C18.2763 53.3475 18.2599 53.5403 18.2271 53.7291ZM27.7486 60.5503C27.6031 60.8021 27.3681 60.7969 27.3544 60.8036C24.9272 61.0114 22.4736 60.6527 20.2137 59.7641C20.3037 58.3 20.2176 56.76 19.9176 55.2161C20.2777 54.3505 20.3934 53.4126 20.2913 52.5268C23.7673 54.2328 26.2787 56.8996 27.7711 60.0793C27.8683 60.2869 27.7987 60.4636 27.7486 60.5503Z" fill="#F4BC00"/>
<path d="M11.6816 16.6167C9.78449 16.6167 8.24121 18.1601 8.24121 20.0571C8.24121 21.9541 9.78463 23.4975 11.6816 23.4975C13.5786 23.4975 15.122 21.9542 15.122 20.0571C15.122 18.16 13.5787 16.6167 11.6816 16.6167ZM11.6816 21.4467C10.9154 21.4467 10.292 20.8233 10.292 20.0571C10.292 19.2909 10.9154 18.6675 11.6816 18.6675C12.4478 18.6675 13.0712 19.2909 13.0712 20.0571C13.0712 20.8233 12.4478 21.4467 11.6816 21.4467Z" fill="#F4BC00"/>
<path d="M22.7321 11.7314C20.8352 11.7314 19.2917 13.2749 19.2917 15.1718C19.2917 17.0688 20.835 18.6122 22.7321 18.6122C24.6291 18.6122 26.1725 17.0688 26.1725 15.1718C26.1725 13.2749 24.6291 11.7314 22.7321 11.7314ZM22.7321 16.5614C21.966 16.5614 21.3425 15.938 21.3425 15.1718C21.3425 14.4057 21.9658 13.7822 22.7321 13.7822C23.4983 13.7822 24.1217 14.4057 24.1217 15.1718C24.1217 15.938 23.4983 16.5614 22.7321 16.5614Z" fill="#F4BC00"/>
<path d="M14.0966 0C12.1997 0 10.6562 1.54342 10.6562 3.44039C10.6562 5.33736 12.1997 6.88077 14.0966 6.88077C15.9936 6.88077 17.537 5.33736 17.537 3.44039C17.537 1.54342 15.9936 0 14.0966 0ZM14.0966 4.83C13.3305 4.83 12.707 4.20656 12.707 3.44039C12.707 2.67422 13.3305 2.05078 14.0966 2.05078C14.8628 2.05078 15.4862 2.67422 15.4862 3.44039C15.4862 4.20656 14.8628 4.83 14.0966 4.83Z" fill="#F4BC00"/>
</svg>
