<svg width="67" height="70" viewBox="0 0 67 70" fill="none" xmlns="http://www.w3.org/2000/svg">
<path d="M52.5005 45.8856C51.5835 46.2597 50.8246 46.9403 50.3531 47.8112C49.8817 48.6822 49.7268 49.6897 49.9148 50.662C50.1028 51.6344 50.6222 52.5115 51.3844 53.1439C52.1466 53.7762 53.1045 54.1248 54.0948 54.1301C55.0852 54.1354 56.0468 53.7972 56.8158 53.1731C57.5847 52.549 58.1135 51.6775 58.312 50.7072C58.5105 49.7369 58.3664 48.7278 57.9043 47.8519C57.4423 46.9759 56.6908 46.2872 55.7779 45.9032C55.2599 45.6836 54.7035 45.569 54.1409 45.566C53.5784 45.563 53.0208 45.6716 52.5005 45.8856ZM56.5511 48.8577C56.7811 49.4223 56.8083 50.0493 56.6278 50.6317C56.4474 51.2141 56.0705 51.7159 55.5615 52.0515C55.0525 52.3872 54.4428 52.5359 53.8364 52.4724C53.23 52.4088 52.6645 52.137 52.2361 51.7031C51.8077 51.2692 51.5431 50.7002 51.4873 50.093C51.4315 49.4858 51.588 48.8781 51.9301 48.3734C52.2723 47.8688 52.7788 47.4984 53.3635 47.3254C53.9482 47.1524 54.5747 47.1875 55.1364 47.4248C55.4557 47.5579 55.7453 47.7531 55.9886 47.9991C56.2318 48.2451 56.4237 48.5369 56.5533 48.8577H56.5511Z" fill="#F4BC00"/>
<path d="M7.77306 34.5848C7.57162 33.8297 7.15078 33.1513 6.56377 32.6355C5.97676 32.1196 5.24995 31.7894 4.47526 31.6867C3.70058 31.5839 2.91282 31.7132 2.21162 32.0582C1.51042 32.4031 0.927275 32.9483 0.535943 33.6248C0.144611 34.3012 -0.0373309 35.0785 0.0131297 35.8583C0.0635904 36.6382 0.344186 37.3855 0.819429 38.0059C1.29467 38.6262 1.94321 39.0917 2.68302 39.3434C3.42284 39.5952 4.22069 39.6219 4.97567 39.4201C5.9874 39.1492 6.85025 38.4878 7.37474 37.5812C7.89923 36.6746 8.04249 35.5969 7.77306 34.5848ZM4.54912 37.823C4.11016 37.9404 3.64625 37.9249 3.21609 37.7786C2.78593 37.6322 2.40883 37.3616 2.1325 37.0009C1.85617 36.6402 1.69303 36.2056 1.6637 35.7522C1.63437 35.2988 1.74019 34.8468 1.96775 34.4536C2.19531 34.0603 2.53441 33.7433 2.94214 33.5428C3.34986 33.3422 3.80791 33.2671 4.25833 33.327C4.70875 33.3868 5.13131 33.5789 5.47255 33.8789C5.8138 34.1789 6.0584 34.5734 6.17542 35.0124C6.25542 35.3038 6.27672 35.6081 6.23806 35.9078C6.19941 36.2074 6.10157 36.4964 5.95025 36.7579C5.79893 37.0195 5.59714 37.2483 5.3566 37.4311C5.11607 37.614 4.84159 37.7472 4.54912 37.823Z" fill="#F4BC00"/>
<path d="M65.922 36.2726C65.6634 35.638 65.1927 35.1128 64.5903 34.7864C63.9878 34.46 63.2908 34.3525 62.618 34.4824C61.9452 34.6123 61.3383 34.9714 60.9006 35.4987C60.463 36.0259 60.2217 36.6886 60.2178 37.3738C60.214 38.059 60.4479 38.7243 60.8796 39.2564C61.3113 39.7885 61.9142 40.1544 62.5855 40.2918C63.2568 40.4292 63.955 40.3296 64.5611 40.0099C65.1671 39.6902 65.6436 39.1703 65.9093 38.5387C66.0611 38.1806 66.1404 37.7959 66.1426 37.4069C66.1448 37.0179 66.0698 36.6324 65.922 36.2726ZM64.385 37.8972C64.2675 38.1759 64.057 38.4051 63.7894 38.546C63.5218 38.6868 63.2137 38.7306 62.9175 38.6697C62.6213 38.6089 62.3553 38.4472 62.1649 38.2123C61.9745 37.9774 61.8715 37.6837 61.8733 37.3813C61.8751 37.0789 61.9817 36.7865 62.175 36.5539C62.3682 36.3213 62.6361 36.1629 62.933 36.1057C63.2299 36.0484 63.5375 36.0959 63.8034 36.24C64.0692 36.384 64.2769 36.6158 64.391 36.8959C64.4565 37.0549 64.4897 37.2254 64.4886 37.3974C64.4876 37.5694 64.4523 37.7395 64.385 37.8978V37.8972Z" fill="#F4BC00"/>
<path d="M4.72722 26.718C5.34576 26.7178 5.94871 26.5239 6.45142 26.1635C6.95413 25.8032 7.33136 25.2944 7.53017 24.7087C7.72897 24.123 7.73936 23.4897 7.55988 22.8978C7.3804 22.3058 7.02006 21.785 6.52944 21.4083C6.03882 21.0316 5.44256 20.818 4.82436 20.7975C4.20616 20.777 3.59706 20.9506 3.08256 21.294C2.56807 21.6373 2.174 22.1332 1.9557 22.7119C1.73739 23.2906 1.70579 23.9232 1.86535 24.5208C2.03399 25.151 2.40588 25.7079 2.92333 26.1052C3.44077 26.5025 4.07486 26.7179 4.72722 26.718ZM4.38885 22.4905C4.5548 22.446 4.72791 22.4346 4.89825 22.4571C5.0686 22.4796 5.23284 22.5355 5.38156 22.6215C5.53028 22.7076 5.66056 22.8221 5.76493 22.9586C5.8693 23.0951 5.94572 23.2509 5.9898 23.4169C6.05647 23.6668 6.04754 23.9309 5.96414 24.1757C5.88074 24.4205 5.72662 24.6351 5.52127 24.7924C5.31591 24.9496 5.06854 25.0424 4.81044 25.0591C4.55234 25.0757 4.29509 25.0155 4.07123 24.886C3.84737 24.7564 3.66695 24.5634 3.55278 24.3313C3.4386 24.0993 3.39581 23.8385 3.42981 23.5821C3.4638 23.3257 3.57306 23.0852 3.74377 22.8909C3.91447 22.6966 4.13896 22.5573 4.38885 22.4905Z" fill="#F4BC00"/>
<path d="M11.1094 54.5338C11.4896 54.7546 11.9214 54.8711 12.361 54.8716C12.7455 54.8713 13.1247 54.7827 13.4696 54.6127C13.8144 54.4426 14.1156 54.1957 14.3499 53.8908C14.5842 53.586 14.7453 53.2314 14.8209 52.8544C14.8965 52.4775 14.8845 52.0882 14.7858 51.7166C14.6794 51.3183 14.4764 50.9524 14.1948 50.6514C13.9132 50.3503 13.5617 50.1233 13.1714 49.9905C12.7811 49.8578 12.3642 49.8233 11.9574 49.8901C11.5506 49.957 11.1666 50.1231 10.8393 50.3738C10.5121 50.6245 10.2517 50.952 10.0813 51.3274C9.91081 51.7027 9.83556 52.1143 9.86216 52.5257C9.88876 52.9371 10.0164 53.3355 10.2338 53.6858C10.4511 54.0361 10.7515 54.3273 11.1083 54.5338H11.1094ZM11.6253 51.9353C11.6814 51.8382 11.7562 51.7531 11.8452 51.6849C11.9343 51.6167 12.036 51.5668 12.1444 51.538C12.2164 51.5191 12.2905 51.5095 12.3649 51.5093C12.5526 51.5099 12.7348 51.5724 12.8834 51.6871C13.032 51.8018 13.1386 51.9623 13.1867 52.1438C13.2348 52.3252 13.2218 52.5175 13.1495 52.6907C13.0773 52.864 12.95 53.0086 12.7872 53.1021C12.6245 53.1956 12.4354 53.2329 12.2494 53.2081C12.0633 53.1833 11.8906 53.0978 11.7581 52.9649C11.6255 52.832 11.5405 52.659 11.5162 52.4729C11.4919 52.2868 11.5296 52.0978 11.6236 51.9353H11.6253Z" fill="#F4BC00"/>
<path d="M61.3889 22.0093C62.0955 22.3064 62.8912 22.3107 63.6011 22.0214C64.3109 21.732 64.8768 21.1727 65.1744 20.4662C65.3962 19.9393 65.4567 19.3584 65.3483 18.7971C65.2399 18.2358 64.9675 17.7192 64.5655 17.3127C64.1636 16.9062 63.6501 16.628 63.09 16.5133C62.53 16.3987 61.9485 16.4526 61.4191 16.6684C60.8897 16.8842 60.4362 17.2522 60.1159 17.7257C59.7956 18.1992 59.6229 18.7571 59.6197 19.3288C59.6164 19.9005 59.7828 20.4603 60.0977 20.9374C60.4126 21.4145 60.862 21.7876 61.3889 22.0093ZM61.3696 18.8647C61.4322 18.7148 61.5239 18.5787 61.6394 18.4643C61.7549 18.35 61.8919 18.2596 62.0425 18.1984C62.1911 18.1379 62.35 18.1067 62.5104 18.1064C62.7765 18.1062 63.0357 18.1916 63.2494 18.3502C63.4632 18.5087 63.6202 18.7318 63.6973 18.9866C63.7744 19.2413 63.7673 19.5141 63.6773 19.7645C63.5872 20.0149 63.4189 20.2297 63.1973 20.377C62.9757 20.5243 62.7125 20.5964 62.4467 20.5825C62.181 20.5686 61.9267 20.4694 61.7217 20.2998C61.5167 20.1301 61.3717 19.899 61.3083 19.6405C61.2449 19.382 61.2664 19.11 61.3696 18.8647Z" fill="#F4BC00"/>
<path d="M33.462 38.5463C34.2291 38.5208 34.9606 38.2163 35.5192 37.6899C35.604 37.6198 35.6739 37.5336 35.7249 37.4362C35.7759 37.3387 35.807 37.2321 35.8162 37.1226C35.8255 37.013 35.8129 36.9027 35.779 36.7981C35.7451 36.6935 35.6907 36.5967 35.619 36.5134C35.5473 36.43 35.4596 36.3619 35.3612 36.3128C35.2628 36.2638 35.1556 36.2349 35.0459 36.2278C34.9361 36.2207 34.8261 36.2356 34.7222 36.2715C34.6183 36.3075 34.5226 36.3638 34.4407 36.4372C34.3205 36.5797 34.1706 36.6942 34.0016 36.7727C33.8325 36.8512 33.6484 36.8919 33.462 36.8919C33.2756 36.8919 33.0914 36.8512 32.9224 36.7727C32.7533 36.6942 32.6034 36.5797 32.4832 36.4372C32.4013 36.3638 32.3057 36.3075 32.2017 36.2715C32.0978 36.2356 31.9878 36.2207 31.8781 36.2278C31.7684 36.2349 31.6611 36.2638 31.5627 36.3128C31.4643 36.3619 31.3767 36.43 31.3049 36.5134C31.2332 36.5967 31.1788 36.6935 31.1449 36.7981C31.1111 36.9027 31.0984 37.013 31.1077 37.1226C31.117 37.2321 31.148 37.3387 31.199 37.4362C31.25 37.5336 31.32 37.6198 31.4047 37.6899C31.9633 38.2163 32.6948 38.5208 33.462 38.5463Z" fill="black"/>
<path d="M37.4346 41.3602H37.4247C36.8119 41.4835 36.1825 41.4999 35.5642 41.4087C35.4099 41.3861 35.2594 41.3563 35.0792 41.3216C34.8218 41.2619 34.5558 41.249 34.2939 41.2836C34.0198 41.3318 33.7593 41.4384 33.53 41.5961C33.5095 41.6082 33.4861 41.6147 33.4623 41.6147C33.4384 41.6147 33.415 41.6082 33.3945 41.5961C33.1652 41.4384 32.9047 41.3318 32.6306 41.2836C32.3687 41.249 32.1027 41.2619 31.8453 41.3216C31.6657 41.3563 31.5147 41.3861 31.3604 41.4087C30.7422 41.4999 30.1129 41.4835 29.5004 41.3602H29.4899C29.3462 41.3319 29.197 41.3578 29.0713 41.433C28.9455 41.5082 28.852 41.6272 28.8088 41.7672C28.7656 41.9072 28.7758 42.0582 28.8373 42.1912C28.8989 42.3241 29.0075 42.4296 29.1422 42.4872C29.8799 42.8079 30.6791 42.9625 31.4833 42.9402C31.6828 42.9347 31.8845 42.9182 32.0558 42.9049C32.2168 42.8906 32.2857 42.9171 32.5248 43.0576C32.789 43.2184 33.0913 43.3059 33.4005 43.3111H33.524C33.8332 43.3059 34.1355 43.2184 34.3997 43.0576C34.6389 42.9171 34.7078 42.8923 34.8687 42.9049C35.0401 42.9182 35.2418 42.9347 35.4413 42.9402C36.2454 42.9625 37.0446 42.8079 37.7823 42.4872C37.917 42.4296 38.0256 42.3241 38.0872 42.1912C38.1487 42.0582 38.1589 41.9072 38.1157 41.7672C38.0725 41.6272 37.979 41.5082 37.8532 41.433C37.7275 41.3578 37.5784 41.3319 37.4346 41.3602Z" fill="black"/>
<path d="M33.9645 44.2461C33.8098 44.3283 33.6372 44.3713 33.4619 44.3713C33.2867 44.3713 33.1141 44.3283 32.9593 44.2461C32.7637 44.163 32.5437 44.1585 32.3448 44.2334C32.146 44.3083 31.9836 44.4569 31.8914 44.6483C31.7992 44.8398 31.7843 45.0594 31.8498 45.2616C31.9152 45.4637 32.056 45.6329 32.2429 45.734C32.6215 45.9236 33.0391 46.0223 33.4625 46.0223C33.8859 46.0223 34.3035 45.9236 34.6821 45.734C34.785 45.6903 34.878 45.6262 34.9554 45.5455C35.0329 45.4648 35.0931 45.3692 35.1326 45.2645C35.172 45.1599 35.1898 45.0483 35.1848 44.9366C35.1799 44.8249 35.1523 44.7153 35.1038 44.6145C35.0553 44.5138 34.9868 44.4239 34.9025 44.3503C34.8183 44.2768 34.72 44.2211 34.6136 44.1867C34.5072 44.1522 34.3949 44.1397 34.2835 44.1499C34.1722 44.1601 34.064 44.1928 33.9656 44.2461H33.9645Z" fill="black"/>
<path d="M43.1668 32.2489L43.3768 32.121C43.4429 32.0791 43.4738 32.0521 43.5245 32.0158C43.6866 31.9076 43.8588 31.8153 44.0387 31.7402C44.1997 31.6608 44.3799 31.6287 44.5584 31.6476L44.6686 31.6598C44.7384 31.6672 44.8089 31.6555 44.8726 31.626C44.9364 31.5966 44.9909 31.5504 45.0305 31.4924C45.0701 31.4344 45.0932 31.3667 45.0974 31.2966C45.1016 31.2266 45.0867 31.1566 45.0543 31.0943C44.9409 30.9077 44.7834 30.7517 44.5957 30.64C44.4079 30.5284 44.1957 30.4645 43.9775 30.4539C43.5875 30.4357 43.1987 30.5077 42.8411 30.6645L42.608 30.7642L42.4366 30.843C42.3187 30.891 42.2035 30.9428 42.0806 30.9841C41.8436 31.0811 41.5967 31.161 41.352 31.2382C40.8751 31.3896 40.3836 31.4902 39.8856 31.5385C39.4405 31.5906 38.9895 31.5514 38.5602 31.4233L38.4797 31.3969C38.3493 31.3546 38.2083 31.3589 38.0808 31.409C37.9533 31.4591 37.8471 31.552 37.7804 31.6718C37.7138 31.7915 37.6908 31.9307 37.7154 32.0655C37.74 32.2003 37.8107 32.3224 37.9154 32.4109C38.4816 32.8612 39.183 33.1078 39.9065 33.1108C40.5636 33.1268 41.2187 33.0327 41.8447 32.8325C42.1505 32.7359 42.4491 32.6182 42.7386 32.4803C42.8863 32.4104 43.0252 32.3277 43.1668 32.2489Z" fill="black"/>
<path d="M29.1881 31.7746C29.1396 31.6256 29.0338 31.5019 28.8941 31.4308C28.7544 31.3597 28.5921 31.347 28.443 31.3955L28.3631 31.4214C27.9346 31.5491 27.4846 31.5882 27.0405 31.5366C26.5425 31.4883 26.0509 31.3876 25.574 31.2362C25.3293 31.1591 25.0824 31.0791 24.8454 30.9822C24.7225 30.9408 24.6074 30.889 24.4894 30.8411L24.3136 30.7623L24.0805 30.6625C23.723 30.5058 23.3341 30.4337 22.9441 30.452C22.726 30.4625 22.5137 30.5264 22.3259 30.638C22.1382 30.7497 21.9807 30.9057 21.8673 31.0924C21.8317 31.16 21.8173 31.2368 21.826 31.3128C21.8375 31.4152 21.8891 31.5089 21.9696 31.5733C22.0501 31.6376 22.1528 31.6675 22.2553 31.6562L22.3655 31.644C22.544 31.6251 22.7242 31.6572 22.8852 31.7366C23.0649 31.8116 23.2369 31.9039 23.3988 32.0122C23.4501 32.0485 23.4809 32.0755 23.547 32.1174L23.757 32.2453C23.8986 32.3241 24.0392 32.4062 24.1841 32.4751C24.4736 32.6129 24.7723 32.7306 25.078 32.8272C25.704 33.0275 26.3592 33.1215 27.0162 33.1055C27.7397 33.1025 28.4411 32.856 29.0074 32.4056C29.0963 32.33 29.1609 32.2297 29.193 32.1174C29.2252 32.0052 29.2235 31.8859 29.1881 31.7746Z" fill="black"/>
<path d="M55.6402 63.0328C53.9054 61.4263 50.7354 60.3875 47.6735 59.3784C46.0427 58.8918 44.4474 58.2935 42.8988 57.5879C39.7652 55.998 39.5922 53.0843 39.4687 50.957C39.4687 50.9052 39.4626 50.8617 39.4593 50.8115C41.0082 49.8797 42.4368 48.761 43.7127 47.4807C45.5024 45.6514 46.8399 43.4293 47.6184 40.9914C50.3227 40.9049 53.0517 38.0188 53.4805 35.4209C53.5286 35.1376 53.5584 34.8516 53.5698 34.5645C54.0604 34.38 54.4763 34.0386 54.753 33.5934C55.7389 31.9953 55.1939 30.0736 54.6185 28.0389L54.5832 27.916C55.7802 23.5821 55.3344 14.4085 50.5602 7.80077C47.1626 3.10153 39.1171 -1.76911 33.4622 0.634793C27.8068 -1.76967 19.7618 3.10097 16.3643 7.79912C11.5879 14.409 11.1421 23.5827 12.3413 27.9143L12.306 28.0372C11.7301 30.0719 11.1856 31.9936 12.171 33.5918C12.4479 34.0367 12.864 34.3777 13.3547 34.5617C13.3658 34.8475 13.3954 35.1323 13.4435 35.4143C13.8728 38.0166 16.6018 40.9033 19.3061 40.9898C20.0844 43.4282 21.4218 45.651 23.2117 47.4807C24.4885 48.761 25.9178 49.8797 27.4674 50.8115C27.4641 50.8617 27.4607 50.9052 27.458 50.957C27.3323 53.0843 27.1609 55.998 24.0279 57.5879C22.4793 58.2935 20.8839 58.8918 19.2532 59.3784C16.1891 60.3847 13.0213 61.4263 11.2864 63.0328C9.56466 64.6578 8.23187 66.6505 7.3874 68.8623C7.30504 69.0652 7.30649 69.2924 7.39144 69.4941C7.4764 69.6959 7.63792 69.8557 7.84056 69.9386C8.04321 70.0214 8.27043 70.0204 8.47239 69.9359C8.67434 69.8514 8.83453 69.6903 8.91781 69.4878C9.67309 67.5002 10.8668 65.7084 12.4101 64.2457C13.8799 62.884 17.0091 61.8562 19.769 60.9491C21.48 60.4383 23.1531 59.8079 24.7758 59.0626C28.429 57.2087 28.914 53.901 29.0705 51.6371C30.1702 52.1321 31.3182 52.5118 32.4962 52.7701C33.1333 52.9109 33.7934 52.9109 34.4305 52.7701C35.6092 52.5114 36.7579 52.1315 37.8584 51.6365C38.0149 53.9005 38.4999 57.2082 42.1531 59.0621C43.7758 59.8074 45.4489 60.4377 47.1599 60.9485C49.9198 61.8556 53.049 62.8834 54.5187 64.2452C56.0621 65.7078 57.2558 67.4996 58.0111 69.4873C58.0944 69.6897 58.2546 69.8509 58.4565 69.9354C58.6585 70.0199 58.8857 70.0208 59.0883 69.938C59.291 69.8552 59.4525 69.6954 59.5375 69.4936C59.6224 69.2918 59.6239 69.0646 59.5415 68.8618C58.6963 66.6499 57.3628 64.6574 55.6402 63.0328ZM50.0895 33.3471C50.0504 33.3361 50.0104 33.3282 49.97 33.3234C49.6842 33.2969 49.3961 33.3194 49.1179 33.3901C49.1378 33.1145 49.1538 32.839 49.1681 32.5579C49.4888 32.8379 49.796 33.1009 50.0895 33.3471ZM48.1607 39.2604C48.4818 38.0426 48.7264 36.8059 48.8931 35.5576C49.2331 34.9177 49.6646 34.9514 49.8096 34.9662C50.0277 34.9873 50.2453 34.9209 50.4144 34.7816C50.5836 34.6422 50.6905 34.4415 50.7117 34.2234C50.7253 34.0751 50.6983 33.9259 50.6335 33.7918C50.8148 33.9368 50.9967 34.0834 51.1647 34.2118C51.3899 34.3837 51.6429 34.5159 51.9126 34.6025C51.9019 34.785 51.8815 34.9667 51.8514 35.147C51.5764 36.8218 49.8476 38.8256 48.159 39.2577L48.1607 39.2604ZM49.2205 8.76796C52.9889 13.983 53.9401 21.3237 53.3195 25.8312C52.9871 25.3718 52.6152 24.9423 52.208 24.5477C52.0456 24.4091 51.8359 24.3388 51.6228 24.3513C51.4097 24.3639 51.2098 24.4584 51.0648 24.6151C50.9198 24.7717 50.841 24.9784 50.845 25.1918C50.8489 25.4053 50.9353 25.6089 51.0859 25.7601C51.8327 26.489 52.4645 27.327 52.9597 28.2456C53.4099 29.2756 53.9517 31.7451 53.3455 32.7249C53.278 32.8302 53.1856 32.9173 53.0765 32.9786C52.9675 33.0398 52.845 33.0732 52.72 33.076C52.5223 33.0755 52.3297 33.0135 52.1688 32.8985C51.5626 32.4339 50.5084 31.5786 48.9521 30.143C47.425 28.7399 45.6962 27.0364 43.813 25.08C41.046 22.2143 37.9218 18.7787 34.527 14.8758C36.0971 12.5739 34.964 10.1733 34.0343 8.2141C33.5827 7.41724 33.2719 6.54846 33.1156 5.64596C33.0605 4.54817 33.6992 2.94942 34.0674 2.17402C38.8344 0.111246 46.2869 4.71129 49.2205 8.76796ZM13.9637 28.2461C14.4586 27.3275 15.0904 26.4896 15.8374 25.7612C15.9881 25.61 16.0745 25.4064 16.0784 25.1929C16.0824 24.9795 16.0036 24.7729 15.8586 24.6162C15.7136 24.4595 15.5137 24.365 15.3006 24.3524C15.0875 24.3399 14.8778 24.4102 14.7154 24.5488C14.3082 24.9434 13.9363 25.3729 13.6038 25.8323C12.9833 21.3248 13.9345 13.9836 17.7029 8.76906C20.1382 5.40238 25.6856 1.65874 30.2245 1.65874C30.9445 1.65208 31.6611 1.75883 32.3479 1.97507C31.7988 3.15203 31.4986 4.42971 31.4662 5.72808C31.6193 6.85103 31.9846 7.93462 32.5425 8.92116C33.6254 11.2022 34.231 12.8125 32.8456 14.3534L32.8351 14.3644C29.2695 18.4828 25.9954 22.0875 23.1065 25.0806C21.2245 27.0359 19.4957 28.7393 17.9669 30.1441C16.4122 31.5797 15.3602 32.435 14.749 32.8996C14.5959 33.0155 14.4087 33.0774 14.2167 33.0754C14.0892 33.0743 13.964 33.0416 13.8522 32.9802C13.7405 32.9189 13.6457 32.8308 13.5763 32.7238C12.9723 31.7489 13.5123 29.2756 13.9637 28.2461ZM17.7558 32.5552C17.7702 32.8346 17.7861 33.1123 17.806 33.3873C17.5279 33.3166 17.2397 33.2941 16.954 33.3207C16.9136 33.3254 16.8736 33.3333 16.8344 33.3444C17.1287 33.0997 17.4358 32.8366 17.7558 32.5552ZM15.0709 35.142C15.0411 34.9634 15.0209 34.7833 15.0102 34.6025C15.2788 34.5173 15.5308 34.3869 15.7553 34.2167C15.9245 34.0872 16.1075 33.9412 16.2894 33.7946C16.2257 33.9265 16.1984 34.073 16.2104 34.219C16.2223 34.365 16.2731 34.5051 16.3574 34.6249C16.4417 34.7446 16.5565 34.8397 16.6898 34.9002C16.8232 34.9607 16.9704 34.9845 17.116 34.969C17.2598 34.9536 17.6919 34.9205 18.0319 35.5603C18.1999 36.8073 18.4451 38.0427 18.766 39.2593C17.078 38.8223 15.3481 36.819 15.0714 35.142H15.0709ZM34.0685 51.1565C33.6675 51.2452 33.252 51.2452 32.8511 51.1565C28.8881 50.2814 26.4274 48.3029 24.3591 46.2952C22.6466 44.5103 21.39 42.3385 20.696 39.9642C20.6876 39.9315 20.6769 39.8995 20.664 39.8683C20.1864 38.3368 19.8449 36.7661 19.6434 35.1746C19.4714 33.8239 19.3768 32.4645 19.3601 31.103C20.8139 29.7556 22.4319 28.1596 24.1844 26.342C25.7131 26.3404 27.2406 26.43 28.7586 26.6104L28.7867 26.6159C28.9435 26.6455 29.1056 26.6169 29.2428 26.5354C29.3799 26.4539 29.4827 26.3252 29.5317 26.1734C29.5807 26.0216 29.5727 25.8571 29.5091 25.7108C29.4455 25.5645 29.3307 25.4464 29.1862 25.3787C28.4581 25.0537 27.6812 24.8511 26.887 24.7791C26.5026 24.74 26.1162 24.7225 25.7297 24.7268C28.0962 22.222 30.6896 19.3519 33.4633 16.166C36.2387 19.3519 38.8316 22.222 41.197 24.7268C40.8105 24.7228 40.4242 24.7403 40.0396 24.7791C39.2455 24.8511 38.4686 25.0537 37.7404 25.3787C37.5959 25.4464 37.4809 25.5645 37.4173 25.7109C37.3536 25.8573 37.3456 26.0219 37.3947 26.1738C37.4438 26.3257 37.5467 26.4545 37.6841 26.5359C37.8214 26.6173 37.9837 26.6458 38.1405 26.6159L38.1681 26.6104C39.6861 26.4301 41.2136 26.3407 42.7422 26.3426C44.4953 28.1612 46.1139 29.7594 47.566 31.103C47.5494 32.4641 47.4548 33.8232 47.2828 35.1735C47.0836 36.7415 46.7488 38.2893 46.282 39.7994C46.2571 39.856 46.2386 39.9151 46.2269 39.9758C45.5328 42.3456 44.2777 44.5133 42.5681 46.2952C40.4954 48.3024 38.0364 50.2808 34.0685 51.1565Z" fill="black"/>
<path d="M17.0339 19.393C17.1558 19.3931 17.2762 19.3664 17.3865 19.3145C17.4968 19.2627 17.5943 19.1871 17.672 19.0932C17.7404 19.0105 24.568 10.8266 29.933 10.8266C30.1522 10.8266 30.3625 10.7396 30.5175 10.5845C30.6725 10.4295 30.7596 10.2192 30.7596 9.99999C30.7596 9.78075 30.6725 9.57049 30.5175 9.41546C30.3625 9.26043 30.1522 9.17334 29.933 9.17334C23.7981 9.17334 16.6966 17.6807 16.3973 18.0422C16.2982 18.1631 16.2354 18.3096 16.2162 18.4648C16.197 18.6199 16.2222 18.7773 16.2888 18.9187C16.3555 19.0601 16.4608 19.1797 16.5927 19.2637C16.7246 19.3476 16.8775 19.3925 17.0339 19.393Z" fill="black"/>
<path d="M36.989 10.824C42.3468 10.824 49.1816 19.0107 49.2499 19.0906C49.3191 19.1743 49.4041 19.2435 49.5001 19.2944C49.596 19.3452 49.701 19.3767 49.8091 19.3869C49.9172 19.3972 50.0263 19.3861 50.1301 19.3542C50.2339 19.3223 50.3304 19.2702 50.4141 19.2011C50.4978 19.1319 50.5671 19.0469 50.6179 18.9509C50.6688 18.855 50.7002 18.7499 50.7105 18.6418C50.7208 18.5337 50.7096 18.4247 50.6777 18.3209C50.6458 18.2171 50.5938 18.1206 50.5246 18.0369C50.2254 17.6753 43.1239 9.16797 36.989 9.16797C36.7698 9.16797 36.5595 9.25506 36.4045 9.41009C36.2494 9.56512 36.1624 9.77538 36.1624 9.99462C36.1624 10.2139 36.2494 10.4241 36.4045 10.5792C36.5595 10.7342 36.7698 10.8213 36.989 10.8213V10.824Z" fill="black"/>
</svg>
