<svg width="70" height="70" viewBox="0 0 70 70" fill="none" xmlns="http://www.w3.org/2000/svg">
<path d="M61.74 8.21555C56.2956 2.77114 49.0577 -0.145486 41.3593 0.00558803C38.0268 0.0705295 35.2304 2.39612 34.559 5.66082L30.0366 27.6479L1.83053 55.8537C-0.610176 58.2945 -0.610176 62.2662 1.83053 64.7072L5.28992 68.1665C6.47227 69.3488 8.0444 70 9.7166 70C11.3888 70 12.9609 69.3488 14.1433 68.1665L41.7743 40.5355C41.8164 40.5301 41.8584 40.5238 41.9001 40.5144L64.4189 35.4543C67.6107 34.7369 69.8845 31.9517 69.9482 28.6813L69.9498 28.5962C70.1002 20.8981 67.1844 13.6601 61.74 8.21555ZM12.2109 66.2341C11.5447 66.9003 10.6589 67.2673 9.7166 67.2673C8.77434 67.2673 7.88867 66.9003 7.22244 66.2341L6.26637 65.278L11.4133 60.1312C11.9469 59.5976 11.947 58.7325 11.4133 58.1987C10.8795 57.6654 10.0145 57.6654 9.4809 58.1987L4.33399 63.3456L3.76291 62.7745C2.38752 61.3993 2.38752 59.1613 3.76291 57.786L18.7351 42.8137L27.1831 51.2616L12.2109 66.2341ZM29.1155 49.3295L20.6676 40.8816L31.0182 30.5311L39.4661 38.9789L29.1155 49.3295ZM67.2178 28.5428L67.2161 28.6278C67.1769 30.6367 65.7803 32.3476 63.8199 32.7882L42.035 37.6834L40.9187 36.5671L50.2766 32.5225C50.9693 32.2231 51.2881 31.4189 50.9887 30.7263C50.6893 30.0337 49.8851 29.7146 49.1925 30.0141L38.84 34.4887L38.1551 33.8037L43.3913 28.5674C43.9249 28.0338 43.9249 27.1686 43.3913 26.635C42.8576 26.1014 41.9925 26.1014 41.4589 26.635L36.2227 31.8712L35.5667 31.2152L40.0412 20.8627C40.3407 20.1701 40.0218 19.3658 39.3291 19.0665C38.6365 18.7668 37.8321 19.0859 37.5329 19.7787L33.4883 29.1365L32.6855 28.3337L37.2356 6.21153C37.6481 4.20627 39.3657 2.77783 41.4127 2.73791C48.3648 2.60188 54.8937 5.23412 59.8078 10.1481C64.7217 15.0619 67.3534 21.5949 67.2178 28.5428Z" fill="black"/>
<path d="M47.0346 22.9911C46.7804 22.7371 46.4293 22.5908 46.0685 22.5908C45.7092 22.5908 45.3566 22.737 45.1025 22.9911C44.8483 23.2453 44.7021 23.5978 44.7021 23.9572C44.7021 24.3165 44.8483 24.6691 45.1025 24.9232C45.3566 25.1774 45.7091 25.3236 46.0685 25.3236C46.4278 25.3236 46.7804 25.1774 47.0346 24.9232C47.2887 24.6691 47.4349 24.3166 47.4349 23.9572C47.4349 23.5978 47.2887 23.2453 47.0346 22.9911Z" fill="#F4BC00"/>
<path d="M14.9657 54.6461C14.7116 54.3919 14.3591 54.2456 13.9997 54.2456C13.6404 54.2456 13.2878 54.3918 13.0336 54.6461C12.7795 54.9001 12.6333 55.2525 12.6333 55.612C12.6333 55.9728 12.7795 56.3239 13.0336 56.5794C13.2878 56.8336 13.6402 56.9797 13.9997 56.9797C14.359 56.9797 14.7116 56.8337 14.9657 56.5794C15.2199 56.3239 15.366 55.9729 15.366 55.612C15.366 55.2525 15.2199 54.8999 14.9657 54.6461Z" fill="#F4BC00"/>
</svg>
