<svg width="73" height="71" viewBox="0 0 73 71" fill="none" xmlns="http://www.w3.org/2000/svg">
<path d="M29.5624 3.03185C30.5768 2.87167 40.6097 2.87167 41.6217 3.03066C48.1224 4.21358 52.4744 9.03067 54.5543 17.3467C56.0932 23.4986 56.5784 29.7157 56.9771 36.074L59.3453 35.9257C58.955 29.7109 58.4412 23.1118 56.8549 16.7712C54.5614 7.59978 49.4406 2.03995 42.0453 0.695677C40.9004 0.486858 30.2873 0.486858 29.1424 0.695677C25.5889 1.34112 22.5432 2.96303 20.0884 5.51514L21.7981 7.16078C23.9017 4.97648 26.5155 3.58712 29.5624 3.03185Z" fill="black"/>
<path d="M67.6294 59.7298C65.6669 59.7298 64.0699 61.3268 64.0699 63.2892V64.4757H66.4429V63.2892C66.4429 62.6343 66.9744 62.1027 67.6294 62.1027C68.2843 62.1027 68.8158 62.6343 68.8158 63.2892V63.9524C68.8158 64.7972 68.5346 65.6325 68.0268 66.2993C67.9675 66.3752 67.907 66.4476 67.837 66.5117C66.9614 67.3125 65.3062 68.5429 64.0415 67.7788C62.8123 67.0361 62.3685 63.778 62.1028 61.8298C62.0339 61.3315 61.9722 60.8747 61.9058 60.4915L59.5673 60.8925C59.629 61.2544 59.6871 61.6827 59.7512 62.1514C59.992 63.924 60.3052 66.1189 61.1227 67.7919L53.4462 67.3398C49.4241 67.1025 46.2728 63.759 46.2728 59.7298V47.8342C49.5866 43.9034 51.1279 38.1952 52.4662 33.1824C52.955 31.3564 53.4154 29.6301 53.9327 28.0675C54.0537 27.7044 53.9908 27.3058 53.7654 26.9973C52.8008 25.6696 44.2534 14.1489 38.3412 14.1489C38.276 14.1489 38.2107 14.1501 38.1454 14.1525C37.1073 14.1988 35.6443 14.6259 34.5765 16.4056C31.2817 21.8966 17.5506 26.6449 17.413 26.6923C16.8138 26.8976 16.4816 27.5347 16.656 28.1434C16.9645 29.2148 17.2635 30.3514 17.5719 31.5249C19.0242 37.0337 20.8122 43.8001 24.9139 48.1593V59.7298C24.9139 63.759 21.7626 67.1025 17.7392 67.3386L10.0627 67.7907C10.8802 66.1177 11.1935 63.9228 11.4343 62.1502C11.4996 61.6815 11.5577 61.2532 11.6182 60.8925C12.4487 56.0671 13.0847 51.1729 13.5095 46.3475C13.7479 43.6352 13.9164 40.8731 14.0778 38.2012C14.3803 33.2322 14.6924 28.0924 15.4707 23.1329L13.125 22.7639C12.3301 27.8349 12.0133 33.0317 11.7096 38.0564C11.547 40.7129 11.3809 43.4596 11.1448 46.1399C10.726 50.9012 10.0995 55.729 9.27967 60.4915C9.21323 60.8747 9.15153 61.3315 9.08272 61.8298C8.81695 63.778 8.3732 67.0361 7.14401 67.7788C6.42857 68.2119 5.50193 68.0576 4.38783 67.328C3.7673 66.9198 3.26068 66.2922 2.92253 65.5091L2.74338 65.095C2.49778 64.5208 2.3732 63.9133 2.3732 63.2892C2.3732 62.6343 2.90474 62.1027 3.55967 62.1027C4.21461 62.1027 4.74615 62.6343 4.74615 63.2892V64.4757H7.1191V63.2892C7.1191 61.3268 5.5221 59.7298 3.55967 59.7298C1.59724 59.7298 0.000244141 61.3268 0.000244141 63.2892C0.000244141 64.2407 0.191267 65.1638 0.568566 66.0359L0.747724 66.45C1.26977 67.6602 2.08132 68.6497 3.0922 69.3106C4.19918 70.0367 5.16616 70.325 6.00144 70.376L6.00262 70.4045L6.20907 70.3926C6.22924 70.3926 6.25297 70.3974 6.27314 70.3974C6.45467 70.3974 6.62434 70.3796 6.79044 70.3582L17.8816 69.7057C23.1567 69.3972 27.2892 65.0143 27.2892 59.7298V50.2012C29.483 51.7044 32.1929 52.618 35.5945 52.618C39.0768 52.618 41.7642 51.6451 43.8998 50.0707V59.7298C43.8998 65.0143 48.0323 69.3972 53.3086 69.7068L64.3238 70.3547C64.5196 70.3831 64.7178 70.4009 64.9183 70.4009C64.9491 70.4009 64.98 70.3962 65.0108 70.395L65.1876 70.4057L65.1888 70.3843C66.5366 70.3001 67.9865 69.5894 69.4387 68.2629C69.612 68.1039 69.7638 67.9331 69.911 67.742C70.7344 66.6588 71.1888 65.3121 71.1888 63.9524V63.2892C71.1888 61.3268 69.5918 59.7298 67.6294 59.7298ZM35.5945 50.2463C24.9649 50.2463 22.2573 39.9785 19.8678 30.9186C19.6554 30.1118 19.4478 29.3216 19.2378 28.5587C22.6857 27.2773 33.4197 22.9478 36.6125 17.6277C37.1761 16.688 37.7836 16.5444 38.251 16.5231C41.6788 16.3949 48.0015 23.2326 51.4909 27.9097C51.0282 29.3702 50.6129 30.9304 50.1751 32.5713C47.8532 41.2611 45.4529 50.2463 35.5945 50.2463Z" fill="black"/>
<path d="M1.73848 13.3137C2.89411 14.4705 4.41399 15.0484 5.93268 15.0484C6.22218 15.0484 6.51049 15.008 6.79762 14.9653C6.53541 16.7581 7.07288 18.6481 8.44919 20.0244L9.83974 21.415C10.0711 21.6463 10.3748 21.7626 10.6786 21.7626C10.9823 21.7626 11.2861 21.6463 11.5174 21.415L12.908 20.0244C14.2843 18.6481 14.8229 16.7581 14.5595 14.9653C14.8467 15.0068 15.135 15.0484 15.4245 15.0484C16.9432 15.0484 18.463 14.4705 19.6187 13.3137L21.0092 11.9232C21.4731 11.4593 21.4731 10.7094 21.0092 10.2455L19.6187 8.85495C18.2424 7.47864 16.3523 6.93998 14.5595 7.20338C14.8218 5.41061 14.2843 3.52056 12.908 2.14425L11.5174 0.753696C11.0535 0.289784 10.3037 0.289784 9.83974 0.753696L8.44919 2.14425C7.07288 3.52056 6.53422 5.41061 6.79762 7.20338C5.00485 6.94117 3.1148 7.47864 1.73848 8.85495L0.347934 10.2455C-0.115978 10.7094 -0.115978 11.4593 0.347934 11.9232L1.73848 13.3137ZM12.908 10.5326C14.2522 9.18835 16.5967 9.18835 17.941 10.5326L18.4927 11.0843L17.941 11.6361C16.5967 12.9803 14.2522 12.9803 12.908 11.6361L12.3563 11.0843L12.908 10.5326ZM10.1269 3.82192L10.6786 3.27021L11.2303 3.82192C11.9018 4.49347 12.272 5.38688 12.272 6.33844C12.272 7.28999 11.9018 8.18341 11.2303 8.85495L10.6786 9.40666L10.1269 8.85495C9.45532 8.18341 9.08514 7.28999 9.08514 6.33844C9.08514 5.38688 9.45532 4.49347 10.1269 3.82192ZM10.1269 13.3137L10.6786 12.762L11.2303 13.3137C11.9018 13.9853 12.272 14.8787 12.272 15.8302C12.272 16.7818 11.9018 17.6752 11.2303 18.3468L10.6786 18.8985L10.1269 18.3468C9.45532 17.6752 9.08514 16.7818 9.08514 15.8302C9.08514 14.8787 9.45532 13.9853 10.1269 13.3137ZM3.41616 10.5326C4.76044 9.18835 7.10491 9.18835 8.44919 10.5326L9.0009 11.0843L8.44919 11.6361C7.10491 12.9803 4.76044 12.9803 3.41616 11.6361L2.86445 11.0843L3.41616 10.5326Z" fill="#F4BC00"/>
<path d="M72.0278 45.8397L70.6372 44.4492C69.2609 43.0729 67.3709 42.5342 65.5781 42.7976C65.8403 41.0049 65.3028 39.1148 63.9265 37.7385L62.536 36.3479C62.0721 35.884 61.3222 35.884 60.8583 36.3479L59.4677 37.7385C58.0914 39.1148 57.5528 41.0049 57.8162 42.7976C56.0234 42.5354 54.1334 43.0729 52.757 44.4492L51.3665 45.8397C50.9026 46.3037 50.9026 47.0535 51.3665 47.5174L52.757 48.908C53.9139 50.0648 55.4325 50.6426 56.9512 50.6426C57.2407 50.6426 57.529 50.6023 57.8162 50.5595C57.554 52.3523 58.0914 54.2424 59.4677 55.6187L60.8583 57.0092C61.0897 57.2406 61.3934 57.3569 61.6971 57.3569C62.0009 57.3569 62.3046 57.2406 62.536 57.0092L63.9265 55.6187C65.3028 54.2424 65.8415 52.3523 65.5781 50.5595C65.8652 50.6011 66.1535 50.6426 66.443 50.6426C67.9617 50.6426 69.4816 50.0648 70.6372 48.908L72.0278 47.5174C72.4917 47.0535 72.4917 46.3037 72.0278 45.8397ZM59.4677 47.2303C58.1235 48.5746 55.779 48.5746 54.4347 47.2303L53.883 46.6786L54.4347 46.1269C55.779 44.7826 58.1235 44.7826 59.4677 46.1269L60.0195 46.6786L59.4677 47.2303ZM62.2488 53.941L61.6971 54.4927L61.1454 53.941C60.4739 53.2695 60.1037 52.376 60.1037 51.4245C60.1037 50.4729 60.4739 49.5795 61.1454 48.908L61.6971 48.3563L62.2488 48.908C62.9204 49.5795 63.2906 50.4729 63.2906 51.4245C63.2906 52.376 62.9204 53.2695 62.2488 53.941ZM62.2488 44.4492L61.6971 45.0009L61.1454 44.4492C60.4739 43.7776 60.1037 42.8842 60.1037 41.9327C60.1037 40.9811 60.4739 40.0877 61.1454 39.4162L61.6971 38.8645L62.2488 39.4162C62.9204 40.0877 63.2906 40.9811 63.2906 41.9327C63.2906 42.8842 62.9204 43.7776 62.2488 44.4492ZM68.9596 47.2303C67.6153 48.5746 65.2708 48.5746 63.9265 47.2303L63.3748 46.6786L63.9265 46.1269C65.2708 44.7826 67.6153 44.7826 68.9596 46.1269L69.5113 46.6786L68.9596 47.2303Z" fill="#F4BC00"/>
<path d="M59.324 0.40625H61.6969V2.7792H59.324V0.40625Z" fill="black"/>
<path d="M61.697 2.77881H64.07V5.15176H61.697V2.77881Z" fill="black"/>
<path d="M56.9512 2.77881H59.3241V5.15176H56.9512V2.77881Z" fill="black"/>
<path d="M59.324 5.15186H61.6969V7.52481H59.324V5.15186Z" fill="black"/>
<path d="M2.37329 27.6948H4.74624V30.0678H2.37329V27.6948Z" fill="black"/>
<path d="M4.74609 30.0679H7.11905V32.4408H4.74609V30.0679Z" fill="black"/>
<path d="M0.000244141 30.0679H2.3732V32.4408H0.000244141V30.0679Z" fill="black"/>
<path d="M2.37329 32.4409H4.74624V34.8139H2.37329V32.4409Z" fill="black"/>
<path d="M66.4429 12.271H68.8158V14.6439H66.4429V12.271Z" fill="black"/>
<path d="M68.8159 14.6436H71.1889V17.0165H68.8159V14.6436Z" fill="black"/>
<path d="M64.0698 14.6436H66.4428V17.0165H64.0698V14.6436Z" fill="black"/>
<path d="M66.4429 17.0166H68.8158V19.3896H66.4429V17.0166Z" fill="black"/>
</svg>
