<svg width="58" height="70" viewBox="0 0 58 70" fill="none" xmlns="http://www.w3.org/2000/svg">
<path d="M40.8739 38.0478H38.5916V30.2327C38.5916 29.6597 38.1272 29.1953 37.5542 29.1953C36.9812 29.1953 36.5168 29.6597 36.5168 30.2327V38.0478H20.8866V22.4176H36.5168V26.014C36.5168 26.587 36.9812 27.0514 37.5542 27.0514C38.1272 27.0514 38.5916 26.587 38.5916 26.014V21.3802C38.5916 20.8072 38.1272 20.3427 37.5542 20.3427H36.3784V8.36264C36.3784 7.12356 35.6899 6.00944 34.5815 5.45532L24.1276 0.228301C23.4581 -0.106386 22.6783 -0.0713859 22.0416 0.32209C21.4049 0.715566 21.0248 1.39738 21.0248 2.14578V20.3427H19.849C19.276 20.3427 18.8116 20.8072 18.8116 21.3802V38.0478H16.5294C15.9564 38.0478 15.4919 38.5122 15.4919 39.0852V52.4332C15.4919 53.0062 15.9564 53.4706 16.5294 53.4706C17.1022 53.4706 17.5668 53.0062 17.5668 52.4332V46.7621H39.8365V64.5363C39.8365 66.4049 38.3161 67.9252 36.4476 67.9252H20.9558C19.0872 67.9252 17.5669 66.4049 17.5669 64.5363V56.7212C17.5669 56.1484 17.1025 55.6838 16.5295 55.6838C15.9565 55.6838 15.4921 56.1482 15.4921 56.7212V64.5363C15.4921 67.5489 17.9432 70 20.9558 70H36.4476C39.4602 70 41.9113 67.5489 41.9113 64.5363V39.0852C41.9113 38.5122 41.4469 38.0478 40.8739 38.0478ZM23.1325 2.08713C23.1654 2.06689 23.1869 2.07769 23.1999 2.08412L33.6539 7.31114C34.0548 7.51157 34.3039 7.91462 34.3039 8.36278V20.3429H23.0999V2.14592H23.0998C23.0996 2.13142 23.0996 2.10722 23.1325 2.08713ZM39.8365 44.6871H17.5669V40.1225H39.8366V44.6871H39.8365Z" fill="black"/>
<path d="M55.2591 56.8594C53.3906 56.8594 51.8702 55.3391 51.8702 53.4705C51.8702 52.8975 51.4058 52.4331 50.8328 52.4331C50.26 52.4331 49.7954 52.8975 49.7954 53.4705C49.7954 55.3391 48.2751 56.8594 46.4066 56.8594C45.8336 56.8594 45.3691 57.3238 45.3691 57.8968C45.3691 58.4698 45.8336 58.9342 46.4066 58.9342C48.2751 58.9342 49.7954 60.4545 49.7954 62.3231C49.7954 62.8959 50.2598 63.3605 50.8328 63.3605C51.4058 63.3605 51.8702 62.896 51.8702 62.3231C51.8702 60.4545 53.3906 58.9342 55.2591 58.9342C55.8319 58.9342 56.2965 58.4698 56.2965 57.8968C56.2965 57.3238 55.8319 56.8594 55.2591 56.8594ZM50.8328 59.1232C50.4916 58.6526 50.077 58.2379 49.6063 57.8967C50.0769 57.5554 50.4916 57.1409 50.8328 56.6701C51.1741 57.1407 51.5886 57.5554 52.0593 57.8967C51.5886 58.2379 51.1741 58.6524 50.8328 59.1232Z" fill="#F4BC00"/>
<path d="M9.88994 33.6216C8.02141 33.6216 6.5011 32.1013 6.5011 30.2327C6.5011 29.6597 6.03667 29.1953 5.46368 29.1953C4.89069 29.1953 4.42626 29.6597 4.42626 30.2327C4.42626 32.1013 2.90595 33.6216 1.03742 33.6216C0.464432 33.6216 0 34.086 0 34.659C0 35.232 0.464432 35.6964 1.03742 35.6964C2.90595 35.6964 4.42626 37.2167 4.42626 39.0853C4.42626 39.6581 4.89069 40.1227 5.46368 40.1227C6.03667 40.1227 6.5011 39.6582 6.5011 39.0853C6.5011 37.2167 8.02141 35.6964 9.88994 35.6964C10.4629 35.6964 10.9274 35.232 10.9274 34.659C10.9274 34.086 10.4629 33.6216 9.88994 33.6216ZM5.46368 35.8855C5.12243 35.4149 4.7079 35.0002 4.23718 34.659C4.70777 34.3177 5.12243 33.9032 5.46368 33.4325C5.80493 33.9031 6.21946 34.3177 6.69018 34.659C6.21946 35.0002 5.80493 35.4148 5.46368 35.8855Z" fill="#F4BC00"/>
<path d="M56.3656 11.4904C53.8869 11.4904 51.8702 9.47365 51.8702 6.99494C51.8702 6.42195 51.4057 5.95752 50.8327 5.95752C50.2599 5.95752 49.7953 6.42195 49.7953 6.99494C49.7953 9.47365 47.7786 11.4904 45.2999 11.4904C44.7269 11.4904 44.2625 11.9548 44.2625 12.5278C44.2625 13.1008 44.7269 13.5652 45.2999 13.5652C47.7786 13.5652 49.7953 15.582 49.7953 18.0607C49.7953 18.6337 50.2597 19.0981 50.8327 19.0981C51.4057 19.0981 51.8702 18.6337 51.8702 18.0607C51.8702 15.582 53.8869 13.5652 56.3656 13.5652C56.9384 13.5652 57.403 13.1008 57.403 12.5278C57.403 11.9548 56.9386 11.4904 56.3656 11.4904ZM50.8329 14.5206C50.32 13.7219 49.6388 13.0408 48.8401 12.5278C49.6388 12.015 50.3199 11.3337 50.8329 10.535C51.3457 11.3337 52.027 12.0148 52.8257 12.5278C52.027 13.0408 51.3457 13.7219 50.8329 14.5206Z" fill="#F4BC00"/>
</svg>
