<svg width="70" height="70" viewBox="0 0 70 70" fill="none" xmlns="http://www.w3.org/2000/svg">
<path d="M7.90325 68.8712C7.65537 68.8711 7.41439 68.7896 7.21749 68.639C7.0206 68.4884 6.87873 68.2772 6.81379 68.038C6.79798 67.9804 5.20613 62.2915 0.794112 60.9187C0.564026 60.8472 0.362835 60.704 0.219955 60.51C0.0770746 60.3161 0 60.0814 0 59.8405C0 59.5996 0.0770746 59.365 0.219955 59.171C0.362835 58.977 0.564026 58.8338 0.794112 58.7624C5.22871 57.3816 6.79798 51.7029 6.81266 51.6498C6.87597 51.4087 7.01728 51.1954 7.21456 51.043C7.41184 50.8907 7.65399 50.8079 7.90325 50.8076C8.15112 50.8076 8.3921 50.8892 8.589 51.0398C8.78589 51.1904 8.92776 51.4016 8.9927 51.6408C9.00851 51.6984 10.6004 57.3873 15.0124 58.7601C15.2425 58.8316 15.4437 58.9747 15.5865 59.1687C15.7294 59.3627 15.8065 59.5973 15.8065 59.8383C15.8065 60.0792 15.7294 60.3138 15.5865 60.5078C15.4437 60.7018 15.2425 60.845 15.0124 60.9164C10.5778 62.2972 9.00851 67.9759 8.99383 68.029C8.93052 68.27 8.78921 68.4834 8.59193 68.6357C8.39465 68.7881 8.1525 68.8709 7.90325 68.8712ZM3.74073 59.8394C5.52454 61.0844 6.958 62.7675 7.90325 64.7267C8.8486 62.7672 10.2825 61.0841 12.0669 59.8394C10.2825 58.5947 8.8486 56.9116 7.90325 54.9521C6.958 56.9113 5.52454 58.5944 3.74073 59.8394Z" fill="#F4BC00"/>
<path d="M64.3519 59.8392C64.1006 59.8387 63.8567 59.7543 63.6587 59.5995C63.4608 59.4447 63.3201 59.2283 63.2591 58.9845C63.2489 58.9484 62.2283 55.0535 59.4815 54.1367C59.2557 54.0625 59.059 53.9188 58.9196 53.7262C58.7801 53.5337 58.7051 53.302 58.7051 53.0642C58.7051 52.8264 58.7801 52.5948 58.9196 52.4022C59.059 52.2096 59.2557 52.0659 59.4815 51.9917C62.2283 51.075 63.2489 47.18 63.2591 47.1371C63.3259 46.8973 63.4683 46.6854 63.6653 46.5331C63.8622 46.3807 64.103 46.296 64.3519 46.2915C64.6028 46.2918 64.8463 46.3757 65.0442 46.5298C65.2421 46.684 65.383 46.8996 65.4448 47.1428C65.4549 47.1823 66.4755 51.0772 69.2223 51.9973C69.4482 52.0716 69.6448 52.2152 69.7843 52.4078C69.9237 52.6004 69.9987 52.8321 69.9987 53.0699C69.9987 53.3076 69.9237 53.5393 69.7843 53.7319C69.6448 53.9245 69.4482 54.0681 69.2223 54.1424C66.4755 55.0591 65.4549 58.9541 65.4448 58.997C65.3813 59.2384 65.2397 59.452 65.042 59.6044C64.8442 59.7568 64.6016 59.8394 64.3519 59.8392ZM62.1425 53.0653C63.0463 53.8146 63.7965 54.7316 64.3519 55.7658C64.9073 54.7316 65.6576 53.8146 66.5613 53.0653C65.6576 52.3161 64.9073 51.3991 64.3519 50.3648C63.7965 51.3991 63.0463 52.3161 62.1425 53.0653Z" fill="#F4BC00"/>
<path d="M12.4191 16.9384C12.1678 16.9379 11.9238 16.8536 11.7259 16.6988C11.5279 16.5439 11.3873 16.3275 11.3262 16.0838C11.316 16.0476 10.2955 12.1527 7.54867 11.236C7.3228 11.1617 7.12613 11.0181 6.9867 10.8255C6.84728 10.6329 6.77222 10.4012 6.77222 10.1634C6.77222 9.92568 6.84728 9.69399 6.9867 9.5014C7.12613 9.30881 7.3228 9.16516 7.54867 9.09092C10.2955 8.17419 11.316 4.27924 11.3262 4.23634C11.3857 3.99249 11.5263 3.77606 11.7248 3.62246C11.9233 3.46885 12.1681 3.38715 12.4191 3.39074C12.6699 3.39106 12.9135 3.4749 13.1114 3.62905C13.3093 3.78319 13.4502 3.99885 13.5119 4.24198C13.5221 4.2815 14.5426 8.17645 17.2894 9.09656C17.5153 9.1708 17.712 9.31446 17.8514 9.50704C17.9908 9.69963 18.0659 9.93132 18.0659 10.1691C18.0659 10.4068 17.9908 10.6385 17.8514 10.8311C17.712 11.0237 17.5153 11.1674 17.2894 11.2416C14.5426 12.1583 13.5221 16.0533 13.5119 16.0962C13.4485 16.3376 13.3068 16.5513 13.1091 16.7037C12.9114 16.856 12.6687 16.9386 12.4191 16.9384ZM10.2097 10.1646C11.1134 10.9138 11.8637 11.8308 12.4191 12.8651C12.9744 11.8308 13.7247 10.9138 14.6284 10.1646C13.7247 9.41533 12.9744 8.49831 12.4191 7.46407C11.8637 8.49831 11.1134 9.41533 10.2097 10.1646Z" fill="#F4BC00"/>
<path d="M64.3518 13.5514C64.0978 13.5511 63.8512 13.4652 63.6521 13.3074C63.453 13.1497 63.3129 12.9294 63.2544 12.6821C63.0546 11.8433 62.183 9.53794 60.5889 8.9712C60.3695 8.893 60.1795 8.74881 60.0452 8.5584C59.911 8.368 59.8389 8.14071 59.8389 7.90771C59.8389 7.67471 59.911 7.44741 60.0452 7.25701C60.1795 7.0666 60.3695 6.92241 60.5889 6.84421C62.183 6.27973 63.0546 3.97211 63.2556 3.13216C63.3137 2.8849 63.4536 2.66449 63.6525 2.50654C63.8514 2.34859 64.0978 2.26234 64.3518 2.26172C64.6055 2.26221 64.8516 2.34814 65.0505 2.50565C65.2494 2.66316 65.3894 2.88306 65.448 3.1299C65.649 3.96985 66.5206 6.27521 68.1147 6.84196C68.3342 6.92015 68.5241 7.06435 68.6584 7.25475C68.7927 7.44516 68.8647 7.67245 68.8647 7.90545C68.8647 8.13845 68.7927 8.36574 68.6584 8.55614C68.5241 8.74655 68.3342 8.89074 68.1147 8.96894C66.5206 9.53342 65.649 11.841 65.448 12.681C65.3899 12.9283 65.25 13.1487 65.0511 13.3066C64.8522 13.4646 64.6058 13.5508 64.3518 13.5514ZM63.0682 7.90658C63.5706 8.38139 64.0028 8.92538 64.3518 9.52213C64.7008 8.92538 65.133 8.38139 65.6354 7.90658C65.133 7.43176 64.7008 6.88777 64.3518 6.29102C64.0028 6.88777 63.5706 7.43176 63.0682 7.90658Z" fill="#F4BC00"/>
<path d="M34.9986 69.9999C24.6561 69.9999 15.6447 60.3393 13.3845 46.9339C12.3628 46.4797 11.4301 45.8474 10.6298 45.0666C9.80044 44.2995 9.13221 43.375 8.6641 42.3468C8.19598 41.3187 7.93735 40.2077 7.90331 39.0785C7.88893 38.2881 8.03465 37.5029 8.3317 36.7703C8.62875 36.0377 9.07098 35.3727 9.63177 34.8155C9.8066 34.645 9.99543 34.4894 10.1963 34.3504C11.0686 33.6896 12.1101 33.2892 13.2004 33.1954C14.7618 18.1587 21.9026 10.8418 34.9986 10.8418C48.0947 10.8418 55.2535 18.1801 56.8025 33.2553C57.8988 33.3917 58.9481 33.7826 59.8665 34.3967C60.0424 34.521 60.2077 34.6596 60.361 34.811C60.923 35.3685 61.3663 36.034 61.6641 36.7674C61.9619 37.5009 62.1082 38.287 62.0939 39.0785C62.0593 40.2069 61.8004 41.3171 61.3323 42.3444C60.8642 43.3717 60.1963 44.2955 59.3675 45.0621C58.5672 45.8429 57.6345 46.4752 56.6128 46.9294C54.3526 60.3393 45.3411 69.9999 34.9986 69.9999ZM13.9501 35.4206C13.078 35.3933 12.222 35.6597 11.5194 36.177C11.4063 36.255 11.2998 36.3423 11.201 36.4378C10.8571 36.7833 10.5874 37.1955 10.4086 37.649C10.2298 38.1026 10.1456 38.5879 10.1613 39.0751C10.1942 39.9016 10.3908 40.7133 10.7396 41.4633C11.0884 42.2132 11.5826 42.8866 12.1934 43.4442C12.9277 44.1612 13.8075 44.7122 14.7731 45.0598C14.9655 45.1284 15.1356 45.2479 15.2655 45.4055C15.3953 45.5632 15.4799 45.7531 15.5103 45.9551C17.4239 58.5792 25.6169 67.742 34.9986 67.742C44.3804 67.742 52.5733 58.5792 54.4824 45.9528C54.5128 45.7509 54.5975 45.5609 54.7273 45.4033C54.8571 45.2456 55.0273 45.1261 55.2196 45.0575C56.1868 44.7113 57.0681 44.1611 57.8039 43.4442C58.4147 42.8866 58.9088 42.2132 59.2577 41.4633C59.6065 40.7133 59.8031 39.9016 59.836 39.0751C59.8516 38.587 59.767 38.1008 59.5873 37.6466C59.4077 37.1925 59.137 36.7799 58.7917 36.4345C58.714 36.3571 58.6301 36.2862 58.5411 36.2222C57.6987 35.7141 56.7362 35.4394 55.7525 35.4263C55.4721 35.4228 55.2031 35.3151 54.9977 35.1242C54.7924 34.9332 54.6654 34.6727 54.6416 34.3933C53.4009 19.8657 47.1577 13.0997 34.9986 13.0997C22.8396 13.0997 16.5964 19.8657 15.3545 34.3933C15.3298 34.6833 15.1939 34.9526 14.9753 35.1449C14.7568 35.3371 14.4724 35.4376 14.1815 35.4252C14.1036 35.4218 14.0269 35.4206 13.9501 35.4206Z" fill="black"/>
<path d="M59.1721 36.4154C59.0623 36.415 58.9532 36.399 58.848 36.3679C58.706 36.3254 58.5737 36.2553 58.4588 36.1616C58.3439 36.068 58.2485 35.9526 58.1781 35.8221C58.1078 35.6915 58.0638 35.5484 58.0488 35.4009C58.0338 35.2534 58.0479 35.1044 58.0905 34.9624C58.7498 32.7781 59.0879 30.5096 59.0942 28.2281C59.0942 12.9395 49.1852 2.26171 34.9985 2.26171C29.5199 2.16143 24.1801 3.98826 19.9109 7.42336C19.6796 7.6138 19.3822 7.70454 19.0839 7.67564C18.7857 7.64674 18.5112 7.50056 18.3208 7.26926C18.1304 7.03796 18.0396 6.74048 18.0685 6.44227C18.0974 6.14405 18.2436 5.86954 18.4749 5.6791C23.1476 1.90956 28.9958 -0.0991094 34.9985 0.00376404C50.269 0.00376404 61.3521 11.8738 61.3521 28.2281C61.346 30.7291 60.9759 33.2159 60.2536 35.6104C60.1839 35.8431 60.041 36.047 59.8462 36.192C59.6513 36.3371 59.4149 36.4154 59.1721 36.4154Z" fill="black"/>
<path d="M10.8251 36.4152C10.5822 36.4153 10.3458 36.337 10.1509 36.1919C9.95609 36.0469 9.81321 35.843 9.7435 35.6103C9.02116 33.2158 8.65112 30.729 8.64501 28.2279C8.63308 25.0639 9.07642 21.9145 9.96139 18.8767C10.0016 18.7325 10.07 18.5977 10.1628 18.4802C10.2556 18.3627 10.3708 18.2648 10.5017 18.1923C10.6326 18.1197 10.7767 18.0739 10.9255 18.0575C11.0743 18.0412 11.2249 18.0546 11.3685 18.0969C11.512 18.1393 11.6458 18.2098 11.7618 18.3043C11.8779 18.3989 11.974 18.5155 12.0446 18.6476C12.1152 18.7796 12.1588 18.9243 12.1729 19.0734C12.187 19.2224 12.1713 19.3728 12.1268 19.5157C11.3036 22.3461 10.8914 25.2802 10.903 28.2279C10.9092 30.5095 11.2473 32.778 11.9066 34.9623C11.9492 35.1043 11.9633 35.2533 11.9483 35.4008C11.9333 35.5483 11.8893 35.6914 11.819 35.822C11.7486 35.9525 11.6533 36.0679 11.5383 36.1615C11.4234 36.2552 11.2911 36.3253 11.1491 36.3678C11.0439 36.3989 10.9348 36.4149 10.8251 36.4152Z" fill="black"/>
<path d="M26.59 41.55C24.778 41.6235 23.0023 41.028 21.6011 39.8769C21.3847 39.6698 21.2595 39.3853 21.253 39.086C21.2464 38.7866 21.359 38.4969 21.5661 38.2805C21.7731 38.0642 22.0576 37.939 22.357 37.9324C22.6564 37.9258 22.9461 38.0385 23.1624 38.2455C24.1457 38.9879 25.3598 39.3586 26.59 39.2921C27.8212 39.3596 29.0365 38.9884 30.0198 38.2444C30.2393 38.0432 30.529 37.9361 30.8266 37.946C31.1242 37.9559 31.406 38.0821 31.6117 38.2975C31.816 38.5118 31.9273 38.7982 31.9214 39.0942C31.9155 39.3903 31.7928 39.672 31.5801 39.878C30.1783 41.0289 28.4022 41.624 26.59 41.55Z" fill="black"/>
<path d="M43.4072 41.5497C41.5948 41.6234 39.8187 41.0279 38.4171 39.8766C38.3095 39.7737 38.2233 39.6506 38.1635 39.5143C38.1037 39.378 38.0714 39.2312 38.0686 39.0824C38.0657 38.9336 38.0923 38.7857 38.1468 38.6472C38.2013 38.5087 38.2826 38.3823 38.3861 38.2754C38.4897 38.1685 38.6133 38.083 38.75 38.0241C38.8866 37.9651 39.0336 37.9337 39.1824 37.9317C39.3313 37.9298 39.479 37.9573 39.6172 38.0126C39.7553 38.068 39.8812 38.1501 39.9875 38.2543C40.9701 38.991 42.1808 39.3583 43.4072 39.2918C44.638 39.3592 45.8529 38.988 46.8358 38.2441C47.0554 38.0429 47.345 37.9358 47.6426 37.9457C47.9402 37.9556 48.222 38.0818 48.4277 38.2972C48.632 38.5115 48.7434 38.7979 48.7374 39.0939C48.7315 39.39 48.6088 39.6717 48.3961 39.8777C46.9946 41.0284 45.219 41.6235 43.4072 41.5497Z" fill="black"/>
<path d="M30.7954 33.647C30.595 33.6471 30.3983 33.594 30.2253 33.493C30.0523 33.392 29.9093 33.2468 29.8109 33.0723C29.4712 32.5149 28.9998 32.0493 28.4383 31.7165C27.8767 31.3836 27.242 31.1936 26.5899 31.1632C25.9372 31.1952 25.3022 31.3869 24.7408 31.7216C24.1794 32.0562 23.7088 32.5235 23.3701 33.0825C23.2177 33.3337 22.9733 33.5157 22.6889 33.5896C22.4045 33.6635 22.1024 33.6237 21.8469 33.4784C21.5914 33.3332 21.4026 33.094 21.3207 32.8118C21.2387 32.5296 21.27 32.2265 21.408 31.967C21.9462 31.0635 22.7027 30.3097 23.6081 29.7747C24.5136 29.2397 25.5389 28.9408 26.5899 28.9053C27.6416 28.9396 28.6679 29.2376 29.5743 29.772C30.4808 30.3064 31.2384 31.06 31.7776 31.9637C31.8743 32.1353 31.9245 32.3294 31.923 32.5264C31.9215 32.7235 31.8685 32.9167 31.7692 33.087C31.6698 33.2572 31.5277 33.3984 31.3569 33.4967C31.186 33.5949 30.9924 33.6467 30.7954 33.647Z" fill="black"/>
<path d="M47.6115 33.6471C47.4129 33.6475 47.2178 33.5955 47.0457 33.4964C46.8737 33.3973 46.7308 33.2545 46.6315 33.0826C46.3162 32.5034 45.8508 32.0199 45.2841 31.6828C44.7174 31.3457 44.0703 31.1674 43.4109 31.1667C42.7515 31.166 42.1041 31.3429 41.5367 31.6789C40.9692 32.0148 40.5028 32.4973 40.1862 33.0758C40.1149 33.2076 40.0179 33.3238 39.9012 33.4177C39.7844 33.5116 39.6501 33.5813 39.5061 33.6228C39.3621 33.6642 39.2113 33.6766 39.0625 33.6592C38.9137 33.6418 38.7698 33.5949 38.6393 33.5214C38.5087 33.4478 38.3942 33.3489 38.3022 33.2306C38.2103 33.1123 38.1428 32.9769 38.1037 32.8322C38.0647 32.6875 38.0548 32.5366 38.0747 32.388C38.0946 32.2395 38.1438 32.0964 38.2196 31.9672C38.7323 31.0406 39.4838 30.2684 40.396 29.7306C41.3081 29.1928 42.3477 28.9092 43.4066 28.9092C44.4655 28.9092 45.5051 29.1928 46.4173 29.7306C47.3295 30.2684 48.081 31.0406 48.5937 31.9672C48.6905 32.1388 48.7406 32.3329 48.7391 32.5299C48.7377 32.727 48.6846 32.9203 48.5853 33.0905C48.486 33.2607 48.3438 33.4019 48.173 33.5002C48.0021 33.5984 47.8086 33.6502 47.6115 33.6505V33.6471Z" fill="black"/>
<path d="M34.9987 56.9041C33.4928 56.9296 32.0002 56.6177 30.6306 55.9912C29.2609 55.3647 28.0489 54.4395 27.0835 53.2835C26.9058 53.0423 26.8312 52.7404 26.876 52.4442C26.9209 52.148 27.0816 51.8817 27.3228 51.704C27.564 51.5263 27.8659 51.4517 28.1621 51.4966C28.4583 51.5415 28.7245 51.7022 28.9022 51.9434C29.6739 52.7937 30.615 53.4732 31.6649 53.9383C32.7148 54.4033 33.8504 54.6435 34.9987 54.6435C36.147 54.6435 37.2826 54.4033 38.3325 53.9383C39.3824 53.4732 40.3235 52.7937 41.0951 51.9434C41.1816 51.8203 41.2919 51.7157 41.4193 51.6358C41.5468 51.5558 41.689 51.5022 41.8375 51.478C41.986 51.4539 42.1379 51.4596 42.2841 51.495C42.4304 51.5303 42.5681 51.5945 42.6892 51.6838C42.8102 51.7732 42.9122 51.8858 42.9892 52.0151C43.0661 52.1444 43.1164 52.2878 43.1371 52.4368C43.1579 52.5858 43.1486 52.7375 43.1099 52.8829C43.0712 53.0283 43.0038 53.1645 42.9117 53.2835C41.9464 54.4392 40.7348 55.3642 39.3656 55.9907C37.9963 56.6172 36.5042 56.9293 34.9987 56.9041Z" fill="black"/>
<path d="M30.3697 12.9269L28.3489 11.9176C33.1696 2.26715 49.1569 4.43365 49.8355 4.53074L49.516 6.7661C49.3669 6.74465 34.46 4.73282 30.3697 12.9269Z" fill="black"/>
<path d="M53.0621 23.7123C52.8395 23.7121 52.6219 23.6461 52.4367 23.5226C52.3723 23.4865 45.7498 19.1964 33.8696 19.1964C23.1692 19.1964 17.6914 23.4244 17.6372 23.4673C17.4031 23.654 17.1044 23.74 16.8068 23.7065C16.5092 23.6729 16.2372 23.5225 16.0505 23.2884C15.8638 23.0542 15.7778 22.7555 15.8113 22.4579C15.8449 22.1604 15.9953 21.8883 16.2294 21.7016C16.4733 21.5074 22.3168 16.9385 33.8696 16.9385C46.4847 16.9385 53.4008 21.4544 53.6887 21.644C53.8903 21.7785 54.0433 21.9742 54.1251 22.2023C54.2069 22.4304 54.2131 22.6788 54.1428 22.9107C54.0726 23.1426 53.9296 23.3457 53.735 23.4901C53.5403 23.6344 53.3044 23.7124 53.0621 23.7123Z" fill="black"/>
</svg>
