<svg width="16" height="4" viewBox="0 0 16 4" fill="none" xmlns="http://www.w3.org/2000/svg">
<path d="M2.088 3.936C1.48 3.936 0.976 3.752 0.576 3.384C0.192 3 0 2.528 0 1.968C0 1.408 0.192 0.944 0.576 0.576C0.976 0.192 1.48 0 2.088 0C2.68 0 3.168 0.192 3.552 0.576C3.936 0.944 4.128 1.408 4.128 1.968C4.128 2.528 3.936 3 3.552 3.384C3.168 3.752 2.68 3.936 2.088 3.936Z" fill="#C7C7C7"/>
<path d="M7.84238 3.936C7.23438 3.936 6.73037 3.752 6.33037 3.384C5.94637 3 5.75437 2.528 5.75437 1.968C5.75437 1.408 5.94637 0.944 6.33037 0.576C6.73037 0.192 7.23438 0 7.84238 0C8.43438 0 8.92238 0.192 9.30638 0.576C9.69038 0.944 9.88238 1.408 9.88238 1.968C9.88238 2.528 9.69038 3 9.30638 3.384C8.92238 3.752 8.43438 3.936 7.84238 3.936Z" fill="#C7C7C7"/>
<path d="M13.5968 3.936C12.9888 3.936 12.4847 3.752 12.0848 3.384C11.7008 3 11.5087 2.528 11.5087 1.968C11.5087 1.408 11.7008 0.944 12.0848 0.576C12.4847 0.192 12.9888 0 13.5968 0C14.1888 0 14.6768 0.192 15.0608 0.576C15.4448 0.944 15.6368 1.408 15.6368 1.968C15.6368 2.528 15.4448 3 15.0608 3.384C14.6768 3.752 14.1888 3.936 13.5968 3.936Z" fill="#C7C7C7"/>
</svg>
