<svg width="317" height="95" viewBox="0 0 317 95" fill="none" xmlns="http://www.w3.org/2000/svg">
<rect width="115" height="95" rx="10" fill="white"/>
<path d="M39.2577 46.268C39.2577 44.192 39.6297 42.566 40.3737 41.39C41.1297 40.214 42.3777 39.626 44.1177 39.626C45.8577 39.626 47.0997 40.214 47.8437 41.39C48.5997 42.566 48.9777 44.192 48.9777 46.268C48.9777 48.356 48.5997 49.994 47.8437 51.182C47.0997 52.37 45.8577 52.964 44.1177 52.964C42.3777 52.964 41.1297 52.37 40.3737 51.182C39.6297 49.994 39.2577 48.356 39.2577 46.268ZM46.4937 46.268C46.4937 45.38 46.4337 44.636 46.3137 44.036C46.2057 43.424 45.9777 42.926 45.6297 42.542C45.2937 42.158 44.7897 41.966 44.1177 41.966C43.4457 41.966 42.9357 42.158 42.5877 42.542C42.2517 42.926 42.0237 43.424 41.9037 44.036C41.7957 44.636 41.7417 45.38 41.7417 46.268C41.7417 47.18 41.7957 47.948 41.9037 48.572C42.0117 49.184 42.2397 49.682 42.5877 50.066C42.9357 50.438 43.4457 50.624 44.1177 50.624C44.7897 50.624 45.2997 50.438 45.6477 50.066C45.9957 49.682 46.2237 49.184 46.3317 48.572C46.4397 47.948 46.4937 47.18 46.4937 46.268ZM53.0904 46.052C51.8904 45.428 51.2904 44.462 51.2904 43.154C51.2904 42.506 51.4524 41.918 51.7764 41.39C52.1124 40.85 52.6104 40.424 53.2704 40.112C53.9424 39.788 54.7584 39.626 55.7184 39.626C56.6784 39.626 57.4884 39.788 58.1484 40.112C58.8204 40.424 59.3184 40.85 59.6424 41.39C59.9784 41.918 60.1464 42.506 60.1464 43.154C60.1464 43.814 59.9844 44.396 59.6604 44.9C59.3364 45.392 58.9044 45.776 58.3644 46.052C59.0244 46.34 59.5404 46.76 59.9124 47.312C60.2844 47.864 60.4704 48.518 60.4704 49.274C60.4704 50.09 60.2604 50.804 59.8404 51.416C59.4324 52.016 58.8684 52.478 58.1484 52.802C57.4284 53.126 56.6184 53.288 55.7184 53.288C54.8184 53.288 54.0084 53.126 53.2884 52.802C52.5804 52.478 52.0164 52.016 51.5964 51.416C51.1884 50.804 50.9844 50.09 50.9844 49.274C50.9844 48.518 51.1704 47.864 51.5424 47.312C51.9144 46.748 52.4304 46.328 53.0904 46.052ZM57.6984 43.514C57.6984 42.926 57.5184 42.47 57.1584 42.146C56.8104 41.822 56.3304 41.66 55.7184 41.66C55.1184 41.66 54.6384 41.822 54.2784 42.146C53.9304 42.47 53.7564 42.932 53.7564 43.532C53.7564 44.072 53.9364 44.504 54.2964 44.828C54.6684 45.152 55.1424 45.314 55.7184 45.314C56.2944 45.314 56.7684 45.152 57.1404 44.828C57.5124 44.492 57.6984 44.054 57.6984 43.514ZM55.7184 47.15C55.0344 47.15 54.4764 47.324 54.0444 47.672C53.6244 48.02 53.4144 48.518 53.4144 49.166C53.4144 49.766 53.6184 50.258 54.0264 50.642C54.4464 51.014 55.0104 51.2 55.7184 51.2C56.4264 51.2 56.9844 51.008 57.3924 50.624C57.8004 50.24 58.0044 49.754 58.0044 49.166C58.0044 48.53 57.7944 48.038 57.3744 47.69C56.9544 47.33 56.4024 47.15 55.7184 47.15ZM72.6539 42.884C73.4099 42.884 74.0819 43.052 74.6699 43.388C75.2579 43.712 75.7139 44.198 76.0379 44.846C76.3739 45.482 76.5419 46.25 76.5419 47.15V53H74.0219V47.492C74.0219 46.7 73.8239 46.094 73.4279 45.674C73.0319 45.242 72.4919 45.026 71.8079 45.026C71.1119 45.026 70.5599 45.242 70.1519 45.674C69.7559 46.094 69.5579 46.7 69.5579 47.492V53H67.0379V39.68H69.5579V44.27C69.8819 43.838 70.3139 43.502 70.8539 43.262C71.3939 43.01 71.9939 42.884 72.6539 42.884Z" fill="black"/>
<path d="M53 76L58 81L63 76" stroke="#BCBEC2" stroke-width="2" stroke-linecap="round" stroke-linejoin="round"/>
<path d="M53 17L58 12L63 17" stroke="#BCBEC2" stroke-width="2" stroke-linecap="round" stroke-linejoin="round"/>
<rect x="134" width="115" height="95" rx="10" fill="white"/>
<rect x="262" width="55" height="95" rx="10" fill="white"/>
<path d="M171.994 42.2V39.878H176.332V53H173.74V42.2H171.994ZM178.821 46.268C178.821 44.192 179.193 42.566 179.937 41.39C180.693 40.214 181.941 39.626 183.681 39.626C185.421 39.626 186.663 40.214 187.407 41.39C188.163 42.566 188.541 44.192 188.541 46.268C188.541 48.356 188.163 49.994 187.407 51.182C186.663 52.37 185.421 52.964 183.681 52.964C181.941 52.964 180.693 52.37 179.937 51.182C179.193 49.994 178.821 48.356 178.821 46.268ZM186.057 46.268C186.057 45.38 185.997 44.636 185.877 44.036C185.769 43.424 185.541 42.926 185.193 42.542C184.857 42.158 184.353 41.966 183.681 41.966C183.009 41.966 182.499 42.158 182.151 42.542C181.815 42.926 181.587 43.424 181.467 44.036C181.359 44.636 181.305 45.38 181.305 46.268C181.305 47.18 181.359 47.948 181.467 48.572C181.575 49.184 181.803 49.682 182.151 50.066C182.499 50.438 183.009 50.624 183.681 50.624C184.353 50.624 184.863 50.438 185.211 50.066C185.559 49.682 185.787 49.184 185.895 48.572C186.003 47.948 186.057 47.18 186.057 46.268ZM207.419 42.884C208.643 42.884 209.627 43.262 210.371 44.018C211.127 44.762 211.505 45.806 211.505 47.15V53H208.985V47.492C208.985 46.712 208.787 46.118 208.391 45.71C207.995 45.29 207.455 45.08 206.771 45.08C206.087 45.08 205.541 45.29 205.133 45.71C204.737 46.118 204.539 46.712 204.539 47.492V53H202.019V47.492C202.019 46.712 201.821 46.118 201.425 45.71C201.029 45.29 200.489 45.08 199.805 45.08C199.109 45.08 198.557 45.29 198.149 45.71C197.753 46.118 197.555 46.712 197.555 47.492V53H195.035V43.028H197.555V44.234C197.879 43.814 198.293 43.484 198.797 43.244C199.313 43.004 199.877 42.884 200.489 42.884C201.269 42.884 201.965 43.052 202.577 43.388C203.189 43.712 203.663 44.18 203.999 44.792C204.323 44.216 204.791 43.754 205.403 43.406C206.027 43.058 206.699 42.884 207.419 42.884Z" fill="black"/>
<path d="M284.841 33.005H280.671L279.981 35H277.776L281.541 24.515H283.986L287.751 35H285.531L284.841 33.005ZM284.271 31.325L282.756 26.945L281.241 31.325H284.271ZM300.573 24.53V35H298.473V28.19L295.668 35H294.078L291.258 28.19V35H289.158V24.53H291.543L294.873 32.315L298.203 24.53H300.573Z" fill="#F4BC00"/>
<path d="M286.861 61.77C286.861 62.33 286.726 62.855 286.456 63.345C286.196 63.835 285.781 64.23 285.211 64.53C284.651 64.83 283.941 64.98 283.081 64.98H281.326V69H279.226V58.53H283.081C283.891 58.53 284.581 58.67 285.151 58.95C285.721 59.23 286.146 59.615 286.426 60.105C286.716 60.595 286.861 61.15 286.861 61.77ZM282.991 63.285C283.571 63.285 284.001 63.155 284.281 62.895C284.561 62.625 284.701 62.25 284.701 61.77C284.701 60.75 284.131 60.24 282.991 60.24H281.326V63.285H282.991ZM299.767 58.53V69H297.667V62.19L294.862 69H293.272L290.452 62.19V69H288.352V58.53H290.737L294.067 66.315L297.397 58.53H299.767Z" fill="#BCBEC2"/>
<path d="M187 76L192 81L197 76" stroke="#BCBEC2" stroke-width="2" stroke-linecap="round" stroke-linejoin="round"/>
<path d="M187 17L192 12L197 17" stroke="#BCBEC2" stroke-width="2" stroke-linecap="round" stroke-linejoin="round"/>
<path d="M125.492 56.168C124.884 56.168 124.38 55.984 123.98 55.616C123.596 55.232 123.404 54.76 123.404 54.2C123.404 53.64 123.596 53.176 123.98 52.808C124.38 52.424 124.884 52.232 125.492 52.232C126.084 52.232 126.572 52.424 126.956 52.808C127.34 53.176 127.532 53.64 127.532 54.2C127.532 54.76 127.34 55.232 126.956 55.616C126.572 55.984 126.084 56.168 125.492 56.168ZM125.492 46.232C124.884 46.232 124.38 46.048 123.98 45.68C123.596 45.296 123.404 44.824 123.404 44.264C123.404 43.704 123.596 43.24 123.98 42.872C124.38 42.488 124.884 42.296 125.492 42.296C126.084 42.296 126.572 42.488 126.956 42.872C127.34 43.24 127.532 43.704 127.532 44.264C127.532 44.824 127.34 45.296 126.956 45.68C126.572 46.048 126.084 46.232 125.492 46.232Z" fill="black"/>
</svg>
