<svg width="17" height="17" viewBox="0 0 17 17" fill="none" xmlns="http://www.w3.org/2000/svg">
<g clip-path="url(#clip0_751_2546)">
<path d="M8.5 0C3.8131 0 0 3.8131 0 8.5C0 13.1869 3.8131 17 8.5 17C13.1869 17 17 13.1869 17 8.5C17 3.8131 13.1869 0 8.5 0ZM8.5 15.3C4.75065 15.3 1.7 12.2494 1.7 8.5C1.7 4.75065 4.75065 1.7 8.5 1.7C12.2494 1.7 15.3 4.75065 15.3 8.5C15.3 12.2494 12.2494 15.3 8.5 15.3Z" fill="#ACACAC"/>
<path d="M9.35039 4.25H7.65039V8.8519L10.4494 11.6509L11.6513 10.4491L9.35039 8.1481V4.25Z" fill="#ACACAC"/>
</g>
<defs>
<clipPath id="clip0_751_2546">
<rect width="17" height="17" fill="white"/>
</clipPath>
</defs>
</svg>
