<svg width="9" height="10" viewBox="0 0 9 10" fill="none" xmlns="http://www.w3.org/2000/svg">
<path d="M0.989679 10C0.897104 10 0.808321 9.9561 0.742861 9.87796C0.6774 9.79982 0.640625 9.69384 0.640625 9.58333V0.416598C0.640635 0.344193 0.656451 0.273041 0.686514 0.210155C0.716577 0.147269 0.759848 0.0948198 0.812064 0.0579768C0.86428 0.0211337 0.923637 0.00116869 0.984285 4.97681e-05C1.04493 -0.00106916 1.10478 0.0166966 1.15792 0.0515958L8.13901 4.63496C8.19373 4.67093 8.23937 4.72377 8.27116 4.78798C8.30294 4.85218 8.31971 4.92539 8.31971 4.99996C8.31971 5.07454 8.30294 5.14775 8.27116 5.21195C8.23937 5.27616 8.19373 5.329 8.13901 5.36497L1.15792 9.94833C1.10639 9.9822 1.04851 9.99998 0.989679 10Z" fill="white"/>
</svg>
